STARTFONT 2.1
COMMENT
COMMENT Izumi Bitmap Font Series
COMMENT   Izumi Gothic-M 16dot Kanji Font
COMMENT       for JIS X 0213:2004 Plane-2
COMMENT      (IZMG16-2004-2, Rel. Final Beta, 1st, March, 2007)
COMMENT
COMMENT  Designed by
COMMENT            Yu Izumi, 2001-2007.
COMMENT
COMMENT  Thanks to...
COMMENT    SHAKEN and JSA(JIS X 9051:1985, eq. jiskan16)
COMMENT    Toshiaki Imamura and HANATAKA Shinya(jiskan16-2000)
COMMENT    griponn(Japanese FreeDOS User's Group)
COMMENT
FONT -Izumi-Gothic-Medium-R-Normal--16-150-75-75-C-160-JISX0213.2004-2
SIZE 16 75 75
FONTBOUNDINGBOX 16 16 0 -2
STARTPROPERTIES 18
FONTNAME_REGISTRY ""
FOUNDRY "Izumi"
FAMILY_NAME "Gothic"
WEIGHT_NAME "Medium"
SLANT "R"
SETWIDTH_NAME "Normal"
ADD_STYLE_NAME ""
PIXEL_SIZE 16
POINT_SIZE 150
RESOLUTION_X 75
RESOLUTION_Y 75
SPACING "C"
AVERAGE_WIDTH 160
CHARSET_REGISTRY "JISX0213.2004"
CHARSET_ENCODING "2"
DEFAULT_CHAR 8481
FONT_DESCENT 2
FONT_ASCENT 14
ENDPROPERTIES
CHARS 2449
STARTCHAR 2121
ENCODING 8481
SWIDTH 823 0
DWIDTH 16 0
BBX 16 16 0 -2
BITMAP
0000
0000
0000
0400
0400
0400
0800
0ffe
1000
2000
4000
0000
0000
0000
0000
0000
ENDCHAR
STARTCHAR 2122
ENCODING 8482
SWIDTH 823 0
DWIDTH 16 0
BBX 16 16 0 -2
BITMAP
0000
1ffc
0100
0100
0200
0200
07f0
0410
0010
0010
0010
0010
0020
0020
01c0
0000
ENDCHAR
STARTCHAR 2123
ENCODING 8483
SWIDTH 823 0
DWIDTH 16 0
BBX 16 16 0 -2
BITMAP
0000
7fff
0080
0080
10fe
1082
1082
1082
1ffe
0002
0002
0002
0004
0004
0078
0000
ENDCHAR
STARTCHAR 2124
ENCODING 8484
SWIDTH 823 0
DWIDTH 16 0
BBX 16 16 0 -2
BITMAP
0000
3ffe
0082
0882
0482
0282
0102
0182
0242
0402
0804
1004
6038
0000
7fff
0000
ENDCHAR
STARTCHAR 2125
ENCODING 8485
SWIDTH 823 0
DWIDTH 16 0
BBX 16 16 0 -2
BITMAP
0010
0010
0410
0410
0410
0410
0410
0410
0410
0470
0590
0610
1810
0010
0010
0000
ENDCHAR
STARTCHAR 2126
ENCODING 8486
SWIDTH 823 0
DWIDTH 16 0
BBX 16 16 0 -2
BITMAP
0000
1008
0810
0420
0240
0180
0100
0100
0100
0100
0100
0100
0100
0100
0100
0000
ENDCHAR
STARTCHAR 2127
ENCODING 8487
SWIDTH 823 0
DWIDTH 16 0
BBX 16 16 0 -2
BITMAP
0000
7ff8
0008
0208
0208
0208
3fe8
0208
0208
0208
3fe8
0204
0205
0205
0202
0000
ENDCHAR
STARTCHAR 2128
ENCODING 8488
SWIDTH 823 0
DWIDTH 16 0
BBX 16 16 0 -2
BITMAP
0000
0400
0400
0a00
0a00
1200
2100
0100
0100
0080
0080
0040
0020
0018
0007
0000
ENDCHAR
STARTCHAR 2129
ENCODING 8489
SWIDTH 823 0
DWIDTH 16 0
BBX 16 16 0 -2
BITMAP
0018
00e0
1f00
0100
0100
0100
0100
7fff
0100
0100
0100
0100
0102
0102
00fe
0000
ENDCHAR
STARTCHAR 212a
ENCODING 8490
SWIDTH 823 0
DWIDTH 16 0
BBX 16 16 0 -2
BITMAP
0400
0400
0400
0400
0800
0900
1100
2100
0100
0110
0208
0208
020c
04f2
3f02
0000
ENDCHAR
STARTCHAR 212b
ENCODING 8491
SWIDTH 823 0
DWIDTH 16 0
BBX 16 16 0 -2
BITMAP
0018
0060
0f80
080c
0830
08e0
0fa2
08a4
08b8
0890
1090
1088
2084
4083
0080
0000
ENDCHAR
STARTCHAR 212c
ENCODING 8492
SWIDTH 823 0
DWIDTH 16 0
BBX 16 16 0 -2
BITMAP
001c
0060
0380
1c80
0080
04c0
18c2
60a4
00a8
0090
0488
1884
6083
0080
0080
0000
ENDCHAR
STARTCHAR 212d
ENCODING 8493
SWIDTH 823 0
DWIDTH 16 0
BBX 16 16 0 -2
BITMAP
0038
07c0
0400
07f8
0408
07f8
0408
07f8
0400
07f8
0408
0808
0808
1008
2030
0000
ENDCHAR
STARTCHAR 212e
ENCODING 8494
SWIDTH 823 0
DWIDTH 16 0
BBX 16 16 0 -2
BITMAP
0080
0100
0ff8
0808
0808
0808
0ff8
0800
0800
0ffc
0804
0804
0804
0804
0ffc
0000
ENDCHAR
STARTCHAR 212f
ENCODING 8495
SWIDTH 823 0
DWIDTH 16 0
BBX 16 16 0 -2
BITMAP
1000
1000
1000
1000
1000
1000
1000
1000
1000
1000
1000
1000
1004
0804
07fc
0000
ENDCHAR
STARTCHAR 2130
ENCODING 8496
SWIDTH 823 0
DWIDTH 16 0
BBX 16 16 0 -2
BITMAP
0820
0820
0820
0fa0
0820
0820
0820
0820
7f20
4120
4120
4120
4121
4121
7f1f
0000
ENDCHAR
STARTCHAR 2131
ENCODING 8497
SWIDTH 823 0
DWIDTH 16 0
BBX 16 16 0 -2
BITMAP
0100
0210
0478
1f84
0000
1010
1212
2626
7979
0000
0000
0ff8
0000
0000
7fff
0000
ENDCHAR
STARTCHAR 2132
ENCODING 8498
SWIDTH 823 0
DWIDTH 16 0
BBX 16 16 0 -2
BITMAP
0100
0100
7fff
0220
0210
04e8
3f04
0000
0888
0888
0888
0888
0889
1089
6087
0000
ENDCHAR
STARTCHAR 2133
ENCODING 8499
SWIDTH 823 0
DWIDTH 16 0
BBX 16 16 0 -2
BITMAP
0080
0080
7fff
0410
180c
6223
1ffc
0220
1ffc
0220
7fff
0242
7c34
078c
3c03
0000
ENDCHAR
STARTCHAR 2134
ENCODING 8500
SWIDTH 823 0
DWIDTH 16 0
BBX 16 16 0 -2
BITMAP
0080
0080
7fff
0000
3bee
2222
3bae
22a2
7fff
4809
0ff8
0808
0ff8
0808
7fff
0000
ENDCHAR
STARTCHAR 2135
ENCODING 8501
SWIDTH 823 0
DWIDTH 16 0
BBX 16 16 0 -2
BITMAP
0010
0010
0020
0040
0080
0180
0680
1880
0080
0080
0080
0080
0080
0080
0080
0000
ENDCHAR
STARTCHAR 2136
ENCODING 8502
SWIDTH 823 0
DWIDTH 16 0
BBX 16 16 0 -2
BITMAP
0000
0000
0000
0080
0080
0140
0220
0410
0808
1004
6003
0000
0000
0000
0000
0000
ENDCHAR
STARTCHAR 2137
ENCODING 8503
SWIDTH 823 0
DWIDTH 16 0
BBX 16 16 0 -2
BITMAP
0080
0080
0080
0080
0080
0140
0140
0220
0220
0410
0808
1004
6003
0000
7fff
0000
ENDCHAR
STARTCHAR 2138
ENCODING 8504
SWIDTH 823 0
DWIDTH 16 0
BBX 16 16 0 -2
BITMAP
0800
0800
0bff
1010
1010
3010
5010
1010
1010
1010
1010
1010
1010
1010
1030
0000
ENDCHAR
STARTCHAR 2139
ENCODING 8505
SWIDTH 823 0
DWIDTH 16 0
BBX 16 16 0 -2
BITMAP
0818
0808
0888
1088
1088
3088
5084
1084
1084
1104
1104
1102
1202
1202
1401
0000
ENDCHAR
STARTCHAR 213a
ENCODING 8506
SWIDTH 823 0
DWIDTH 16 0
BBX 16 16 0 -2
BITMAP
0080
0080
0140
0220
0410
188c
6083
0080
0080
7fff
0080
0080
0080
0080
0080
0000
ENDCHAR
STARTCHAR 213b
ENCODING 8507
SWIDTH 823 0
DWIDTH 16 0
BBX 16 16 0 -2
BITMAP
0840
0840
0840
1080
1090
3110
5210
1010
1020
1020
1024
1042
1042
109f
17e1
0000
ENDCHAR
STARTCHAR 213c
ENCODING 8508
SWIDTH 823 0
DWIDTH 16 0
BBX 16 16 0 -2
BITMAP
0080
0080
0140
0220
0410
188c
6083
0080
0080
2082
2082
2082
2082
2082
3ffe
0000
ENDCHAR
STARTCHAR 213d
ENCODING 8509
SWIDTH 823 0
DWIDTH 16 0
BBX 16 16 0 -2
BITMAP
0820
0820
0850
1088
1104
32fa
5401
1000
11fc
1004
1004
1008
1008
1010
1020
0000
ENDCHAR
STARTCHAR 213e
ENCODING 8510
SWIDTH 823 0
DWIDTH 16 0
BBX 16 16 0 -2
BITMAP
0880
0880
0880
11fe
1120
3220
5020
1020
13ff
1020
1020
1020
1020
1020
1020
0000
ENDCHAR
STARTCHAR 213f
ENCODING 8511
SWIDTH 823 0
DWIDTH 16 0
BBX 16 16 0 -2
BITMAP
0818
0888
0884
1084
1122
3122
5221
1020
1020
1048
1044
1042
1086
1099
17e1
0000
ENDCHAR
STARTCHAR 2140
ENCODING 8512
SWIDTH 823 0
DWIDTH 16 0
BBX 16 16 0 -2
BITMAP
0840
0840
0840
13fe
1040
3040
50fc
1084
1084
1148
1228
1410
1028
10c4
1303
0000
ENDCHAR
STARTCHAR 2141
ENCODING 8513
SWIDTH 823 0
DWIDTH 16 0
BBX 16 16 0 -2
BITMAP
0800
0ffe
0900
1100
1100
31f8
5108
1108
1148
1128
1108
1108
1169
1189
1607
0000
ENDCHAR
STARTCHAR 2142
ENCODING 8514
SWIDTH 823 0
DWIDTH 16 0
BBX 16 16 0 -2
BITMAP
0820
0820
0820
1020
13fe
3222
5222
1222
1222
13fe
1222
1222
1222
1222
13fe
0000
ENDCHAR
STARTCHAR 2143
ENCODING 8515
SWIDTH 823 0
DWIDTH 16 0
BBX 16 16 0 -2
BITMAP
0800
09fe
0810
1010
1030
3020
5068
10a4
1122
1221
1020
1020
1020
1000
13ff
0000
ENDCHAR
STARTCHAR 2144
ENCODING 8516
SWIDTH 823 0
DWIDTH 16 0
BBX 16 16 0 -2
BITMAP
0820
0820
0820
1020
103e
3020
5020
1020
1020
13fe
1202
1202
1202
1202
13fe
0000
ENDCHAR
STARTCHAR 2145
ENCODING 8517
SWIDTH 823 0
DWIDTH 16 0
BBX 16 16 0 -2
BITMAP
0080
0140
0220
0c18
7007
0ff8
0000
0000
3fff
0080
0490
0888
1084
2082
0180
0000
ENDCHAR
STARTCHAR 2146
ENCODING 8518
SWIDTH 823 0
DWIDTH 16 0
BBX 16 16 0 -2
BITMAP
0800
0fff
0820
1020
13fe
3222
5222
12aa
12aa
12aa
12aa
12fa
1202
1202
120e
0000
ENDCHAR
STARTCHAR 2147
ENCODING 8519
SWIDTH 823 0
DWIDTH 16 0
BBX 16 16 0 -2
BITMAP
0800
09fc
0904
1104
11fc
3104
5104
11fc
1122
1112
1114
1108
1108
11e4
1303
0000
ENDCHAR
STARTCHAR 2148
ENCODING 8520
SWIDTH 823 0
DWIDTH 16 0
BBX 16 16 0 -2
BITMAP
081c
0be0
0820
1020
1020
37ff
5020
1020
1020
13fe
1202
1202
1202
1202
13fe
0000
ENDCHAR
STARTCHAR 2149
ENCODING 8521
SWIDTH 823 0
DWIDTH 16 0
BBX 16 16 0 -2
BITMAP
0820
0850
0888
1104
1202
3401
51fc
1020
1020
1020
11fc
1020
1020
1020
17ff
0000
ENDCHAR
STARTCHAR 214a
ENCODING 8522
SWIDTH 823 0
DWIDTH 16 0
BBX 16 16 0 -2
BITMAP
0840
0840
0840
107f
1481
3292
5114
1010
1010
1110
1228
1428
1044
1082
1101
0000
ENDCHAR
STARTCHAR 214b
ENCODING 8523
SWIDTH 823 0
DWIDTH 16 0
BBX 16 16 0 -2
BITMAP
0820
0820
0bff
1200
121c
32e0
5220
1220
123f
13e0
1220
1220
1421
1421
101f
0000
ENDCHAR
STARTCHAR 214c
ENCODING 8524
SWIDTH 823 0
DWIDTH 16 0
BBX 16 16 0 -2
BITMAP
0820
0820
0820
17ff
1040
3088
5110
10a2
1042
1084
1308
1010
1028
10c4
1302
0000
ENDCHAR
STARTCHAR 214d
ENCODING 8525
SWIDTH 823 0
DWIDTH 16 0
BBX 16 16 0 -2
BITMAP
0820
0820
0bff
1201
1241
3040
53ff
1044
1084
1084
1188
1070
1028
10c4
1302
0000
ENDCHAR
STARTCHAR 214e
ENCODING 8526
SWIDTH 823 0
DWIDTH 16 0
BBX 16 16 0 -2
BITMAP
0900
0900
09fe
1202
1202
35f2
5112
1112
11f2
1112
1112
11f2
1004
1004
1038
0000
ENDCHAR
STARTCHAR 214f
ENCODING 8527
SWIDTH 823 0
DWIDTH 16 0
BBX 16 16 0 -2
BITMAP
0820
0820
0bfe
1020
11fc
3020
53fe
1044
1084
17ff
1104
1244
1024
1004
101c
0000
ENDCHAR
STARTCHAR 2150
ENCODING 8528
SWIDTH 823 0
DWIDTH 16 0
BBX 16 16 0 -2
BITMAP
0800
0bff
0a00
1200
12fe
3200
5200
13ff
1290
1292
1494
1488
1888
10e4
1383
0000
ENDCHAR
STARTCHAR 2151
ENCODING 8529
SWIDTH 823 0
DWIDTH 16 0
BBX 16 16 0 -2
BITMAP
0820
0822
09fc
1028
1030
33ff
5040
11fc
1608
1010
13ff
1010
1010
1010
1070
0000
ENDCHAR
STARTCHAR 2152
ENCODING 8530
SWIDTH 823 0
DWIDTH 16 0
BBX 16 16 0 -2
BITMAP
0824
0824
0822
17ff
1020
3222
5124
1128
1030
1070
10a8
1124
1622
1021
10e0
0000
ENDCHAR
STARTCHAR 2153
ENCODING 8531
SWIDTH 823 0
DWIDTH 16 0
BBX 16 16 0 -2
BITMAP
0800
09fc
0904
1104
11fc
3000
53fe
1222
1222
1222
13fe
1200
1201
1201
11ff
0000
ENDCHAR
STARTCHAR 2154
ENCODING 8532
SWIDTH 823 0
DWIDTH 16 0
BBX 16 16 0 -2
BITMAP
0924
0924
0a22
1020
11fe
3102
5102
11fe
1102
1102
11fe
1102
1102
1102
110e
0000
ENDCHAR
STARTCHAR 2155
ENCODING 8533
SWIDTH 823 0
DWIDTH 16 0
BBX 16 16 0 -2
BITMAP
0820
0820
0bff
1201
1201
30fc
5000
1000
13ff
1048
1048
1088
1088
1109
1207
0000
ENDCHAR
STARTCHAR 2156
ENCODING 8534
SWIDTH 823 0
DWIDTH 16 0
BBX 16 16 0 -2
BITMAP
0820
0820
0fff
1104
1088
3070
518c
1707
11fc
1104
1104
11fc
1104
1204
1404
0000
ENDCHAR
STARTCHAR 2157
ENCODING 8535
SWIDTH 823 0
DWIDTH 16 0
BBX 16 16 0 -2
BITMAP
0908
0908
0908
1fc8
103f
3289
5489
1849
1289
1289
1289
1109
1291
1251
1426
0000
ENDCHAR
STARTCHAR 2158
ENCODING 8536
SWIDTH 823 0
DWIDTH 16 0
BBX 16 16 0 -2
BITMAP
0800
09fe
0900
11fc
1100
31fc
5100
1100
17ff
1122
1122
1114
1148
1184
1603
0000
ENDCHAR
STARTCHAR 2159
ENCODING 8537
SWIDTH 823 0
DWIDTH 16 0
BBX 16 16 0 -2
BITMAP
0840
087c
0884
1184
1448
3430
54cc
1703
1412
1492
1494
1510
1428
1044
1183
0000
ENDCHAR
STARTCHAR 215a
ENCODING 8538
SWIDTH 823 0
DWIDTH 16 0
BBX 16 16 0 -2
BITMAP
0820
0922
0922
1224
1250
3048
5084
1323
1020
1122
1254
1250
1088
1104
1203
0000
ENDCHAR
STARTCHAR 215b
ENCODING 8539
SWIDTH 823 0
DWIDTH 16 0
BBX 16 16 0 -2
BITMAP
0800
0bfe
0a02
1222
12fa
3222
52fa
1222
1202
12fa
128a
128a
12fa
1402
140e
0000
ENDCHAR
STARTCHAR 215c
ENCODING 8540
SWIDTH 823 0
DWIDTH 16 0
BBX 16 16 0 -2
BITMAP
0820
0820
0fff
1000
11fc
3104
5104
1104
11fc
1020
1124
1222
1421
1020
10e0
0000
ENDCHAR
STARTCHAR 215d
ENCODING 8541
SWIDTH 823 0
DWIDTH 16 0
BBX 16 16 0 -2
BITMAP
0820
0820
0fff
1020
13fe
3022
57ff
1022
13fe
1020
1120
113e
12a0
1460
183f
0000
ENDCHAR
STARTCHAR 215e
ENCODING 8542
SWIDTH 823 0
DWIDTH 16 0
BBX 16 16 0 -2
BITMAP
0800
09fc
0904
1104
1104
31fc
5080
11fe
1620
1020
17ff
1050
1088
1104
1603
0000
ENDCHAR
STARTCHAR 215f
ENCODING 8543
SWIDTH 823 0
DWIDTH 16 0
BBX 16 16 0 -2
BITMAP
0904
0884
0888
17ff
1000
33c2
5252
1352
12d2
1252
1352
12d2
1242
1242
12c6
0000
ENDCHAR
STARTCHAR 2160
ENCODING 8544
SWIDTH 823 0
DWIDTH 16 0
BBX 16 16 0 -2
BITMAP
0000
0000
0000
0000
0000
0000
0000
0000
0000
0000
0000
0000
0000
0000
0000
0000
ENDCHAR
STARTCHAR 2160
ENCODING 8544
SWIDTH 823 0
DWIDTH 16 0
BBX 16 16 0 -2
BITMAP
0820
0820
0bfe
1020
11fc
3050
53ff
1088
11fc
1306
1505
11fc
1104
1104
11fc
0000
ENDCHAR
STARTCHAR 2161
ENCODING 8545
SWIDTH 823 0
DWIDTH 16 0
BBX 16 16 0 -2
BITMAP
0800
09fc
0924
11fc
1124
3124
51fc
1000
17ff
1122
1122
1114
1108
11c4
1703
0000
ENDCHAR
STARTCHAR 2162
ENCODING 8546
SWIDTH 823 0
DWIDTH 16 0
BBX 16 16 0 -2
BITMAP
0800
0bfe
0a02
1202
13fe
3200
52fe
1220
124c
12f2
1410
14fe
1810
1010
11ff
0000
ENDCHAR
STARTCHAR 2163
ENCODING 8547
SWIDTH 823 0
DWIDTH 16 0
BBX 16 16 0 -2
BITMAP
0820
08a4
0922
1669
1010
3020
50fe
1782
10fe
1082
1082
10fe
1082
1082
10fe
0000
ENDCHAR
STARTCHAR 2164
ENCODING 8548
SWIDTH 823 0
DWIDTH 16 0
BBX 16 16 0 -2
BITMAP
0820
0820
0bfe
1104
1084
3088
57ff
1000
11fc
1104
1104
11fc
1104
1104
11fc
0000
ENDCHAR
STARTCHAR 2165
ENCODING 8549
SWIDTH 823 0
DWIDTH 16 0
BBX 16 16 0 -2
BITMAP
0800
0bff
0821
113c
1120
33e0
521f
1400
11fe
1102
11fe
1102
11fe
1102
110e
0000
ENDCHAR
STARTCHAR 2166
ENCODING 8550
SWIDTH 823 0
DWIDTH 16 0
BBX 16 16 0 -2
BITMAP
0800
0bfe
0800
11fc
1104
3104
51fc
1000
13fe
1222
1222
13fe
1222
1222
13fe
0000
ENDCHAR
STARTCHAR 2167
ENCODING 8551
SWIDTH 823 0
DWIDTH 16 0
BBX 16 16 0 -2
BITMAP
0900
09de
0f0a
11ca
170a
310a
51d2
1712
1124
1020
17ff
1050
1088
1104
1603
0000
ENDCHAR
STARTCHAR 2168
ENCODING 8552
SWIDTH 823 0
DWIDTH 16 0
BBX 16 16 0 -2
BITMAP
0820
0820
0fff
1020
13fe
3050
57ff
1088
1104
1623
11a4
1078
11ac
1623
1060
0000
ENDCHAR
STARTCHAR 2169
ENCODING 8553
SWIDTH 823 0
DWIDTH 16 0
BBX 16 16 0 -2
BITMAP
0800
0fff
0890
1090
17fe
3492
5492
17fe
1020
1fff
10a8
1124
1222
1421
1020
0000
ENDCHAR
STARTCHAR 216a
ENCODING 8554
SWIDTH 823 0
DWIDTH 16 0
BBX 16 16 0 -2
BITMAP
081e
0be8
0a44
1222
1440
3088
5110
10a4
104e
13f1
1020
17ff
1050
118c
1603
0000
ENDCHAR
STARTCHAR 216b
ENCODING 8555
SWIDTH 823 0
DWIDTH 16 0
BBX 16 16 0 -2
BITMAP
080e
0bf0
0a00
13fe
1202
33fe
5200
13ff
1221
1267
13b9
1463
15bd
1021
10e7
0000
ENDCHAR
STARTCHAR 216c
ENCODING 8556
SWIDTH 823 0
DWIDTH 16 0
BBX 16 16 0 -2
BITMAP
0840
0840
0bff
1241
1245
3088
51fe
1310
15fe
1110
1110
11fe
1110
1110
11ff
0000
ENDCHAR
STARTCHAR 216d
ENCODING 8557
SWIDTH 823 0
DWIDTH 16 0
BBX 16 16 0 -2
BITMAP
0820
0850
098c
1673
1000
31fc
5104
11fc
1104
11fc
1200
12fe
1482
1082
10fe
0000
ENDCHAR
STARTCHAR 216e
ENCODING 8558
SWIDTH 823 0
DWIDTH 16 0
BBX 16 16 0 -2
BITMAP
0840
087c
08c4
1328
10b0
30c0
5700
11fe
1220
1020
17ff
1020
1222
1222
13fe
0000
ENDCHAR
STARTCHAR 216f
ENCODING 8559
SWIDTH 823 0
DWIDTH 16 0
BBX 16 16 0 -2
BITMAP
0840
0890
0aec
1204
148b
3f5d
5020
1050
118c
1663
1180
1030
10c4
1018
13e0
0000
ENDCHAR
STARTCHAR 2170
ENCODING 8560
SWIDTH 823 0
DWIDTH 16 0
BBX 16 16 0 -2
BITMAP
0800
0bfe
0a22
13fe
1222
33fe
5124
17ff
1124
1124
13fe
1020
13fe
1020
1020
0000
ENDCHAR
STARTCHAR 2171
ENCODING 8561
SWIDTH 823 0
DWIDTH 16 0
BBX 16 16 0 -2
BITMAP
0922
0922
0a22
1255
1455
3108
5108
1248
124e
1648
1248
1248
1268
1258
128f
0000
ENDCHAR
STARTCHAR 2172
ENCODING 8562
SWIDTH 823 0
DWIDTH 16 0
BBX 16 16 0 -2
BITMAP
0900
09de
0b22
16a2
1154
3088
51fc
1603
1000
13fe
1020
1124
1222
1421
1060
0000
ENDCHAR
STARTCHAR 2173
ENCODING 8563
SWIDTH 823 0
DWIDTH 16 0
BBX 16 16 0 -2
BITMAP
0820
0bfe
0a8a
1272
128a
33fe
5108
1248
1447
10fc
1384
1048
1030
10ec
1703
0000
ENDCHAR
STARTCHAR 2174
ENCODING 8564
SWIDTH 823 0
DWIDTH 16 0
BBX 16 16 0 -2
BITMAP
0800
0bff
0890
13fe
1292
3292
53fe
1000
11fc
1000
13ff
1020
1124
1623
10e0
0000
ENDCHAR
STARTCHAR 2175
ENCODING 8565
SWIDTH 823 0
DWIDTH 16 0
BBX 16 16 0 -2
BITMAP
0800
0bdf
08c5
114b
12d5
3149
5220
10d8
1707
1020
11c8
1032
11c4
1018
11e0
0000
ENDCHAR
STARTCHAR 2176
ENCODING 8566
SWIDTH 823 0
DWIDTH 16 0
BBX 16 16 0 -2
BITMAP
0800
0fff
0850
13fe
1252
3252
53fe
1124
10a8
17ff
10a8
1124
1222
1421
1020
0000
ENDCHAR
STARTCHAR 2177
ENCODING 8567
SWIDTH 823 0
DWIDTH 16 0
BBX 16 16 0 -2
BITMAP
0800
0bfe
0a22
132a
12b2
3222
53fe
1020
13fe
1020
17ff
1000
1292
1449
1449
0000
ENDCHAR
STARTCHAR 2178
ENCODING 8568
SWIDTH 823 0
DWIDTH 16 0
BBX 16 16 0 -2
BITMAP
0800
0bdf
0a51
13df
1210
3251
51cf
1088
13fe
1088
1088
17ff
1088
1104
1603
0000
ENDCHAR
STARTCHAR 2179
ENCODING 8569
SWIDTH 823 0
DWIDTH 16 0
BBX 16 16 0 -2
BITMAP
0908
0910
0bfe
1620
13fc
3220
53fc
1220
13fe
1020
17ff
10a8
1124
1623
1020
0000
ENDCHAR
STARTCHAR 217a
ENCODING 8570
SWIDTH 823 0
DWIDTH 16 0
BBX 16 16 0 -2
BITMAP
093c
0a02
0dfd
1050
13fe
3252
539e
1202
13fe
1202
13fe
1004
17ff
1104
109c
0000
ENDCHAR
STARTCHAR 217b
ENCODING 8571
SWIDTH 823 0
DWIDTH 16 0
BBX 16 16 0 -2
BITMAP
0888
0bfe
0888
10f8
1000
37ff
5020
13fc
1224
13fc
1224
1224
13fc
1108
1606
0000
ENDCHAR
STARTCHAR 217c
ENCODING 8572
SWIDTH 823 0
DWIDTH 16 0
BBX 16 16 0 -2
BITMAP
0820
0fff
0820
13fe
1222
33fe
5222
13fe
1022
17ff
1041
1124
1522
1905
10fc
0000
ENDCHAR
STARTCHAR 217d
ENCODING 8573
SWIDTH 823 0
DWIDTH 16 0
BBX 16 16 0 -2
BITMAP
0800
0fdf
0c51
17df
1451
37df
5401
14f9
1489
14f9
1489
14f9
1489
1499
1407
0000
ENDCHAR
STARTCHAR 217e
ENCODING 8574
SWIDTH 823 0
DWIDTH 16 0
BBX 16 16 0 -2
BITMAP
0850
0a52
0954
17ff
1104
3088
53fe
1020
11fc
1020
17ff
10a8
1124
1623
1020
0000
ENDCHAR
STARTCHAR 2321
ENCODING 8993
SWIDTH 823 0
DWIDTH 16 0
BBX 16 16 0 -2
BITMAP
0820
0850
098c
16fb
1000
33fe
52aa
1272
13fe
1000
11fc
1104
11fc
1104
11fc
0000
ENDCHAR
STARTCHAR 2322
ENCODING 8994
SWIDTH 823 0
DWIDTH 16 0
BBX 16 16 0 -2
BITMAP
0bff
0848
0bff
1249
13ff
3000
53ff
1201
12fd
1221
1279
1229
12fd
1201
13ff
0000
ENDCHAR
STARTCHAR 2323
ENCODING 8995
SWIDTH 823 0
DWIDTH 16 0
BBX 16 16 0 -2
BITMAP
0a00
0a5e
0b82
1214
1248
31df
5209
138a
1528
112e
17a8
1128
11a8
1258
1447
0000
ENDCHAR
STARTCHAR 2324
ENCODING 8996
SWIDTH 823 0
DWIDTH 16 0
BBX 16 16 0 -2
BITMAP
0900
0900
0bfe
1554
17ff
3154
5154
13fe
1104
11de
1254
1554
10bf
1104
1604
0000
ENDCHAR
STARTCHAR 2325
ENCODING 8997
SWIDTH 823 0
DWIDTH 16 0
BBX 16 16 0 -2
BITMAP
0a42
0924
0fff
0c08
15c8
1488
37ef
554a
15d2
154a
15ca
1544
15cc
1b4a
1051
0000
ENDCHAR
STARTCHAR 2326
ENCODING 8998
SWIDTH 823 0
DWIDTH 16 0
BBX 16 16 0 -2
BITMAP
0888
0909
0bea
7a2c
0a28
0be8
0a28
1a29
6be9
0807
0220
0220
0421
1821
601f
0000
ENDCHAR
STARTCHAR 2327
ENCODING 8999
SWIDTH 823 0
DWIDTH 16 0
BBX 16 16 0 -2
BITMAP
0000
0080
0490
0488
0884
1082
2ffa
0140
0220
7fff
0410
0808
1004
6003
0000
0000
ENDCHAR
STARTCHAR 2328
ENCODING 9000
SWIDTH 823 0
DWIDTH 16 0
BBX 16 16 0 -2
BITMAP
0810
0410
0220
0040
1ffc
0080
0080
0080
3ffe
0080
0140
0220
0410
180c
6003
0000
ENDCHAR
STARTCHAR 2329
ENCODING 9001
SWIDTH 823 0
DWIDTH 16 0
BBX 16 16 0 -2
BITMAP
0000
1ffc
1004
1004
1004
17f4
1004
1004
1004
17f4
1004
1004
1004
1004
101c
0000
ENDCHAR
STARTCHAR 232a
ENCODING 9002
SWIDTH 823 0
DWIDTH 16 0
BBX 16 16 0 -2
BITMAP
0000
7ffe
4002
4002
4002
47e2
4422
4422
4422
4422
47e2
4002
4002
4002
4002
400e
ENDCHAR
STARTCHAR 232b
ENCODING 9003
SWIDTH 823 0
DWIDTH 16 0
BBX 16 16 0 -2
BITMAP
0410
0410
7fff
0410
07f0
0080
3ffe
2082
2cb2
2492
2492
2aaa
30c6
2082
208e
0000
ENDCHAR
STARTCHAR 232c
ENCODING 9004
SWIDTH 823 0
DWIDTH 16 0
BBX 16 16 0 -2
BITMAP
0080
0080
0080
3ffe
2082
2082
2082
00c0
0140
0140
0240
0240
0441
1841
603f
0000
ENDCHAR
STARTCHAR 232d
ENCODING 9005
SWIDTH 823 0
DWIDTH 16 0
BBX 16 16 0 -2
BITMAP
0000
3ffe
2002
2002
3f00
12fc
1e44
1244
1244
1e28
1228
1210
1e28
3244
0282
0000
ENDCHAR
STARTCHAR 232e
ENCODING 9006
SWIDTH 823 0
DWIDTH 16 0
BBX 16 16 0 -2
BITMAP
0080
0080
0080
7fff
0140
0220
0410
180c
6183
0060
0000
0000
0030
00c0
0700
0000
ENDCHAR
STARTCHAR 232f
ENCODING 9007
SWIDTH 823 0
DWIDTH 16 0
BBX 16 16 0 -2
BITMAP
001c
21e0
1020
0820
0020
07ff
0020
0020
0850
0850
1050
1088
2088
2104
4603
0000
ENDCHAR
STARTCHAR 2330
ENCODING 9008
SWIDTH 823 0
DWIDTH 16 0
BBX 16 16 0 -2
BITMAP
0010
2090
1090
08fe
0110
0210
0010
03ff
0848
0848
1048
1088
2089
2109
4207
0000
ENDCHAR
STARTCHAR 2331
ENCODING 9009
SWIDTH 823 0
DWIDTH 16 0
BBX 16 16 0 -2
BITMAP
0088
4088
2104
1222
0020
0050
0088
0104
0a03
09fe
1102
1102
2102
2102
41fe
0000
ENDCHAR
STARTCHAR 2332
ENCODING 9010
SWIDTH 823 0
DWIDTH 16 0
BBX 16 16 0 -2
BITMAP
0000
1ff8
1008
1008
1008
1008
1008
1008
1008
1008
1008
1004
2005
2005
4002
0000
ENDCHAR
STARTCHAR 2333
ENCODING 9011
SWIDTH 823 0
DWIDTH 16 0
BBX 16 16 0 -2
BITMAP
07c8
2132
1214
0ff8
7007
07f0
0410
07f0
0220
3ffe
0000
07e0
0420
0821
701f
0000
ENDCHAR
STARTCHAR 2334
ENCODING 9012
SWIDTH 823 0
DWIDTH 16 0
BBX 16 16 0 -2
BITMAP
23fe
1220
0bfc
0220
03fc
0a20
13ff
2009
4525
0893
07e0
0420
0820
1021
601f
0000
ENDCHAR
STARTCHAR 2335
ENCODING 9013
SWIDTH 823 0
DWIDTH 16 0
BBX 16 16 0 -2
BITMAP
0010
0010
0410
0410
0410
0410
0410
0410
0410
0410
0410
0010
0010
0010
0070
0000
ENDCHAR
STARTCHAR 2336
ENCODING 9014
SWIDTH 823 0
DWIDTH 16 0
BBX 16 16 0 -2
BITMAP
0502
0482
0492
0412
7fd2
0412
0492
0492
0512
0512
0212
0602
1942
6142
008e
0000
ENDCHAR
STARTCHAR 2337
ENCODING 9015
SWIDTH 823 0
DWIDTH 16 0
BBX 16 16 0 -2
BITMAP
0002
1f82
1092
1092
1092
1f92
1092
1092
1092
1f92
1092
1082
2082
2082
418e
0000
ENDCHAR
STARTCHAR 2338
ENCODING 9016
SWIDTH 823 0
DWIDTH 16 0
BBX 16 16 0 -2
BITMAP
0400
047e
0a12
1112
2092
5f52
0412
3f92
2492
2492
3f92
0422
0a22
1142
608c
0000
ENDCHAR
STARTCHAR 2339
ENCODING 9017
SWIDTH 823 0
DWIDTH 16 0
BBX 16 16 0 -2
BITMAP
0902
0902
0912
39d2
0912
0912
39d2
0912
1912
69d2
0912
0902
1102
1102
210e
0000
ENDCHAR
STARTCHAR 233a
ENCODING 9018
SWIDTH 823 0
DWIDTH 16 0
BBX 16 16 0 -2
BITMAP
0201
0201
3fe9
2029
2029
1009
1de9
1529
2529
6529
1569
0901
0911
1111
60f7
0000
ENDCHAR
STARTCHAR 233b
ENCODING 9019
SWIDTH 823 0
DWIDTH 16 0
BBX 16 16 0 -2
BITMAP
0402
4482
4492
7f92
0012
7f92
0812
1012
7f92
5492
5492
5482
5482
5482
558e
0000
ENDCHAR
STARTCHAR 233c
ENCODING 9020
SWIDTH 823 0
DWIDTH 16 0
BBX 16 16 0 -2
BITMAP
0402
0402
3fd2
1112
0e12
1192
3fd2
2a12
2a12
3f92
3212
2f82
4202
43c2
1e0e
0000
ENDCHAR
STARTCHAR 233d
ENCODING 9021
SWIDTH 823 0
DWIDTH 16 0
BBX 16 16 0 -2
BITMAP
1102
1102
1ff2
2a92
2852
4612
0512
0892
1052
6fb2
0012
1f82
1082
1082
1f8e
0000
ENDCHAR
STARTCHAR 233e
ENCODING 9022
SWIDTH 823 0
DWIDTH 16 0
BBX 16 16 0 -2
BITMAP
0001
3ff9
2885
24c5
2545
3ffd
2245
2a95
2a95
2a95
2a95
2fa9
4229
4429
0847
0000
ENDCHAR
STARTCHAR 233f
ENCODING 9023
SWIDTH 823 0
DWIDTH 16 0
BBX 16 16 0 -2
BITMAP
0802
33c2
2152
2952
3a52
6ad2
0012
7fd2
0912
39d2
2052
39c2
0902
0bc2
7c0e
0000
ENDCHAR
STARTCHAR 2340
ENCODING 9024
SWIDTH 823 0
DWIDTH 16 0
BBX 16 16 0 -2
BITMAP
0201
3ff1
2445
3ef5
2445
2d55
2d55
3555
2285
2ee5
2285
2ee1
4281
4ee1
0483
0000
ENDCHAR
STARTCHAR 2341
ENCODING 9025
SWIDTH 823 0
DWIDTH 16 0
BBX 16 16 0 -2
BITMAP
0020
3e20
0020
00fc
0024
7e24
1424
1424
1424
1444
1444
1484
2519
2401
43ff
0000
ENDCHAR
STARTCHAR 2342
ENCODING 9026
SWIDTH 823 0
DWIDTH 16 0
BBX 16 16 0 -2
BITMAP
0310
1c10
1010
1010
107f
1f91
1211
1211
1211
1211
1211
2221
2221
4241
0286
0000
ENDCHAR
STARTCHAR 2343
ENCODING 9027
SWIDTH 823 0
DWIDTH 16 0
BBX 16 16 0 -2
BITMAP
0080
0080
1ffc
0104
0204
0c04
3038
0000
1010
7f7f
1111
1111
2121
2141
4686
0000
ENDCHAR
STARTCHAR 2344
ENCODING 9028
SWIDTH 823 0
DWIDTH 16 0
BBX 16 16 0 -2
BITMAP
0020
0020
7e20
1020
11fe
1022
3c22
2422
6422
2422
2422
2442
3c42
0082
011c
0000
ENDCHAR
STARTCHAR 2345
ENCODING 9029
SWIDTH 823 0
DWIDTH 16 0
BBX 16 16 0 -2
BITMAP
0810
0810
0910
1310
3cff
0011
1411
1411
3f91
4411
0411
7fa1
0421
0441
048e
0000
ENDCHAR
STARTCHAR 2346
ENCODING 9030
SWIDTH 823 0
DWIDTH 16 0
BBX 16 16 0 -2
BITMAP
0010
0010
7f10
4010
5eff
4411
4411
5e11
4411
4411
5e11
4021
4021
7f41
008e
0000
ENDCHAR
STARTCHAR 2347
ENCODING 9031
SWIDTH 823 0
DWIDTH 16 0
BBX 16 16 0 -2
BITMAP
0410
0410
7f90
0410
047e
3f12
2112
2112
2112
3f22
0a22
0a42
128d
2201
41ff
0000
ENDCHAR
STARTCHAR 2348
ENCODING 9032
SWIDTH 823 0
DWIDTH 16 0
BBX 16 16 0 -2
BITMAP
2820
2820
3efc
4824
5ea4
0864
0845
0f65
70a3
0100
3ffe
0102
0202
0c02
701c
0000
ENDCHAR
STARTCHAR 2349
ENCODING 9033
SWIDTH 823 0
DWIDTH 16 0
BBX 16 16 0 -2
BITMAP
0410
0410
0410
7f90
047f
2511
2511
5691
5491
0e11
0e11
1511
24a1
4421
044e
0000
ENDCHAR
STARTCHAR 234a
ENCODING 9034
SWIDTH 823 0
DWIDTH 16 0
BBX 16 16 0 -2
BITMAP
0210
0210
3fd0
2510
2fff
2511
3fd1
2211
2f91
2a91
2f91
2a91
4fa1
4521
18ce
0000
ENDCHAR
STARTCHAR 234b
ENCODING 9035
SWIDTH 823 0
DWIDTH 16 0
BBX 16 16 0 -2
BITMAP
0408
7f88
0008
3b88
2abf
3b89
1109
3f89
1109
3f89
1109
7f89
3151
1c91
7066
0000
ENDCHAR
STARTCHAR 234c
ENCODING 9036
SWIDTH 823 0
DWIDTH 16 0
BBX 16 16 0 -2
BITMAP
0800
0800
0ffe
1002
2102
5122
0922
0942
3ff2
0382
0542
0922
3104
0104
0038
0000
ENDCHAR
STARTCHAR 234d
ENCODING 9037
SWIDTH 823 0
DWIDTH 16 0
BBX 16 16 0 -2
BITMAP
0800
0800
0ffe
1002
2402
47e2
0902
0102
1ff2
0102
0922
0922
0fe4
0004
0038
0000
ENDCHAR
STARTCHAR 234e
ENCODING 9038
SWIDTH 823 0
DWIDTH 16 0
BBX 16 16 0 -2
BITMAP
0000
3ffe
2000
27f8
2080
2080
2080
27f8
2080
2090
2088
2088
2ffc
2000
3ffe
0000
ENDCHAR
STARTCHAR 234f
ENCODING 9039
SWIDTH 823 0
DWIDTH 16 0
BBX 16 16 0 -2
BITMAP
0000
3fff
2080
3ffe
2080
2ffc
2924
2ffc
2408
27f8
2408
27f8
2210
2c0c
3fff
0000
ENDCHAR
STARTCHAR 2350
ENCODING 9040
SWIDTH 823 0
DWIDTH 16 0
BBX 16 16 0 -2
BITMAP
0000
7ffe
2000
2ffc
2000
27f8
2408
27f8
2400
2ffc
2ca4
37fc
24a4
240c
1fff
0000
ENDCHAR
STARTCHAR 2351
ENCODING 9041
SWIDTH 823 0
DWIDTH 16 0
BBX 16 16 0 -2
BITMAP
0000
7ff8
0008
0208
0208
0208
0208
0208
7fe8
0208
0208
0204
0205
0205
0202
0000
ENDCHAR
STARTCHAR 2352
ENCODING 9042
SWIDTH 823 0
DWIDTH 16 0
BBX 16 16 0 -2
BITMAP
0010
0410
0410
0410
3f90
0410
0410
0410
001f
03f0
7c10
0010
0010
0010
0010
0000
ENDCHAR
STARTCHAR 2353
ENCODING 9043
SWIDTH 823 0
DWIDTH 16 0
BBX 16 16 0 -2
BITMAP
0080
0080
1ffc
0080
0ff8
0808
0ff8
0808
0808
0ff8
0080
3ffe
0080
0080
0080
0000
ENDCHAR
STARTCHAR 2354
ENCODING 9044
SWIDTH 823 0
DWIDTH 16 0
BBX 16 16 0 -2
BITMAP
0020
7f20
4420
4420
4420
7f20
4130
412c
4123
7f20
4420
4420
4420
7f20
0020
0000
ENDCHAR
STARTCHAR 2355
ENCODING 9045
SWIDTH 823 0
DWIDTH 16 0
BBX 16 16 0 -2
BITMAP
0080
0300
1c7e
1042
1042
1042
1042
1042
1042
1042
1742
7842
004e
0040
0040
0000
ENDCHAR
STARTCHAR 2356
ENCODING 9046
SWIDTH 823 0
DWIDTH 16 0
BBX 16 16 0 -2
BITMAP
0ff0
0020
1ec4
02a8
0490
188c
6083
0180
1ffe
0000
1ffc
1004
101c
1001
0fff
0000
ENDCHAR
STARTCHAR 2357
ENCODING 9047
SWIDTH 823 0
DWIDTH 16 0
BBX 16 16 0 -2
BITMAP
0000
3fff
2000
2186
2e38
2208
2fbe
2208
2608
271c
2a9c
4aaa
522a
0249
0208
0000
ENDCHAR
STARTCHAR 2358
ENCODING 9048
SWIDTH 823 0
DWIDTH 16 0
BBX 16 16 0 -2
BITMAP
3fff
288a
2f89
203f
2f8c
2894
2f92
28a1
27fc
2444
27fc
4444
47fc
0040
0040
0000
ENDCHAR
STARTCHAR 2359
ENCODING 9049
SWIDTH 823 0
DWIDTH 16 0
BBX 16 16 0 -2
BITMAP
0000
0080
0080
0080
0080
7fff
0100
0100
0120
0210
0208
041c
09e2
3e02
0000
0000
ENDCHAR
STARTCHAR 235a
ENCODING 9050
SWIDTH 823 0
DWIDTH 16 0
BBX 16 16 0 -2
BITMAP
0100
0100
0100
3ffc
0200
0200
0480
0480
0880
1090
2108
0104
010c
02f2
1f02
0000
ENDCHAR
STARTCHAR 235b
ENCODING 9051
SWIDTH 823 0
DWIDTH 16 0
BBX 16 16 0 -2
BITMAP
0080
0080
7fff
0080
1ffc
1084
1ffc
1084
1084
1ffc
0100
0110
0208
04f4
3f02
0000
ENDCHAR
STARTCHAR 235c
ENCODING 9052
SWIDTH 823 0
DWIDTH 16 0
BBX 16 16 0 -2
BITMAP
0000
0ff8
0808
0808
0878
0800
0ff8
0a08
0a08
0910
0910
08a0
0840
08b0
0b0c
0000
ENDCHAR
STARTCHAR 235d
ENCODING 9053
SWIDTH 823 0
DWIDTH 16 0
BBX 16 16 0 -2
BITMAP
0080
0080
7fff
0080
0ff8
0808
0808
0ff8
0000
1ffc
0408
0210
01e0
0e38
7007
0000
ENDCHAR
STARTCHAR 235e
ENCODING 9054
SWIDTH 823 0
DWIDTH 16 0
BBX 16 16 0 -2
BITMAP
0000
3ffe
20a2
20a2
3fa2
2222
2222
2f94
2a94
2a88
2a88
2a94
4b94
4222
0241
0000
ENDCHAR
STARTCHAR 235f
ENCODING 9055
SWIDTH 823 0
DWIDTH 16 0
BBX 16 16 0 -2
BITMAP
0000
7efc
2244
2244
1428
0810
1428
2346
7efc
2244
2244
1428
0810
1428
62c6
0000
ENDCHAR
STARTCHAR 2360
ENCODING 9056
SWIDTH 823 0
DWIDTH 16 0
BBX 16 16 0 -2
BITMAP
0000
0000
0000
0000
0000
0000
0000
0000
0000
0000
0000
0000
0000
0000
0000
0000
ENDCHAR
STARTCHAR 2360
ENCODING 9056
SWIDTH 823 0
DWIDTH 16 0
BBX 16 16 0 -2
BITMAP
0000
3f7e
2102
2102
2102
3f7e
2000
20fe
3f42
2042
2024
3f28
2018
2064
2183
0000
ENDCHAR
STARTCHAR 2361
ENCODING 9057
SWIDTH 823 0
DWIDTH 16 0
BBX 16 16 0 -2
BITMAP
01e0
0420
0420
0410
0810
1008
2004
4003
1ff8
1008
1008
1008
1008
1008
1ff8
0000
ENDCHAR
STARTCHAR 2362
ENCODING 9058
SWIDTH 823 0
DWIDTH 16 0
BBX 16 16 0 -2
BITMAP
0200
0200
3ff0
0210
0210
0411
0811
100f
7ff8
1008
1008
1008
1008
1008
1ff8
0000
ENDCHAR
STARTCHAR 2363
ENCODING 9059
SWIDTH 823 0
DWIDTH 16 0
BBX 16 16 0 -2
BITMAP
0000
3ffe
2000
2000
2000
23f0
2210
2210
2210
2210
23f0
2000
2000
2000
3ffe
0000
ENDCHAR
STARTCHAR 2364
ENCODING 9060
SWIDTH 823 0
DWIDTH 16 0
BBX 16 16 0 -2
BITMAP
0000
03ff
7a00
4a04
4a04
4a44
4a28
4a28
4a10
4a18
4a28
7a44
0284
0200
03ff
0000
ENDCHAR
STARTCHAR 2365
ENCODING 9061
SWIDTH 823 0
DWIDTH 16 0
BBX 16 16 0 -2
BITMAP
0020
0020
7850
4888
498c
4e8b
4888
4888
4888
4888
4888
7908
0108
0208
0408
0000
ENDCHAR
STARTCHAR 2366
ENCODING 9062
SWIDTH 823 0
DWIDTH 16 0
BBX 16 16 0 -2
BITMAP
0020
0026
7838
4be0
4820
4820
4924
4924
4924
4924
49fc
7820
0021
0021
001f
0000
ENDCHAR
STARTCHAR 2367
ENCODING 9063
SWIDTH 823 0
DWIDTH 16 0
BBX 16 16 0 -2
BITMAP
0090
0090
7908
4a04
4d0b
4908
4908
4890
4890
4860
4840
78a0
0110
020c
0403
0000
ENDCHAR
STARTCHAR 2368
ENCODING 9064
SWIDTH 823 0
DWIDTH 16 0
BBX 16 16 0 -2
BITMAP
0000
03ff
7a00
4a00
4a7c
4a44
4a44
4a44
4a44
4a4c
4a40
7c40
0441
0841
003f
0000
ENDCHAR
STARTCHAR 2369
ENCODING 9065
SWIDTH 823 0
DWIDTH 16 0
BBX 16 16 0 -2
BITMAP
0000
03fe
7a02
4a02
4a02
4bfe
4a00
4a80
4a86
4af8
4a80
7c80
0481
0881
007f
0000
ENDCHAR
STARTCHAR 236a
ENCODING 9066
SWIDTH 823 0
DWIDTH 16 0
BBX 16 16 0 -2
BITMAP
0108
0108
7908
4a08
4a3f
4c89
4a89
4989
4909
4909
4951
7a51
02d1
0321
0c46
0000
ENDCHAR
STARTCHAR 236b
ENCODING 9067
SWIDTH 823 0
DWIDTH 16 0
BBX 16 16 0 -2
BITMAP
0000
03ff
7a49
4a49
4a49
4a49
4a49
4a89
4a8f
4b01
4a01
7a01
0201
0201
03ff
0000
ENDCHAR
STARTCHAR 236c
ENCODING 9068
SWIDTH 823 0
DWIDTH 16 0
BBX 16 16 0 -2
BITMAP
0018
01e0
7820
4820
4bff
4820
4870
4870
48a8
48a8
4924
7a22
0421
0020
0020
0000
ENDCHAR
STARTCHAR 236d
ENCODING 9069
SWIDTH 823 0
DWIDTH 16 0
BBX 16 16 0 -2
BITMAP
0040
0040
7840
4888
4884
491a
4be1
4800
4800
49fe
4902
7902
0102
0102
01fe
0000
ENDCHAR
STARTCHAR 236e
ENCODING 9070
SWIDTH 823 0
DWIDTH 16 0
BBX 16 16 0 -2
BITMAP
0020
0020
0020
7820
4bfe
4820
4820
4820
49fc
4904
4904
7904
0104
0104
01fc
0000
ENDCHAR
STARTCHAR 236f
ENCODING 9071
SWIDTH 823 0
DWIDTH 16 0
BBX 16 16 0 -2
BITMAP
0000
07f0
0410
0410
07f0
0000
3ffe
0410
07f0
0410
07f0
041e
07f0
3810
0010
0000
ENDCHAR
STARTCHAR 2370
ENCODING 9072
SWIDTH 823 0
DWIDTH 16 0
BBX 16 16 0 -2
BITMAP
0020
0020
7fff
4820
4bfe
4822
4bfe
4a20
4a20
4bff
4821
7851
008b
0304
0c03
0000
ENDCHAR
STARTCHAR 2371
ENCODING 9073
SWIDTH 823 0
DWIDTH 16 0
BBX 16 16 0 -2
BITMAP
0020
0020
7820
4fff
4820
4820
4820
4bfe
4800
49fc
4904
7904
0104
0104
01fc
0000
ENDCHAR
STARTCHAR 2372
ENCODING 9074
SWIDTH 823 0
DWIDTH 16 0
BBX 16 16 0 -2
BITMAP
0020
0120
7920
4bfe
4a20
4c20
4820
4fff
4820
4870
48a8
7924
0623
0020
0020
0000
ENDCHAR
STARTCHAR 2373
ENCODING 9075
SWIDTH 823 0
DWIDTH 16 0
BBX 16 16 0 -2
BITMAP
0090
0090
7892
4c92
4b94
4890
4890
4890
4898
4994
4e93
7890
0111
0211
0c0f
0000
ENDCHAR
STARTCHAR 2374
ENCODING 9076
SWIDTH 823 0
DWIDTH 16 0
BBX 16 16 0 -2
BITMAP
0000
03fe
7800
4800
49fc
4904
4904
49fc
4904
4904
4904
79fc
0000
0000
07ff
0000
ENDCHAR
STARTCHAR 2375
ENCODING 9077
SWIDTH 823 0
DWIDTH 16 0
BBX 16 16 0 -2
BITMAP
0080
00fe
7892
4912
49ff
4b12
4d12
4912
497e
4910
4910
7910
0120
0120
0140
0000
ENDCHAR
STARTCHAR 2376
ENCODING 9078
SWIDTH 823 0
DWIDTH 16 0
BBX 16 16 0 -2
BITMAP
0000
01fe
7902
4902
497a
4902
4902
497a
494a
494a
494a
797a
0102
0102
0106
0000
ENDCHAR
STARTCHAR 2377
ENCODING 9079
SWIDTH 823 0
DWIDTH 16 0
BBX 16 16 0 -2
BITMAP
0088
0088
7fff
4888
4800
4890
4890
4912
491c
4b10
4d10
7910
0111
0111
010f
0000
ENDCHAR
STARTCHAR 2378
ENCODING 9080
SWIDTH 823 0
DWIDTH 16 0
BBX 16 16 0 -2
BITMAP
0100
01ff
7102
5202
5272
5652
5a52
5252
5252
5252
5272
7202
0202
0202
020e
0000
ENDCHAR
STARTCHAR 2379
ENCODING 9081
SWIDTH 823 0
DWIDTH 16 0
BBX 16 16 0 -2
BITMAP
0000
03fc
7a04
4bfc
4a04
4a04
4bfc
4a04
4a04
4bfc
4890
7890
0111
0211
0c0f
0000
ENDCHAR
STARTCHAR 237a
ENCODING 9082
SWIDTH 823 0
DWIDTH 16 0
BBX 16 16 0 -2
BITMAP
0020
0020
7bfe
4820
4820
4bff
4a01
48fc
4808
4810
4bff
7810
0010
0010
0070
0000
ENDCHAR
STARTCHAR 237b
ENCODING 9083
SWIDTH 823 0
DWIDTH 16 0
BBX 16 16 0 -2
BITMAP
0106
0138
7920
4920
4fe0
493f
4924
4924
49e4
4f24
4924
7944
0144
0184
0304
0000
ENDCHAR
STARTCHAR 237c
ENCODING 9084
SWIDTH 823 0
DWIDTH 16 0
BBX 16 16 0 -2
BITMAP
001c
03e0
7820
4820
4fff
48a8
4924
4e23
4800
4bf8
4848
784e
0082
0102
060e
0000
ENDCHAR
STARTCHAR 237d
ENCODING 9085
SWIDTH 823 0
DWIDTH 16 0
BBX 16 16 0 -2
BITMAP
0000
01fc
7800
4fff
4800
49fc
4800
49fc
4800
4800
49fc
7904
0104
0104
01fc
0000
ENDCHAR
STARTCHAR 237e
ENCODING 9086
SWIDTH 823 0
DWIDTH 16 0
BBX 16 16 0 -2
BITMAP
0080
0088
7884
491e
4fe3
4900
4900
4bfe
4c20
4820
4fff
7850
0088
0104
0603
0000
ENDCHAR
STARTCHAR 2421
ENCODING 9249
SWIDTH 823 0
DWIDTH 16 0
BBX 16 16 0 -2
BITMAP
0020
0020
7bfe
4904
4888
4fff
4840
4840
4fff
4884
4904
7b88
0070
00cc
0703
0000
ENDCHAR
STARTCHAR 2422
ENCODING 9250
SWIDTH 823 0
DWIDTH 16 0
BBX 16 16 0 -2
BITMAP
0000
03fe
7a02
4a22
4afa
4a22
4afa
4a22
4a02
4afa
4a8a
7a8a
04fa
0402
080e
0000
ENDCHAR
STARTCHAR 2423
ENCODING 9251
SWIDTH 823 0
DWIDTH 16 0
BBX 16 16 0 -2
BITMAP
0020
0020
7fff
4820
4bfe
4a22
4bfe
4a22
4a22
4bfe
48a8
7924
0222
0421
0020
0000
ENDCHAR
STARTCHAR 2424
ENCODING 9252
SWIDTH 823 0
DWIDTH 16 0
BBX 16 16 0 -2
BITMAP
0080
0080
7fff
0410
0220
3ffe
2002
2082
2ffa
2082
27f2
2412
2412
27f2
200e
0000
ENDCHAR
STARTCHAR 2425
ENCODING 9253
SWIDTH 823 0
DWIDTH 16 0
BBX 16 16 0 -2
BITMAP
0000
07bf
7482
5482
553a
552a
552a
54aa
54aa
54aa
54ba
7502
0402
0402
0406
0000
ENDCHAR
STARTCHAR 2426
ENCODING 9254
SWIDTH 823 0
DWIDTH 16 0
BBX 16 16 0 -2
BITMAP
0080
00fc
7884
4908
49f8
4808
4fff
4820
4922
48b4
4870
78a8
0124
0623
00e0
0000
ENDCHAR
STARTCHAR 2427
ENCODING 9255
SWIDTH 823 0
DWIDTH 16 0
BBX 16 16 0 -2
BITMAP
0306
1c78
1040
1f7f
1248
2248
4288
0208
0000
1ffc
1004
1004
1004
1004
1ffc
0000
ENDCHAR
STARTCHAR 2428
ENCODING 9256
SWIDTH 823 0
DWIDTH 16 0
BBX 16 16 0 -2
BITMAP
0048
0048
7848
4bcf
4848
4848
4bcf
4848
4848
48c8
4b4f
7888
0088
0108
0208
0000
ENDCHAR
STARTCHAR 2429
ENCODING 9257
SWIDTH 823 0
DWIDTH 16 0
BBX 16 16 0 -2
BITMAP
0020
0040
7bfe
4a22
4a22
4bfe
4a22
4a42
4bfe
4890
7910
07ff
0010
0010
0010
0000
ENDCHAR
STARTCHAR 242a
ENCODING 9258
SWIDTH 823 0
DWIDTH 16 0
BBX 16 16 0 -2
BITMAP
1ffc
0100
0ff8
0808
0ff8
0808
0ff8
0360
0c18
77f7
0000
0ff8
0808
0808
0ff8
0000
ENDCHAR
STARTCHAR 242b
ENCODING 9259
SWIDTH 823 0
DWIDTH 16 0
BBX 16 16 0 -2
BITMAP
0020
0050
798c
4efb
4800
49fc
4904
49fc
4888
4888
4fff
7888
0088
0108
0208
0000
ENDCHAR
STARTCHAR 242c
ENCODING 9260
SWIDTH 823 0
DWIDTH 16 0
BBX 16 16 0 -2
BITMAP
0000
01fc
7924
49fc
4924
4924
49fc
4800
4fff
4922
4922
7914
0108
01c4
0703
0000
ENDCHAR
STARTCHAR 242d
ENCODING 9261
SWIDTH 823 0
DWIDTH 16 0
BBX 16 16 0 -2
BITMAP
0210
0213
7bdc
4a10
4a10
4a11
4b8f
4e20
4840
4bfe
4a02
7bfe
0202
0202
03fe
0000
ENDCHAR
STARTCHAR 242e
ENCODING 9262
SWIDTH 823 0
DWIDTH 16 0
BBX 16 16 0 -2
BITMAP
0020
0020
7bfe
4904
4884
4888
4fff
4800
49fc
4904
4904
79fc
0104
0104
01fc
0000
ENDCHAR
STARTCHAR 242f
ENCODING 9263
SWIDTH 823 0
DWIDTH 16 0
BBX 16 16 0 -2
BITMAP
0100
011f
7911
4911
4ff1
491f
4911
4911
4bd1
4a5f
4a51
7a51
0251
03e1
0047
0000
ENDCHAR
STARTCHAR 2430
ENCODING 9264
SWIDTH 823 0
DWIDTH 16 0
BBX 16 16 0 -2
BITMAP
0088
0088
7fff
4888
4820
4850
4888
49fc
4e03
4800
49fc
7904
0104
0104
01fc
0000
ENDCHAR
STARTCHAR 2431
ENCODING 9265
SWIDTH 823 0
DWIDTH 16 0
BBX 16 16 0 -2
BITMAP
00c0
033f
7a09
4a49
4a51
4bd1
4e26
4800
49fe
4922
4922
79fe
0122
0122
01fe
0000
ENDCHAR
STARTCHAR 2432
ENCODING 9266
SWIDTH 823 0
DWIDTH 16 0
BBX 16 16 0 -2
BITMAP
0000
07ff
7802
49f2
4912
49f6
4800
4fff
4802
49f2
4912
7912
01f2
0002
000e
0000
ENDCHAR
STARTCHAR 2433
ENCODING 9267
SWIDTH 823 0
DWIDTH 16 0
BBX 16 16 0 -2
BITMAP
0000
07f0
0410
0410
07f0
0000
1f7c
1144
1144
1f7c
0080
3ffe
02a0
0c98
3086
0000
ENDCHAR
STARTCHAR 2434
ENCODING 9268
SWIDTH 823 0
DWIDTH 16 0
BBX 16 16 0 -2
BITMAP
0020
0020
7bfe
4820
49fc
4820
4fff
4820
4844
4988
4856
7bf9
00a4
0723
0020
0000
ENDCHAR
STARTCHAR 2435
ENCODING 9269
SWIDTH 823 0
DWIDTH 16 0
BBX 16 16 0 -2
BITMAP
0030
0088
7904
4a72
4800
4870
4908
4a04
4c03
4800
4bfe
7a92
0292
0292
0fff
0000
ENDCHAR
STARTCHAR 2436
ENCODING 9270
SWIDTH 823 0
DWIDTH 16 0
BBX 16 16 0 -2
BITMAP
0040
0040
7bfc
4840
4840
4ffe
4880
4888
4934
4fc2
4800
7ffe
0492
0492
0fff
0000
ENDCHAR
STARTCHAR 2437
ENCODING 9271
SWIDTH 823 0
DWIDTH 16 0
BBX 16 16 0 -2
BITMAP
0000
03ff
7800
49fe
4902
49fe
4800
4bff
4a49
4a89
4b07
7a01
02fd
0221
0223
0000
ENDCHAR
STARTCHAR 2438
ENCODING 9272
SWIDTH 823 0
DWIDTH 16 0
BBX 16 16 0 -2
BITMAP
0000
07ff
7890
4890
4bfe
4a92
4a92
4bfe
4820
4fff
48a8
7924
0222
0421
0020
0000
ENDCHAR
STARTCHAR 2439
ENCODING 9273
SWIDTH 823 0
DWIDTH 16 0
BBX 16 16 0 -2
BITMAP
0000
01fc
7924
4924
4924
4954
498c
49fc
4800
4bfe
4a92
7a92
0292
0292
07ff
0000
ENDCHAR
STARTCHAR 243a
ENCODING 9274
SWIDTH 823 0
DWIDTH 16 0
BBX 16 16 0 -2
BITMAP
0020
0020
7bfe
4820
4fff
4820
4bfe
4820
4820
4fff
4840
7d24
0522
0885
107c
0000
ENDCHAR
STARTCHAR 243b
ENCODING 9275
SWIDTH 823 0
DWIDTH 16 0
BBX 16 16 0 -2
BITMAP
00a4
0122
7a21
49fe
4902
4902
49fe
4902
4902
49fe
4902
7902
01fe
0084
0303
0000
ENDCHAR
STARTCHAR 243c
ENCODING 9276
SWIDTH 823 0
DWIDTH 16 0
BBX 16 16 0 -2
BITMAP
0020
03fe
7822
4fff
4822
4bfe
4820
4aaa
4a72
4a22
4afe
7a22
047a
04a6
0822
0000
ENDCHAR
STARTCHAR 243d
ENCODING 9277
SWIDTH 823 0
DWIDTH 16 0
BBX 16 16 0 -2
BITMAP
00e2
0424
7a51
488a
4904
4e22
4821
49fc
4924
4924
49fc
7820
0024
003c
03c2
0000
ENDCHAR
STARTCHAR 243e
ENCODING 9278
SWIDTH 823 0
DWIDTH 16 0
BBX 16 16 0 -2
BITMAP
0020
0058
7868
4904
4acb
4f4d
4820
48d8
4f27
49c0
4830
78c2
0004
0018
03e0
0000
ENDCHAR
STARTCHAR 243f
ENCODING 9279
SWIDTH 823 0
DWIDTH 16 0
BBX 16 16 0 -2
BITMAP
0000
03df
78c5
494b
4ad5
4949
4a20
48d8
4f07
4820
49c8
7832
01c4
0018
01e0
0000
ENDCHAR
STARTCHAR 2440
ENCODING 9280
SWIDTH 823 0
DWIDTH 16 0
BBX 16 16 0 -2
BITMAP
0124
0124
7a28
4eba
4924
4aaa
4f7d
4822
4bff
4a20
4a12
7b14
0488
0495
0862
0000
ENDCHAR
STARTCHAR 2441
ENCODING 9281
SWIDTH 823 0
DWIDTH 16 0
BBX 16 16 0 -2
BITMAP
0020
01fc
7904
49fc
4904
49fc
4904
49fc
4820
4bae
7820
03ae
0020
0fff
0020
0000
ENDCHAR
STARTCHAR 2442
ENCODING 9282
SWIDTH 823 0
DWIDTH 16 0
BBX 16 16 0 -2
BITMAP
0000
03df
7a51
4bdf
4a51
4bdf
4a01
4a79
4a49
4a49
4a79
7a49
0249
0279
0203
0000
ENDCHAR
STARTCHAR 2443
ENCODING 9283
SWIDTH 823 0
DWIDTH 16 0
BBX 16 16 0 -2
BITMAP
0000
03de
7a52
4bde
4800
49fc
4924
49fc
4924
4924
79fc
0020
07ff
0020
0020
0000
ENDCHAR
STARTCHAR 2444
ENCODING 9284
SWIDTH 823 0
DWIDTH 16 0
BBX 16 16 0 -2
BITMAP
0000
03fe
7a22
4b2a
4ab2
4a22
4bfe
4820
4bfe
4820
4fff
7800
0292
0449
0849
0000
ENDCHAR
STARTCHAR 2445
ENCODING 9285
SWIDTH 823 0
DWIDTH 16 0
BBX 16 16 0 -2
BITMAP
0000
03df
7a51
4bdf
4a10
4a51
49cf
4888
4bfe
4888
4888
7fff
0088
0104
0603
0000
ENDCHAR
STARTCHAR 2446
ENCODING 9286
SWIDTH 823 0
DWIDTH 16 0
BBX 16 16 0 -2
BITMAP
0020
0020
7bfe
4888
4fff
4800
49fc
4924
49fc
4924
49fc
7820
03fe
0020
07ff
0000
ENDCHAR
STARTCHAR 2447
ENCODING 9287
SWIDTH 823 0
DWIDTH 16 0
BBX 16 16 0 -2
BITMAP
0020
0050
798c
4e03
48f8
4800
4bde
4a52
4a52
4bde
4800
7904
0104
028a
0451
0000
ENDCHAR
STARTCHAR 2448
ENCODING 9288
SWIDTH 823 0
DWIDTH 16 0
BBX 16 16 0 -2
BITMAP
0010
0410
72fc
5210
55fe
5284
5248
50fe
5e10
52fe
5210
73ff
0210
0510
08ff
0000
ENDCHAR
STARTCHAR 2449
ENCODING 9289
SWIDTH 823 0
DWIDTH 16 0
BBX 16 16 0 -2
BITMAP
0088
0108
7bc8
4a5f
4bd2
4a62
4bd2
4912
4fea
490c
49c4
7a44
024a
0452
09a1
0000
ENDCHAR
STARTCHAR 244a
ENCODING 9290
SWIDTH 823 0
DWIDTH 16 0
BBX 16 16 0 -2
BITMAP
0240
024f
74a0
58a0
5310
52ef
5442
5c42
55fa
5442
554a
754a
04d2
047a
0586
0000
ENDCHAR
STARTCHAR 244b
ENCODING 9291
SWIDTH 823 0
DWIDTH 16 0
BBX 16 16 0 -2
BITMAP
0000
07ff
7524
55e6
5525
55e4
541f
55e4
5524
55e4
5524
75ea
052a
092a
0171
0000
ENDCHAR
STARTCHAR 244c
ENCODING 9292
SWIDTH 823 0
DWIDTH 16 0
BBX 16 16 0 -2
BITMAP
0020
0020
7fff
4850
4faf
4aaa
4aaa
4dad
4800
4902
49fe
7902
01fe
0202
0402
0000
ENDCHAR
STARTCHAR 244d
ENCODING 9293
SWIDTH 823 0
DWIDTH 16 0
BBX 16 16 0 -2
BITMAP
0080
01f8
7a10
4ffe
4a22
4bfe
4a22
4bfe
4a92
4c49
4bfe
7a02
03fe
0202
03fe
0000
ENDCHAR
STARTCHAR 244e
ENCODING 9294
SWIDTH 823 0
DWIDTH 16 0
BBX 16 16 0 -2
BITMAP
3f7e
2142
3f7e
0000
3fff
2040
3ffe
2002
3ffe
2040
3fff
0000
3f7e
2142
3f7e
0000
ENDCHAR
STARTCHAR 244f
ENCODING 9295
SWIDTH 823 0
DWIDTH 16 0
BBX 16 16 0 -2
BITMAP
0010
0010
7bff
4a44
4bff
4a44
4bff
4a10
4afe
4a92
4afe
7c92
04fe
0844
0183
0000
ENDCHAR
STARTCHAR 2450
ENCODING 9296
SWIDTH 823 0
DWIDTH 16 0
BBX 16 16 0 -2
BITMAP
0090
0090
7fff
4a50
4a9e
4fe2
481e
4bd0
4a5e
4bd0
4a5e
7bd0
025e
0251
02cf
0000
ENDCHAR
STARTCHAR 2451
ENCODING 9297
SWIDTH 823 0
DWIDTH 16 0
BBX 16 16 0 -2
BITMAP
0800
7f7f
0808
3e08
0010
3e34
2252
3e91
1410
7f00
007e
3e42
2242
2242
3e7e
0000
ENDCHAR
STARTCHAR 2452
ENCODING 9298
SWIDTH 823 0
DWIDTH 16 0
BBX 16 16 0 -2
BITMAP
0400
04ef
7fa9
00ef
1f00
117e
1f52
007e
3f52
027e
0710
7cff
0410
0410
1c10
0000
ENDCHAR
STARTCHAR 2453
ENCODING 9299
SWIDTH 823 0
DWIDTH 16 0
BBX 16 16 0 -2
BITMAP
0000
777e
5542
7742
007e
3e54
2a54
3e7e
2a54
2a54
3e7f
0895
7f92
081a
0861
0000
ENDCHAR
STARTCHAR 2454
ENCODING 9300
SWIDTH 823 0
DWIDTH 16 0
BBX 16 16 0 -2
BITMAP
0808
7f7f
0808
3e3e
0000
3e3e
2222
3e3e
1414
7f7f
0000
3e3e
2222
2222
3e3e
0000
ENDCHAR
STARTCHAR 2455
ENCODING 9301
SWIDTH 823 0
DWIDTH 16 0
BBX 16 16 0 -2
BITMAP
0080
0080
0100
3ffe
2002
2012
2412
2222
2122
20c2
20a2
2312
2c12
2002
3ffe
0000
ENDCHAR
STARTCHAR 2456
ENCODING 9302
SWIDTH 823 0
DWIDTH 16 0
BBX 16 16 0 -2
BITMAP
0000
3ffe
2002
2002
2ffa
2082
2182
22a2
2492
388e
2082
2082
2082
2002
3ffe
0000
ENDCHAR
STARTCHAR 2457
ENCODING 9303
SWIDTH 823 0
DWIDTH 16 0
BBX 16 16 0 -2
BITMAP
0000
7ffe
4002
43c2
4042
4222
4412
590a
4102
4ff2
4102
4102
5ffa
4002
7ffe
0000
ENDCHAR
STARTCHAR 2458
ENCODING 9304
SWIDTH 823 0
DWIDTH 16 0
BBX 16 16 0 -2
BITMAP
0000
3ffe
2002
2072
2782
2082
2082
2ffa
22a2
22a2
2492
288a
3086
2082
3ffe
0000
ENDCHAR
STARTCHAR 2459
ENCODING 9305
SWIDTH 823 0
DWIDTH 16 0
BBX 16 16 0 -2
BITMAP
3ffe
2082
27f2
2412
27f2
2412
27f2
2002
2ffa
2082
27f2
2082
2ffa
2002
3ffe
0000
ENDCHAR
STARTCHAR 245a
ENCODING 9306
SWIDTH 823 0
DWIDTH 16 0
BBX 16 16 0 -2
BITMAP
7ffe
4102
4ff2
4112
7ffe
4112
4ff2
4102
7ffe
4812
4ff2
4812
4ff2
4002
7ffe
0000
ENDCHAR
STARTCHAR 245b
ENCODING 9307
SWIDTH 823 0
DWIDTH 16 0
BBX 16 16 0 -2
BITMAP
0000
1ffc
0408
0230
01c0
0360
0c18
7087
0080
0080
1ffc
0080
0080
0080
7fff
0000
ENDCHAR
STARTCHAR 245c
ENCODING 9308
SWIDTH 823 0
DWIDTH 16 0
BBX 16 16 0 -2
BITMAP
1040
1040
1040
1040
7bf8
1048
1048
1248
1148
10c8
1848
60a8
0108
0209
0c07
0000
ENDCHAR
STARTCHAR 245d
ENCODING 9309
SWIDTH 823 0
DWIDTH 16 0
BBX 16 16 0 -2
BITMAP
1000
11fe
1010
1010
7c10
1010
1010
13ff
1010
1010
1c10
6010
0010
0010
0070
0000
ENDCHAR
STARTCHAR 245e
ENCODING 9310
SWIDTH 823 0
DWIDTH 16 0
BBX 16 16 0 -2
BITMAP
1040
1040
13f8
1048
7848
1089
1109
1207
1020
1020
1bfe
6020
0020
0020
0020
0000
ENDCHAR
STARTCHAR 245f
ENCODING 9311
SWIDTH 823 0
DWIDTH 16 0
BBX 16 16 0 -2
BITMAP
1020
1020
1050
1050
7888
1104
16fb
1000
1000
11fc
1804
6008
0008
0010
0020
0000
ENDCHAR
STARTCHAR 2460
ENCODING 9312
SWIDTH 823 0
DWIDTH 16 0
BBX 16 16 0 -2
BITMAP
1080
1080
1080
11ff
7904
1304
1484
1088
1048
1050
1820
6050
0088
0104
0603
0000
ENDCHAR
STARTCHAR 2461
ENCODING 9313
SWIDTH 823 0
DWIDTH 16 0
BBX 16 16 0 -2
BITMAP
0040
0220
0410
180c
6fff
0104
0204
0c04
30b8
0080
1ffc
0080
0080
0080
7fff
0000
ENDCHAR
STARTCHAR 2462
ENCODING 9314
SWIDTH 823 0
DWIDTH 16 0
BBX 16 16 0 -2
BITMAP
1000
11fc
1104
1104
7944
1124
1114
1104
17ff
1104
1904
6104
0204
0204
041c
0000
ENDCHAR
STARTCHAR 2463
ENCODING 9315
SWIDTH 823 0
DWIDTH 16 0
BBX 16 16 0 -2
BITMAP
100e
11f0
1100
1100
7dff
1101
1101
1101
11ff
1100
1d00
6100
0200
0200
0400
0000
ENDCHAR
STARTCHAR 2464
ENCODING 9316
SWIDTH 823 0
DWIDTH 16 0
BBX 16 16 0 -2
BITMAP
1010
1010
11ff
1101
7d41
1040
1040
1046
1078
1040
1c40
7040
0041
0041
003f
0000
ENDCHAR
STARTCHAR 2465
ENCODING 9317
SWIDTH 823 0
DWIDTH 16 0
BBX 16 16 0 -2
BITMAP
1000
13ff
1010
1010
7820
1028
1068
10a4
1122
1221
1820
6020
0020
0000
03ff
0000
ENDCHAR
STARTCHAR 2466
ENCODING 9318
SWIDTH 823 0
DWIDTH 16 0
BBX 16 16 0 -2
BITMAP
1108
1108
1108
1208
7a3f
1489
1489
1289
1109
1109
1909
6251
02d1
0321
0c46
0000
ENDCHAR
STARTCHAR 2467
ENCODING 9319
SWIDTH 823 0
DWIDTH 16 0
BBX 16 16 0 -2
BITMAP
0080
0080
1ffc
0080
0080
3ffe
0210
0410
089e
3080
0080
1ffc
0080
0080
7fff
0000
ENDCHAR
STARTCHAR 2468
ENCODING 9320
SWIDTH 823 0
DWIDTH 16 0
BBX 16 16 0 -2
BITMAP
101c
11e0
1100
1100
7d00
11fe
1108
1108
1108
1108
1d08
6108
0108
0fff
0000
0000
ENDCHAR
STARTCHAR 2469
ENCODING 9321
SWIDTH 823 0
DWIDTH 16 0
BBX 16 16 0 -2
BITMAP
100c
11f0
1110
1110
7d10
1110
11ff
1110
1110
1108
1d08
61c8
0705
0005
07f2
0000
ENDCHAR
STARTCHAR 246a
ENCODING 9322
SWIDTH 823 0
DWIDTH 16 0
BBX 16 16 0 -2
BITMAP
1000
11fe
1102
1102
7d02
11fe
1104
1104
1144
1232
1a09
6480
0040
0030
000c
0000
ENDCHAR
STARTCHAR 246b
ENCODING 9323
SWIDTH 823 0
DWIDTH 16 0
BBX 16 16 0 -2
BITMAP
1020
1020
1050
1088
7d04
1203
11fc
1000
1000
13ff
1c40
6044
0082
011d
07e1
0000
ENDCHAR
STARTCHAR 246c
ENCODING 9324
SWIDTH 823 0
DWIDTH 16 0
BBX 16 16 0 -2
BITMAP
1088
1088
1088
1088
7bfe
1088
1088
1088
1088
1088
1bff
6000
0088
0104
0603
0000
ENDCHAR
STARTCHAR 246d
ENCODING 9325
SWIDTH 823 0
DWIDTH 16 0
BBX 16 16 0 -2
BITMAP
0080
0080
1ffc
0080
0080
0080
3ffe
0000
0810
0810
7f7e
0810
0810
0f10
78ff
0000
ENDCHAR
STARTCHAR 246e
ENCODING 9326
SWIDTH 823 0
DWIDTH 16 0
BBX 16 16 0 -2
BITMAP
1080
10fc
1088
1110
7bff
1500
1100
117c
1144
1144
1944
624c
0241
0441
003f
0000
ENDCHAR
STARTCHAR 246f
ENCODING 9327
SWIDTH 823 0
DWIDTH 16 0
BBX 16 16 0 -2
BITMAP
1010
1010
11ff
1101
7d1d
10e0
1020
1020
103f
13e0
1c20
7020
0021
0021
001f
0000
ENDCHAR
STARTCHAR 2470
ENCODING 9328
SWIDTH 823 0
DWIDTH 16 0
BBX 16 16 0 -2
BITMAP
1020
1020
13ff
1201
7a01
1008
1008
13ff
1008
1108
1888
6048
0008
0008
0038
0000
ENDCHAR
STARTCHAR 2471
ENCODING 9329
SWIDTH 823 0
DWIDTH 16 0
BBX 16 16 0 -2
BITMAP
1020
1120
113e
1120
7920
17ff
1020
1122
1122
1224
1864
6008
0010
0060
0780
0000
ENDCHAR
STARTCHAR 2472
ENCODING 9330
SWIDTH 823 0
DWIDTH 16 0
BBX 16 16 0 -2
BITMAP
1020
1020
11fe
1020
7820
1020
13ff
1048
114a
114a
1a49
6289
0089
0108
0238
0000
ENDCHAR
STARTCHAR 2473
ENCODING 9331
SWIDTH 823 0
DWIDTH 16 0
BBX 16 16 0 -2
BITMAP
1040
1040
11fc
1104
7d04
11fc
1104
1104
11fc
1121
1d22
6114
0108
01c4
0603
0000
ENDCHAR
STARTCHAR 2474
ENCODING 9332
SWIDTH 823 0
DWIDTH 16 0
BBX 16 16 0 -2
BITMAP
1108
1088
1090
1000
7bfe
1090
1090
1492
1492
1294
1a94
6294
0090
0090
07ff
0000
ENDCHAR
STARTCHAR 2475
ENCODING 9333
SWIDTH 823 0
DWIDTH 16 0
BBX 16 16 0 -2
BITMAP
1000
13fe
1202
1202
7bfe
1210
1210
13ff
1210
1210
1afe
6482
0482
0882
00fe
0000
ENDCHAR
STARTCHAR 2476
ENCODING 9334
SWIDTH 823 0
DWIDTH 16 0
BBX 16 16 0 -2
BITMAP
1020
1020
13fe
1202
7a02
11fc
1020
1020
1120
113e
1920
6120
02a0
0260
041f
0000
ENDCHAR
STARTCHAR 2477
ENCODING 9335
SWIDTH 823 0
DWIDTH 16 0
BBX 16 16 0 -2
BITMAP
1020
1020
13fe
1202
7a02
1100
11de
1152
1252
1652
19d6
6090
0090
0111
060f
0000
ENDCHAR
STARTCHAR 2478
ENCODING 9336
SWIDTH 823 0
DWIDTH 16 0
BBX 16 16 0 -2
BITMAP
101c
13e4
1244
1222
7c22
1401
1020
1020
17ff
18a8
60a8
0124
0222
0421
0020
0000
ENDCHAR
STARTCHAR 2479
ENCODING 9337
SWIDTH 823 0
DWIDTH 16 0
BBX 16 16 0 -2
BITMAP
1000
11fe
1100
11fc
7d00
11fc
1100
1100
17ff
1122
1d22
6114
0108
01e4
0703
0000
ENDCHAR
STARTCHAR 247a
ENCODING 9338
SWIDTH 823 0
DWIDTH 16 0
BBX 16 16 0 -2
BITMAP
1000
11fc
1104
11fc
7d04
1104
11fc
1080
10ff
1325
1c45
6089
0311
0061
000e
0000
ENDCHAR
STARTCHAR 247b
ENCODING 9339
SWIDTH 823 0
DWIDTH 16 0
BBX 16 16 0 -2
BITMAP
1010
1010
13ff
1000
7cfc
1084
10fc
1000
11fe
100c
1c10
63ff
0010
0010
0070
0000
ENDCHAR
STARTCHAR 247c
ENCODING 9340
SWIDTH 823 0
DWIDTH 16 0
BBX 16 16 0 -2
BITMAP
1000
11fc
1004
17ff
7804
11fc
1000
17ff
1421
13fe
1a22
6222
0222
0226
0020
0000
ENDCHAR
STARTCHAR 247d
ENCODING 9341
SWIDTH 823 0
DWIDTH 16 0
BBX 16 16 0 -2
BITMAP
1040
1080
131c
1204
7e04
13bc
1204
1204
13fc
1090
1c90
6110
0111
0211
040f
0000
ENDCHAR
STARTCHAR 247e
ENCODING 9342
SWIDTH 823 0
DWIDTH 16 0
BBX 16 16 0 -2
BITMAP
1124
1124
17ff
1124
7924
113c
1100
11fe
1020
17ff
18a8
6124
0222
0421
0020
0000
ENDCHAR
STARTCHAR 2521
ENCODING 9505
SWIDTH 823 0
DWIDTH 16 0
BBX 16 16 0 -2
BITMAP
1100
117c
1104
1104
7bff
1200
1640
1a7e
1290
1210
1aff
6210
0228
0244
0283
0000
ENDCHAR
STARTCHAR 2522
ENCODING 9506
SWIDTH 823 0
DWIDTH 16 0
BBX 16 16 0 -2
BITMAP
13ff
1020
1040
13ff
7e49
1249
1249
1223
1020
13ff
1c20
6020
0050
0088
0307
0000
ENDCHAR
STARTCHAR 2523
ENCODING 9507
SWIDTH 823 0
DWIDTH 16 0
BBX 16 16 0 -2
BITMAP
0800
3f3e
2122
3f22
2122
3f22
0022
2622
382e
2120
3f20
0080
1ffc
0080
7fff
0000
ENDCHAR
STARTCHAR 2524
ENCODING 9508
SWIDTH 823 0
DWIDTH 16 0
BBX 16 16 0 -2
BITMAP
100c
11f0
1020
13ff
7c20
11fc
1124
11fc
1124
11fc
1c20
63fc
0020
0020
07ff
0000
ENDCHAR
STARTCHAR 2525
ENCODING 9509
SWIDTH 823 0
DWIDTH 16 0
BBX 16 16 0 -2
BITMAP
0000
3e7c
0044
007c
7f44
087c
0844
2a44
49ff
4800
0080
1ffc
0080
0080
7fff
0000
ENDCHAR
STARTCHAR 2526
ENCODING 9510
SWIDTH 823 0
DWIDTH 16 0
BBX 16 16 0 -2
BITMAP
1020
13ae
1050
1356
7c88
11fc
1707
1104
11fc
1104
1d04
61fc
0104
0104
011c
0000
ENDCHAR
STARTCHAR 2527
ENCODING 9511
SWIDTH 823 0
DWIDTH 16 0
BBX 16 16 0 -2
BITMAP
11fc
1104
11fc
1104
7d04
11fc
1000
13df
10c3
1345
1ccb
6145
0259
0c41
01c7
0000
ENDCHAR
STARTCHAR 2528
ENCODING 9512
SWIDTH 823 0
DWIDTH 16 0
BBX 16 16 0 -2
BITMAP
1020
1090
1108
1276
7c00
1078
1104
1202
1401
1000
1bfe
6292
0292
0292
07ff
0000
ENDCHAR
STARTCHAR 2529
ENCODING 9513
SWIDTH 823 0
DWIDTH 16 0
BBX 16 16 0 -2
BITMAP
0820
3e20
08fc
7f24
2224
7f64
0834
7f45
0885
0803
0080
1ffc
0080
0080
7fff
0000
ENDCHAR
STARTCHAR 252a
ENCODING 9514
SWIDTH 823 0
DWIDTH 16 0
BBX 16 16 0 -2
BITMAP
1040
1098
10e8
1204
7d8b
168d
1020
10d8
1727
11c0
1830
60c2
0004
0018
03e0
0000
ENDCHAR
STARTCHAR 252b
ENCODING 9515
SWIDTH 823 0
DWIDTH 16 0
BBX 16 16 0 -2
BITMAP
0800
3f3f
2124
3f24
217f
3f08
000c
2614
3814
2125
3f43
0080
1ffc
0080
7fff
0000
ENDCHAR
STARTCHAR 252c
ENCODING 9516
SWIDTH 823 0
DWIDTH 16 0
BBX 16 16 0 -2
BITMAP
0410
243e
25d2
3c5c
05f0
7c04
17ff
1484
1444
2444
449c
0080
1ffc
0080
7fff
0000
ENDCHAR
STARTCHAR 252d
ENCODING 9517
SWIDTH 823 0
DWIDTH 16 0
BBX 16 16 0 -2
BITMAP
1088
1088
17ff
1088
78f8
1020
13fe
1222
13fe
1020
1bfe
6020
03fe
0020
07ff
0000
ENDCHAR
STARTCHAR 252e
ENCODING 9518
SWIDTH 823 0
DWIDTH 16 0
BBX 16 16 0 -2
BITMAP
1020
1222
1222
13fe
7910
1120
13fe
1620
13fe
1220
1a20
63fe
0220
0220
03ff
0000
ENDCHAR
STARTCHAR 252f
ENCODING 9519
SWIDTH 823 0
DWIDTH 16 0
BBX 16 16 0 -2
BITMAP
1020
11fc
1020
13fe
7904
17df
1104
11c4
171f
1800
67ff
0090
0091
0111
060f
0000
ENDCHAR
STARTCHAR 2530
ENCODING 9520
SWIDTH 823 0
DWIDTH 16 0
BBX 16 16 0 -2
BITMAP
0410
7f90
001f
1f22
1122
1f62
0014
3f14
0208
7f94
0463
0480
1ffc
0080
7fff
0000
ENDCHAR
STARTCHAR 2531
ENCODING 9521
SWIDTH 823 0
DWIDTH 16 0
BBX 16 16 0 -2
BITMAP
1004
10e8
1231
114a
7c84
137b
1000
10fc
1084
1084
1cfc
6000
0084
0048
03ff
0000
ENDCHAR
STARTCHAR 2532
ENCODING 9522
SWIDTH 823 0
DWIDTH 16 0
BBX 16 16 0 -2
BITMAP
1020
1050
118c
16fb
7800
13fe
12aa
1272
13fe
1000
19fc
6104
01fc
0104
01fc
0000
ENDCHAR
STARTCHAR 2533
ENCODING 9523
SWIDTH 823 0
DWIDTH 16 0
BBX 16 16 0 -2
BITMAP
1000
17ff
1000
11fc
7924
11fc
1124
17ff
1000
11fc
1924
61fc
0124
0124
07ff
0000
ENDCHAR
STARTCHAR 2534
ENCODING 9524
SWIDTH 823 0
DWIDTH 16 0
BBX 16 16 0 -2
BITMAP
2103
17dc
0110
47df
2552
07d2
1552
17d2
2112
27e2
4120
0080
1ffc
0080
7fff
0000
ENDCHAR
STARTCHAR 2535
ENCODING 9525
SWIDTH 823 0
DWIDTH 16 0
BBX 16 16 0 -2
BITMAP
1000
17ff
1444
1598
7c88
17ff
148c
15da
16a9
1488
1c20
693c
0920
0120
07ff
0000
ENDCHAR
STARTCHAR 2536
ENCODING 9526
SWIDTH 823 0
DWIDTH 16 0
BBX 16 16 0 -2
BITMAP
0080
0080
7fff
0080
1ffc
0000
7fff
4001
4ff9
0000
07f0
0410
0411
0811
300f
0000
ENDCHAR
STARTCHAR 2537
ENCODING 9527
SWIDTH 823 0
DWIDTH 16 0
BBX 16 16 0 -2
BITMAP
0080
0080
7fff
0080
1ffc
0000
0ff8
0808
0808
0ff8
0410
0210
0220
0020
7fff
0000
ENDCHAR
STARTCHAR 2538
ENCODING 9528
SWIDTH 823 0
DWIDTH 16 0
BBX 16 16 0 -2
BITMAP
0200
0200
07f8
0c10
3220
01c0
0e38
7027
07f8
0420
0420
3ffc
0020
0020
0020
0000
ENDCHAR
STARTCHAR 2539
ENCODING 9529
SWIDTH 823 0
DWIDTH 16 0
BBX 16 16 0 -2
BITMAP
0200
0200
07f8
0c10
3220
01c0
0e38
7087
0ff8
0080
0ff8
0080
3ffe
0080
0080
0000
ENDCHAR
STARTCHAR 253a
ENCODING 9530
SWIDTH 823 0
DWIDTH 16 0
BBX 16 16 0 -2
BITMAP
0200
0220
0470
1f88
0008
0240
0c42
703e
0200
07f0
0c10
3220
01c0
0630
780f
0000
ENDCHAR
STARTCHAR 253b
ENCODING 9531
SWIDTH 823 0
DWIDTH 16 0
BBX 16 16 0 -2
BITMAP
0400
0400
0ff8
0800
17f0
2410
07f0
0410
07f0
0200
07f8
1c08
0230
01c0
3e3e
0000
ENDCHAR
STARTCHAR 253c
ENCODING 9532
SWIDTH 823 0
DWIDTH 16 0
BBX 16 16 0 -2
BITMAP
0808
0410
7fff
0900
0bde
2e52
2bde
2a50
2fd1
722f
0410
0ffc
7410
03e0
7c1f
0000
ENDCHAR
STARTCHAR 253d
ENCODING 9533
SWIDTH 823 0
DWIDTH 16 0
BBX 16 16 0 -2
BITMAP
00f8
0f08
0130
01c0
3e00
0080
3ffe
2082
0ff8
0888
0ff8
0888
0ff8
0220
3c1e
0000
ENDCHAR
STARTCHAR 253e
ENCODING 9534
SWIDTH 823 0
DWIDTH 16 0
BBX 16 16 0 -2
BITMAP
0000
0000
0080
0080
3ffe
0080
1ffc
0140
7fff
0220
0410
180c
6003
0000
0000
0000
ENDCHAR
STARTCHAR 253f
ENCODING 9535
SWIDTH 823 0
DWIDTH 16 0
BBX 16 16 0 -2
BITMAP
0000
1ffc
0004
7fff
0004
0004
1ffc
0080
0080
7fff
0080
0140
0220
0c18
7007
0000
ENDCHAR
STARTCHAR 2540
ENCODING 9536
SWIDTH 823 0
DWIDTH 16 0
BBX 16 16 0 -2
BITMAP
0080
0080
7fff
0140
0220
0410
1bec
6003
0000
1ffc
0200
0210
0238
05c4
3e02
0000
ENDCHAR
STARTCHAR 2541
ENCODING 9537
SWIDTH 823 0
DWIDTH 16 0
BBX 16 16 0 -2
BITMAP
0800
0800
7f3e
0922
1122
1122
2122
473e
0080
7fff
0140
0220
0410
180c
6003
0000
ENDCHAR
STARTCHAR 2542
ENCODING 9538
SWIDTH 823 0
DWIDTH 16 0
BBX 16 16 0 -2
BITMAP
0080
0080
7fff
0140
0220
0410
1ffc
6803
0800
0ff8
0808
0ff8
0800
0800
3ffe
0000
ENDCHAR
STARTCHAR 2543
ENCODING 9539
SWIDTH 823 0
DWIDTH 16 0
BBX 16 16 0 -2
BITMAP
0080
0100
0ff8
0808
0808
0ff8
0808
0808
0ff8
0080
7fff
0140
0220
0c18
7007
0000
ENDCHAR
STARTCHAR 2544
ENCODING 9540
SWIDTH 823 0
DWIDTH 16 0
BBX 16 16 0 -2
BITMAP
0220
1ffc
0220
0000
0ff8
0888
0888
0ff8
0080
0ff8
0080
1ffc
0140
0630
380e
0000
ENDCHAR
STARTCHAR 2545
ENCODING 9541
SWIDTH 823 0
DWIDTH 16 0
BBX 16 16 0 -2
BITMAP
0080
0080
7fff
0140
0220
0c18
707f
1f44
117c
1f44
1144
117c
1f44
0084
010c
0000
ENDCHAR
STARTCHAR 2546
ENCODING 9542
SWIDTH 823 0
DWIDTH 16 0
BBX 16 16 0 -2
BITMAP
0080
0080
7fff
0140
0220
0c18
7f7f
1144
1d74
134c
1d74
134c
1144
2144
474c
0000
ENDCHAR
STARTCHAR 2547
ENCODING 9543
SWIDTH 823 0
DWIDTH 16 0
BBX 16 16 0 -2
BITMAP
0010
0e10
7810
08fe
7f12
2a12
2a12
7f12
2aff
2a28
7f28
0844
0844
0e82
7101
0000
ENDCHAR
STARTCHAR 2548
ENCODING 9544
SWIDTH 823 0
DWIDTH 16 0
BBX 16 16 0 -2
BITMAP
0800
0800
09ff
7e08
1208
1208
1208
2208
2408
2408
7808
0c08
1208
2008
4038
0000
ENDCHAR
STARTCHAR 2549
ENCODING 9545
SWIDTH 823 0
DWIDTH 16 0
BBX 16 16 0 -2
BITMAP
0800
09fc
0844
7e44
1244
1248
124f
2241
2441
2441
7881
0c81
1302
2102
421c
0000
ENDCHAR
STARTCHAR 254a
ENCODING 9546
SWIDTH 823 0
DWIDTH 16 0
BBX 16 16 0 -2
BITMAP
081c
08e0
0820
7e20
1220
1220
13ff
2220
2420
2420
7820
0c20
1221
2021
401f
0000
ENDCHAR
STARTCHAR 254b
ENCODING 9547
SWIDTH 823 0
DWIDTH 16 0
BBX 16 16 0 -2
BITMAP
0000
0ffc
0804
0ffc
0804
0804
0ffc
0100
0100
7fff
0208
0e10
01e0
0330
3c0c
0000
ENDCHAR
STARTCHAR 254c
ENCODING 9548
SWIDTH 823 0
DWIDTH 16 0
BBX 16 16 0 -2
BITMAP
0800
08fe
0882
7e82
12fe
1280
12a0
22a0
24a6
24b8
7920
0d20
1221
2421
401f
0000
ENDCHAR
STARTCHAR 254d
ENCODING 9549
SWIDTH 823 0
DWIDTH 16 0
BBX 16 16 0 -2
BITMAP
0820
0810
0808
7e22
1222
12a2
12a4
22a4
24aa
2529
7930
0c20
1061
23a1
401f
0000
ENDCHAR
STARTCHAR 254e
ENCODING 9550
SWIDTH 823 0
DWIDTH 16 0
BBX 16 16 0 -2
BITMAP
0810
0828
0844
7e82
1301
127e
1200
2200
24ff
2411
7811
0c11
1217
2010
4010
0000
ENDCHAR
STARTCHAR 254f
ENCODING 9551
SWIDTH 823 0
DWIDTH 16 0
BBX 16 16 0 -2
BITMAP
0800
08fe
08aa
7eaa
12aa
12aa
12aa
23ff
24aa
24aa
78aa
0caa
132a
212a
4206
0000
ENDCHAR
STARTCHAR 2550
ENCODING 9552
SWIDTH 823 0
DWIDTH 16 0
BBX 16 16 0 -2
BITMAP
0810
0810
0810
7eff
1210
1210
1210
22fe
2400
24fe
7882
0c82
1282
2082
40fe
0000
ENDCHAR
STARTCHAR 2551
ENCODING 9553
SWIDTH 823 0
DWIDTH 16 0
BBX 16 16 0 -2
BITMAP
0810
0810
0810
7eff
1244
1282
1301
2244
2444
2428
7810
0c28
1244
2082
4101
0000
ENDCHAR
STARTCHAR 2552
ENCODING 9554
SWIDTH 823 0
DWIDTH 16 0
BBX 16 16 0 -2
BITMAP
0806
08f8
0880
7e80
12ff
1280
1280
2280
24be
24a2
78a2
0d22
1122
2222
403e
0000
ENDCHAR
STARTCHAR 2553
ENCODING 9555
SWIDTH 823 0
DWIDTH 16 0
BBX 16 16 0 -2
BITMAP
0800
087f
7f08
1208
2208
7c08
0a08
70ff
0808
7f08
1208
2208
7c08
0a08
7108
0000
ENDCHAR
STARTCHAR 2554
ENCODING 9556
SWIDTH 823 0
DWIDTH 16 0
BBX 16 16 0 -2
BITMAP
0800
09fe
0800
7e00
12fc
1284
1284
22fc
2484
2484
7884
0cfc
1200
2000
41ff
0000
ENDCHAR
STARTCHAR 2555
ENCODING 9557
SWIDTH 823 0
DWIDTH 16 0
BBX 16 16 0 -2
BITMAP
0800
08fe
0822
7e22
1242
128c
1200
22fe
2492
2492
78fe
0c80
1280
2081
407f
0000
ENDCHAR
STARTCHAR 2556
ENCODING 9558
SWIDTH 823 0
DWIDTH 16 0
BBX 16 16 0 -2
BITMAP
0848
0948
0948
7d48
1548
15ff
1448
2448
27c8
2548
7948
0d48
1148
2248
405e
0000
ENDCHAR
STARTCHAR 2557
ENCODING 9559
SWIDTH 823 0
DWIDTH 16 0
BBX 16 16 0 -2
BITMAP
0814
0812
0812
7eff
1210
1292
1252
2254
2410
2438
7858
0c94
1112
2011
4070
0000
ENDCHAR
STARTCHAR 2558
ENCODING 9560
SWIDTH 823 0
DWIDTH 16 0
BBX 16 16 0 -2
BITMAP
0800
08fe
0892
7e92
12fe
1292
1292
22fe
2410
2410
78fe
0c10
1210
2010
41ff
0000
ENDCHAR
STARTCHAR 2559
ENCODING 9561
SWIDTH 823 0
DWIDTH 16 0
BBX 16 16 0 -2
BITMAP
080c
080a
080a
7dff
1508
1508
15f9
2529
2929
292a
7d2a
0b24
12cd
2215
4462
0000
ENDCHAR
STARTCHAR 255a
ENCODING 9562
SWIDTH 823 0
DWIDTH 16 0
BBX 16 16 0 -2
BITMAP
0806
0bb8
0888
7c88
1508
17ff
1448
2448
2488
2a88
7b08
0d3f
1180
2240
443f
0000
ENDCHAR
STARTCHAR 255b
ENCODING 9563
SWIDTH 823 0
DWIDTH 16 0
BBX 16 16 0 -2
BITMAP
0810
0848
0884
7f83
12fc
1284
1284
2284
24fc
2448
7848
0c48
1289
2089
4107
0000
ENDCHAR
STARTCHAR 255c
ENCODING 9564
SWIDTH 823 0
DWIDTH 16 0
BBX 16 16 0 -2
BITMAP
0820
0820
0844
7e8c
13f2
1240
1240
22fe
2520
2420
7bff
0c20
1250
218c
4603
0000
ENDCHAR
STARTCHAR 255d
ENCODING 9565
SWIDTH 823 0
DWIDTH 16 0
BBX 16 16 0 -2
BITMAP
0810
0810
09ff
7e10
12fe
1212
13ff
2212
24fe
2410
7890
0c9e
1290
2170
421f
0000
ENDCHAR
STARTCHAR 255e
ENCODING 9566
SWIDTH 823 0
DWIDTH 16 0
BBX 16 16 0 -2
BITMAP
0820
0820
083f
7e20
12fe
1282
12fe
2282
2482
24fe
7810
0dff
1210
2010
4010
0000
ENDCHAR
STARTCHAR 255f
ENCODING 9567
SWIDTH 823 0
DWIDTH 16 0
BBX 16 16 0 -2
BITMAP
3f40
127f
0c42
7fa2
1514
2408
4414
0ce3
0100
7fff
0208
0410
0f20
00f0
7f0c
0000
ENDCHAR
STARTCHAR 2560
ENCODING 9568
SWIDTH 823 0
DWIDTH 16 0
BBX 16 16 0 -2
BITMAP
0000
0000
0000
0000
0000
0000
0000
0000
0000
0000
0000
0000
0000
0000
0000
0000
ENDCHAR
STARTCHAR 2560
ENCODING 9568
SWIDTH 823 0
DWIDTH 16 0
BBX 16 16 0 -2
BITMAP
0820
0820
08fe
7e20
12fc
1220
13ff
2244
24fe
2785
7884
0cfc
1284
2084
40fc
0000
ENDCHAR
STARTCHAR 2561
ENCODING 9569
SWIDTH 823 0
DWIDTH 16 0
BBX 16 16 0 -2
BITMAP
0810
081f
0810
7efe
1282
1282
12fe
2282
2482
24fe
7882
0c82
12fe
2048
4387
0000
ENDCHAR
STARTCHAR 2562
ENCODING 9570
SWIDTH 823 0
DWIDTH 16 0
BBX 16 16 0 -2
BITMAP
0892
0892
09ff
7e92
1292
129e
1280
22fe
2410
25ff
7854
0c94
1312
2211
4010
0000
ENDCHAR
STARTCHAR 2563
ENCODING 9571
SWIDTH 823 0
DWIDTH 16 0
BBX 16 16 0 -2
BITMAP
0820
0820
09ff
7e40
12fe
1310
127f
2200
24fe
2482
78fe
0c82
12fe
2082
4086
0000
ENDCHAR
STARTCHAR 2564
ENCODING 9572
SWIDTH 823 0
DWIDTH 16 0
BBX 16 16 0 -2
BITMAP
0800
08ff
0881
7ebd
1281
12bd
1200
22fe
2482
24fe
7882
0cfe
1282
2082
40fe
0000
ENDCHAR
STARTCHAR 2565
ENCODING 9573
SWIDTH 823 0
DWIDTH 16 0
BBX 16 16 0 -2
BITMAP
0810
083e
09d2
7e4c
1228
1230
13c0
227e
2490
2410
78ff
0c10
1292
2092
40fe
0000
ENDCHAR
STARTCHAR 2566
ENCODING 9574
SWIDTH 823 0
DWIDTH 16 0
BBX 16 16 0 -2
BITMAP
0810
0820
08fe
7e82
12fe
1282
12fe
2282
24fe
2420
7810
0c52
1341
2145
423c
0000
ENDCHAR
STARTCHAR 2567
ENCODING 9575
SWIDTH 823 0
DWIDTH 16 0
BBX 16 16 0 -2
BITMAP
0020
3ca8
2524
25fc
2450
3450
2fff
2488
2524
3623
2dfe
2444
24c8
4438
4dc7
0000
ENDCHAR
STARTCHAR 2568
ENCODING 9576
SWIDTH 823 0
DWIDTH 16 0
BBX 16 16 0 -2
BITMAP
0884
0aa4
0aa4
7eaf
17ea
1412
1402
27ea
254a
294a
7944
0d44
126a
224a
4411
0000
ENDCHAR
STARTCHAR 2569
ENCODING 9577
SWIDTH 823 0
DWIDTH 16 0
BBX 16 16 0 -2
BITMAP
0810
0820
08fe
7e92
1292
12fe
1292
2292
24fe
2454
7855
0c9f
1290
2111
420f
0000
ENDCHAR
STARTCHAR 256a
ENCODING 9578
SWIDTH 823 0
DWIDTH 16 0
BBX 16 16 0 -2
BITMAP
0800
09f8
0908
7df8
1508
15f8
1400
27fe
2a92
2bfe
7800
0bfc
1508
20f0
479e
0000
ENDCHAR
STARTCHAR 256b
ENCODING 9579
SWIDTH 823 0
DWIDTH 16 0
BBX 16 16 0 -2
BITMAP
0810
0810
08fe
7e44
13ff
1200
12fe
2282
24fe
2482
78fe
0c10
13ff
2010
4010
0000
ENDCHAR
STARTCHAR 256c
ENCODING 9580
SWIDTH 823 0
DWIDTH 16 0
BBX 16 16 0 -2
BITMAP
0420
043f
3fa2
0454
3f88
1514
24a3
3ffe
2100
3fff
2208
2410
4fa0
40f0
1f0c
0000
ENDCHAR
STARTCHAR 256d
ENCODING 9581
SWIDTH 823 0
DWIDTH 16 0
BBX 16 16 0 -2
BITMAP
0810
08ff
0810
7efe
1292
12fe
1292
22fe
2412
25fe
7805
0eff
1144
2034
400c
0000
ENDCHAR
STARTCHAR 256e
ENCODING 9582
SWIDTH 823 0
DWIDTH 16 0
BBX 16 16 0 -2
BITMAP
1088
1088
13e8
789f
2bf2
2aac
2aa8
2aa8
2be8
2888
7988
0dd4
12b4
2092
40a1
0000
ENDCHAR
STARTCHAR 256f
ENCODING 9583
SWIDTH 823 0
DWIDTH 16 0
BBX 16 16 0 -2
BITMAP
0800
09ff
0810
7dff
1511
15dd
1511
24fe
2400
29ff
7820
0c7e
1282
2002
400c
0000
ENDCHAR
STARTCHAR 2570
ENCODING 9584
SWIDTH 823 0
DWIDTH 16 0
BBX 16 16 0 -2
BITMAP
0880
0880
09ff
7eaa
14aa
14aa
17ff
24aa
24aa
28aa
7bff
0c00
12aa
2115
4215
0000
ENDCHAR
STARTCHAR 2571
ENCODING 9585
SWIDTH 823 0
DWIDTH 16 0
BBX 16 16 0 -2
BITMAP
080c
09f2
0922
7e10
15fc
1504
15fe
2502
2502
29ff
7a01
0c55
1155
2251
4406
0000
ENDCHAR
STARTCHAR 2572
ENCODING 9586
SWIDTH 823 0
DWIDTH 16 0
BBX 16 16 0 -2
BITMAP
0810
0810
08fe
7e10
13ff
1244
13ef
2244
2464
259f
7800
0dff
1248
2089
4307
0000
ENDCHAR
STARTCHAR 2573
ENCODING 9587
SWIDTH 823 0
DWIDTH 16 0
BBX 16 16 0 -2
BITMAP
0820
0820
0bff
7d02
157a
154a
157a
2502
25fe
2884
78fc
0c84
12fc
2000
43ff
0000
ENDCHAR
STARTCHAR 2574
ENCODING 9588
SWIDTH 823 0
DWIDTH 16 0
BBX 16 16 0 -2
BITMAP
0080
3fff
2000
3ffc
0000
0ff8
0808
3ffe
248a
3c8a
27fa
3cae
252a
24d2
4f33
0000
ENDCHAR
STARTCHAR 2575
ENCODING 9589
SWIDTH 823 0
DWIDTH 16 0
BBX 16 16 0 -2
BITMAP
0800
09ff
0854
7c92
15ff
1511
15bb
2555
25bb
2911
79bb
0d55
13bb
2111
4113
0000
ENDCHAR
STARTCHAR 2576
ENCODING 9590
SWIDTH 823 0
DWIDTH 16 0
BBX 16 16 0 -2
BITMAP
11c4
2008
6bfa
1004
2dcb
741d
19c6
3555
55d5
0100
7fff
0208
0f10
00f0
3f0e
0000
ENDCHAR
STARTCHAR 2577
ENCODING 9591
SWIDTH 823 0
DWIDTH 16 0
BBX 16 16 0 -2
BITMAP
0000
1ff8
0010
0020
0040
0080
0080
00ff
0080
0080
0080
0080
0080
0080
0380
0000
ENDCHAR
STARTCHAR 2578
ENCODING 9592
SWIDTH 823 0
DWIDTH 16 0
BBX 16 16 0 -2
BITMAP
0000
0ff0
0020
0040
7ffe
0080
0080
0380
3c7c
0408
0810
0efe
7810
0810
1830
0000
ENDCHAR
STARTCHAR 2579
ENCODING 9593
SWIDTH 823 0
DWIDTH 16 0
BBX 16 16 0 -2
BITMAP
3efc
2404
3e44
2228
3e10
2428
3ec6
0000
0ff0
0040
0080
7ffe
0080
0080
0380
0000
ENDCHAR
STARTCHAR 257a
ENCODING 9594
SWIDTH 823 0
DWIDTH 16 0
BBX 16 16 0 -2
BITMAP
0808
4908
7f7f
1422
3f14
617f
3f08
207f
3f08
2108
3ff8
0020
7fff
0040
01c0
0000
ENDCHAR
STARTCHAR 257b
ENCODING 9595
SWIDTH 823 0
DWIDTH 16 0
BBX 16 16 0 -2
BITMAP
11c4
2008
6bfa
1004
2dcb
741d
11c4
5555
55d5
1004
0ff8
0040
7fff
0080
0180
0000
ENDCHAR
STARTCHAR 257c
ENCODING 9596
SWIDTH 823 0
DWIDTH 16 0
BBX 16 16 0 -2
BITMAP
0080
0080
3ffe
2002
2002
0000
1ffc
0080
0080
0080
0080
0080
0080
0080
0380
0000
ENDCHAR
STARTCHAR 257d
ENCODING 9597
SWIDTH 823 0
DWIDTH 16 0
BBX 16 16 0 -2
BITMAP
0080
0080
3ffe
2002
2102
0100
0100
1ff8
0108
0108
0108
0208
0209
0409
1807
0000
ENDCHAR
STARTCHAR 257e
ENCODING 9598
SWIDTH 823 0
DWIDTH 16 0
BBX 16 16 0 -2
BITMAP
0080
0080
3ffe
2002
2002
0ff8
0000
0000
7fff
0080
0080
0080
0080
0080
0380
0000
ENDCHAR
STARTCHAR 2821
ENCODING 10273
SWIDTH 823 0
DWIDTH 16 0
BBX 16 16 0 -2
BITMAP
0080
0080
3ffe
2002
2002
1e20
0220
1e20
1020
1020
1e48
0248
0244
029e
1de2
0000
ENDCHAR
STARTCHAR 2822
ENCODING 10274
SWIDTH 823 0
DWIDTH 16 0
BBX 16 16 0 -2
BITMAP
0080
0080
3ffe
202a
0024
1ffe
1020
1022
1fa2
1114
1114
1108
2109
2615
4062
0000
ENDCHAR
STARTCHAR 2823
ENCODING 10275
SWIDTH 823 0
DWIDTH 16 0
BBX 16 16 0 -2
BITMAP
0080
0080
3ffe
2002
0000
3f80
113e
1f02
1122
1f22
1114
1108
1f14
7163
0100
0000
ENDCHAR
STARTCHAR 2824
ENCODING 10276
SWIDTH 823 0
DWIDTH 16 0
BBX 16 16 0 -2
BITMAP
0080
0080
3ffe
2002
207a
0f90
0888
1048
0080
7ffe
02a0
0490
0888
3086
0080
0000
ENDCHAR
STARTCHAR 2825
ENCODING 10277
SWIDTH 823 0
DWIDTH 16 0
BBX 16 16 0 -2
BITMAP
0080
0080
3ffe
2002
2ffa
0080
0ff8
0888
0ff8
0080
1ffc
10a4
10f4
1794
100c
0000
ENDCHAR
STARTCHAR 2826
ENCODING 10278
SWIDTH 823 0
DWIDTH 16 0
BBX 16 16 0 -2
BITMAP
0080
0080
3ffe
2002
2202
12fe
1210
1e10
02fe
0292
3eaa
12c6
1282
2282
428e
0000
ENDCHAR
STARTCHAR 2827
ENCODING 10279
SWIDTH 823 0
DWIDTH 16 0
BBX 16 16 0 -2
BITMAP
0080
0080
3fff
2001
30fd
0c04
01fe
2004
13ff
0a01
02fd
0484
0848
1078
2387
0000
ENDCHAR
STARTCHAR 2828
ENCODING 10280
SWIDTH 823 0
DWIDTH 16 0
BBX 16 16 0 -2
BITMAP
0810
0810
7f10
41fe
4910
3e10
0810
3e10
09ff
7e10
0828
3e28
2244
2282
3f01
0000
ENDCHAR
STARTCHAR 2829
ENCODING 10281
SWIDTH 823 0
DWIDTH 16 0
BBX 16 16 0 -2
BITMAP
0080
3ffe
2002
0040
3c7e
25c8
2430
28cc
2b7b
2490
24fc
2510
28fc
2010
21fe
0000
ENDCHAR
STARTCHAR 282a
ENCODING 10282
SWIDTH 823 0
DWIDTH 16 0
BBX 16 16 0 -2
BITMAP
0080
0080
3ffe
2022
22fe
1284
12fc
1e84
02fc
0284
3efc
1210
13ff
2292
4311
0000
ENDCHAR
STARTCHAR 282b
ENCODING 10283
SWIDTH 823 0
DWIDTH 16 0
BBX 16 16 0 -2
BITMAP
0070
0f88
0888
0844
1042
2041
0010
3fff
0010
0210
0110
0110
0010
0010
0070
0000
ENDCHAR
STARTCHAR 282c
ENCODING 10284
SWIDTH 823 0
DWIDTH 16 0
BBX 16 16 0 -2
BITMAP
0000
0ff8
0808
0ff8
0808
0808
0ff8
0000
3ffe
0010
7fff
0210
0110
0110
0070
0000
ENDCHAR
STARTCHAR 282d
ENCODING 10285
SWIDTH 823 0
DWIDTH 16 0
BBX 16 16 0 -2
BITMAP
0088
0084
7fff
0080
1ffc
1084
1ffc
1084
1ffc
1084
0008
7fff
0408
0208
0038
0000
ENDCHAR
STARTCHAR 282e
ENCODING 10286
SWIDTH 823 0
DWIDTH 16 0
BBX 16 16 0 -2
BITMAP
1400
1400
14fe
2210
2110
4010
547c
1410
1410
1410
1410
14fe
2400
2201
41ff
0000
ENDCHAR
STARTCHAR 282f
ENCODING 10287
SWIDTH 823 0
DWIDTH 16 0
BBX 16 16 0 -2
BITMAP
08f8
0820
0bfe
7c20
09fc
0924
09fc
0d24
15fc
1420
15fc
1420
27fe
2201
41ff
0000
ENDCHAR
STARTCHAR 2830
ENCODING 10288
SWIDTH 823 0
DWIDTH 16 0
BBX 16 16 0 -2
BITMAP
0000
1ffe
1002
1ffe
1140
1140
13fc
1440
1040
1fff
1150
2150
2248
4c46
0040
0000
ENDCHAR
STARTCHAR 2831
ENCODING 10289
SWIDTH 823 0
DWIDTH 16 0
BBX 16 16 0 -2
BITMAP
0000
1ffe
1002
1ffe
1248
1fff
1248
1278
1200
13fe
1040
3fff
2248
4444
1843
0000
ENDCHAR
STARTCHAR 2832
ENCODING 10290
SWIDTH 823 0
DWIDTH 16 0
BBX 16 16 0 -2
BITMAP
0000
1ffe
1002
1ffe
1008
1228
122e
1428
197f
1108
1208
264e
2a68
4258
028f
0000
ENDCHAR
STARTCHAR 2833
ENCODING 10291
SWIDTH 823 0
DWIDTH 16 0
BBX 16 16 0 -2
BITMAP
0000
3ffe
2002
3ffe
24a4
25ff
28a4
2abc
3280
24fe
2410
2dff
5454
4492
0511
0000
ENDCHAR
STARTCHAR 2834
ENCODING 10292
SWIDTH 823 0
DWIDTH 16 0
BBX 16 16 0 -2
BITMAP
0000
3ffe
2002
3ffe
2820
29fc
3124
27fe
2524
2bfe
2a22
3fff
4884
4878
0b87
0000
ENDCHAR
STARTCHAR 2835
ENCODING 10293
SWIDTH 823 0
DWIDTH 16 0
BBX 16 16 0 -2
BITMAP
3ffe
2002
3ffe
2400
24fc
2820
2afe
3248
24fc
2d4a
35ff
2502
457a
454a
057e
0000
ENDCHAR
STARTCHAR 2836
ENCODING 10294
SWIDTH 823 0
DWIDTH 16 0
BBX 16 16 0 -2
BITMAP
0410
0210
0220
3ffe
0080
0888
0888
0888
0888
0ff8
0080
0080
0080
0100
0e00
0000
ENDCHAR
STARTCHAR 2837
ENCODING 10295
SWIDTH 823 0
DWIDTH 16 0
BBX 16 16 0 -2
BITMAP
1000
11fc
1004
1008
5410
5420
5440
5480
5480
5500
5500
7d01
0101
0081
007f
0000
ENDCHAR
STARTCHAR 2838
ENCODING 10296
SWIDTH 823 0
DWIDTH 16 0
BBX 16 16 0 -2
BITMAP
0080
1084
1084
1084
1ffc
0000
1004
1084
1084
1084
1084
1084
2084
2084
4004
0000
ENDCHAR
STARTCHAR 2839
ENCODING 10297
SWIDTH 823 0
DWIDTH 16 0
BBX 16 16 0 -2
BITMAP
1000
17fe
1000
1090
5490
5490
5490
5490
5490
5490
5490
7d10
0111
0211
040f
0000
ENDCHAR
STARTCHAR 283a
ENCODING 10298
SWIDTH 823 0
DWIDTH 16 0
BBX 16 16 0 -2
BITMAP
1000
10fe
1082
1082
5482
5482
54fe
5488
5488
5488
5488
7d04
0104
0202
0401
0000
ENDCHAR
STARTCHAR 283b
ENCODING 10299
SWIDTH 823 0
DWIDTH 16 0
BBX 16 16 0 -2
BITMAP
0080
1084
1084
1ffc
0100
0100
7fff
0100
03f8
0608
1a08
6110
00e0
01b8
1e07
0000
ENDCHAR
STARTCHAR 283c
ENCODING 10300
SWIDTH 823 0
DWIDTH 16 0
BBX 16 16 0 -2
BITMAP
1000
10ff
1084
1084
5484
5484
57ff
5424
5424
5444
5444
7c84
0104
0604
001c
0000
ENDCHAR
STARTCHAR 283d
ENCODING 10301
SWIDTH 823 0
DWIDTH 16 0
BBX 16 16 0 -2
BITMAP
0000
3ffc
2104
2104
3ffc
2000
2002
2002
1ffe
0100
0100
2104
2104
2104
3ffc
0000
ENDCHAR
STARTCHAR 283e
ENCODING 10302
SWIDTH 823 0
DWIDTH 16 0
BBX 16 16 0 -2
BITMAP
1000
11ff
1100
1100
557e
5510
5510
5510
55ff
5510
5510
7e10
0210
0410
0010
0000
ENDCHAR
STARTCHAR 283f
ENCODING 10303
SWIDTH 823 0
DWIDTH 16 0
BBX 16 16 0 -2
BITMAP
1020
1222
1122
1124
5420
57fe
5420
5420
5420
57ff
5420
7c20
0020
0020
0020
0000
ENDCHAR
STARTCHAR 2840
ENCODING 10304
SWIDTH 823 0
DWIDTH 16 0
BBX 16 16 0 -2
BITMAP
101c
11e0
1100
1100
55ff
5510
5510
5510
5570
551c
5513
7e10
0210
0410
0010
0000
ENDCHAR
STARTCHAR 2841
ENCODING 10305
SWIDTH 823 0
DWIDTH 16 0
BBX 16 16 0 -2
BITMAP
1000
11ff
1100
1100
5500
55fe
5502
5502
5502
55fe
5500
7d00
0100
0100
01ff
0000
ENDCHAR
STARTCHAR 2842
ENCODING 10306
SWIDTH 823 0
DWIDTH 16 0
BBX 16 16 0 -2
BITMAP
0100
2104
2104
2104
3ffc
0000
7ffe
0008
1f88
1088
1088
1f88
0008
0008
0038
0000
ENDCHAR
STARTCHAR 2843
ENCODING 10307
SWIDTH 823 0
DWIDTH 16 0
BBX 16 16 0 -2
BITMAP
0100
0100
2104
2104
3ffc
0000
0100
0100
3ffc
0010
0810
0420
0420
0040
7ffe
0000
ENDCHAR
STARTCHAR 2844
ENCODING 10308
SWIDTH 823 0
DWIDTH 16 0
BBX 16 16 0 -2
BITMAP
0080
1084
1084
1ffc
0000
3ffe
0082
0702
780c
0000
1ffc
1004
1004
1004
1ffc
0000
ENDCHAR
STARTCHAR 2845
ENCODING 10309
SWIDTH 823 0
DWIDTH 16 0
BBX 16 16 0 -2
BITMAP
1048
1048
11fe
104a
544a
55fe
5548
5548
55ff
5449
5449
7c89
008b
0108
0208
0000
ENDCHAR
STARTCHAR 2846
ENCODING 10310
SWIDTH 823 0
DWIDTH 16 0
BBX 16 16 0 -2
BITMAP
1020
1050
1088
1104
56fb
5400
5400
57fe
5442
5442
5442
7c42
004e
0040
0040
0000
ENDCHAR
STARTCHAR 2847
ENCODING 10311
SWIDTH 823 0
DWIDTH 16 0
BBX 16 16 0 -2
BITMAP
1020
1020
1020
1020
57ff
5420
5420
5420
55fe
5502
5502
7d02
0102
0102
01fe
0000
ENDCHAR
STARTCHAR 2848
ENCODING 10312
SWIDTH 823 0
DWIDTH 16 0
BBX 16 16 0 -2
BITMAP
0080
1084
1084
1ffc
0000
0804
0f04
117f
1124
3124
4a24
04ff
0804
1004
6004
0000
ENDCHAR
STARTCHAR 2849
ENCODING 10313
SWIDTH 823 0
DWIDTH 16 0
BBX 16 16 0 -2
BITMAP
0080
1084
1084
1ffc
0100
03f8
0408
3b30
00c0
0738
7807
07f8
0408
0408
07f8
0000
ENDCHAR
STARTCHAR 284a
ENCODING 10314
SWIDTH 823 0
DWIDTH 16 0
BBX 16 16 0 -2
BITMAP
0080
1084
1084
1ffc
0000
10f8
1088
7d0f
1200
11fc
1c84
7048
1030
106c
3383
0000
ENDCHAR
STARTCHAR 284b
ENCODING 10315
SWIDTH 823 0
DWIDTH 16 0
BBX 16 16 0 -2
BITMAP
1020
1020
10fc
1020
54a4
5484
57ff
5484
5484
5400
55fe
7c48
0048
0089
0307
0000
ENDCHAR
STARTCHAR 284c
ENCODING 10316
SWIDTH 823 0
DWIDTH 16 0
BBX 16 16 0 -2
BITMAP
1010
1010
11ff
1101
5549
5448
5488
5507
5400
54fe
5410
7c10
0010
0010
01ff
0000
ENDCHAR
STARTCHAR 284d
ENCODING 10317
SWIDTH 823 0
DWIDTH 16 0
BBX 16 16 0 -2
BITMAP
1000
11fc
1104
11fc
5504
5504
55fc
5400
5510
5512
55dc
7d10
0111
01d1
070f
0000
ENDCHAR
STARTCHAR 284e
ENCODING 10318
SWIDTH 823 0
DWIDTH 16 0
BBX 16 16 0 -2
BITMAP
0080
1082
1ffe
0000
1ffe
1002
1ffe
1040
1244
1244
13fc
2040
2442
4442
07fe
0000
ENDCHAR
STARTCHAR 284f
ENCODING 10319
SWIDTH 823 0
DWIDTH 16 0
BBX 16 16 0 -2
BITMAP
1020
1020
13ff
1020
55fe
5420
57ff
5400
55fe
5522
5522
7dfe
0102
0102
010e
0000
ENDCHAR
STARTCHAR 2850
ENCODING 10320
SWIDTH 823 0
DWIDTH 16 0
BBX 16 16 0 -2
BITMAP
1020
1020
13ff
1020
55fe
5522
55fe
5522
5522
55fe
54a8
7d24
0222
0421
0020
0000
ENDCHAR
STARTCHAR 2851
ENCODING 10321
SWIDTH 823 0
DWIDTH 16 0
BBX 16 16 0 -2
BITMAP
1002
118c
1070
138c
5440
57ff
5440
54fe
5582
56fe
5482
7cfe
0082
0082
0086
0000
ENDCHAR
STARTCHAR 2852
ENCODING 10322
SWIDTH 823 0
DWIDTH 16 0
BBX 16 16 0 -2
BITMAP
1020
1020
17ff
10a8
5524
57fe
5525
5524
55fc
5524
5524
7dfc
0021
0021
001f
0000
ENDCHAR
STARTCHAR 2853
ENCODING 10323
SWIDTH 823 0
DWIDTH 16 0
BBX 16 16 0 -2
BITMAP
0100
4102
4102
7ffe
0000
3f02
2122
3f22
2122
3f22
2122
2122
3f02
1202
618e
0000
ENDCHAR
STARTCHAR 2854
ENCODING 10324
SWIDTH 823 0
DWIDTH 16 0
BBX 16 16 0 -2
BITMAP
1010
1010
11ff
1044
5424
5428
55ff
5511
5511
54fe
5492
7c92
0092
0096
0010
0000
ENDCHAR
STARTCHAR 2855
ENCODING 10325
SWIDTH 823 0
DWIDTH 16 0
BBX 16 16 0 -2
BITMAP
0080
2082
3ffe
0820
11fe
2022
43ff
0822
11fe
3020
51fe
1020
13ff
1020
1020
0000
ENDCHAR
STARTCHAR 2856
ENCODING 10326
SWIDTH 823 0
DWIDTH 16 0
BBX 16 16 0 -2
BITMAP
1010
1111
1111
11ff
5400
55ff
5410
5420
55ff
5549
5549
7d49
0149
0149
014b
0000
ENDCHAR
STARTCHAR 2857
ENCODING 10327
SWIDTH 823 0
DWIDTH 16 0
BBX 16 16 0 -2
BITMAP
0080
2082
3ffe
0260
0c18
3127
0270
0f88
0000
3f7e
0912
3366
0d1a
3162
0306
0000
ENDCHAR
STARTCHAR 2858
ENCODING 10328
SWIDTH 823 0
DWIDTH 16 0
BBX 16 16 0 -2
BITMAP
1010
1010
11ff
1000
547c
5444
547c
5400
55ff
5501
557d
7d45
017d
0101
0107
0000
ENDCHAR
STARTCHAR 2859
ENCODING 10329
SWIDTH 823 0
DWIDTH 16 0
BBX 16 16 0 -2
BITMAP
1020
1040
11fe
1122
5522
55fe
5522
5522
55fe
5454
5455
7c9f
0090
0111
020f
0000
ENDCHAR
STARTCHAR 285a
ENCODING 10330
SWIDTH 823 0
DWIDTH 16 0
BBX 16 16 0 -2
BITMAP
1024
1048
13ff
1048
55fe
544a
57ff
544a
544a
55fe
5448
7ccc
014a
0249
0048
0000
ENDCHAR
STARTCHAR 285b
ENCODING 10331
SWIDTH 823 0
DWIDTH 16 0
BBX 16 16 0 -2
BITMAP
0080
2082
3ffe
0400
0480
3fbe
04a2
0522
7fe4
0822
1fa1
70a1
1fa1
10a6
1fa0
0000
ENDCHAR
STARTCHAR 285c
ENCODING 10332
SWIDTH 823 0
DWIDTH 16 0
BBX 16 16 0 -2
BITMAP
1000
13ff
1048
11fe
554a
554a
55fe
5400
55fe
5400
57ff
7c10
0094
0313
0030
0000
ENDCHAR
STARTCHAR 285d
ENCODING 10333
SWIDTH 823 0
DWIDTH 16 0
BBX 16 16 0 -2
BITMAP
0080
1084
1084
1ffc
2410
247e
2592
3c4c
05f0
0408
7dff
1488
1448
2408
4418
0000
ENDCHAR
STARTCHAR 285e
ENCODING 10334
SWIDTH 823 0
DWIDTH 16 0
BBX 16 16 0 -2
BITMAP
0200
0ff8
0808
0ff8
0808
0ff8
0800
0fff
0800
0ffe
2492
424e
0080
2082
3ffe
0000
ENDCHAR
STARTCHAR 285f
ENCODING 10335
SWIDTH 823 0
DWIDTH 16 0
BBX 16 16 0 -2
BITMAP
1018
1084
1102
13ff
55a6
556a
5522
55fe
5400
54fc
5484
7cfc
0084
0084
00fc
0000
ENDCHAR
STARTCHAR 2860
ENCODING 10336
SWIDTH 823 0
DWIDTH 16 0
BBX 16 16 0 -2
BITMAP
0080
1084
1084
1ffc
0420
0a20
107e
3e42
0494
3f10
0410
2528
1728
0c44
7082
0000
ENDCHAR
STARTCHAR 2861
ENCODING 10337
SWIDTH 823 0
DWIDTH 16 0
BBX 16 16 0 -2
BITMAP
1105
1555
1184
124b
5451
5400
57ff
5441
5441
57fe
5442
7c82
0082
0102
061c
0000
ENDCHAR
STARTCHAR 2862
ENCODING 10338
SWIDTH 823 0
DWIDTH 16 0
BBX 16 16 0 -2
BITMAP
1122
10a4
1020
13ff
5468
54a4
57a3
5484
54de
5554
5754
7cff
0084
0104
0204
0000
ENDCHAR
STARTCHAR 2863
ENCODING 10339
SWIDTH 823 0
DWIDTH 16 0
BBX 16 16 0 -2
BITMAP
1200
13be
1292
1492
57d2
5564
5554
57de
5554
5564
57c4
7c7f
0444
0444
08c4
0000
ENDCHAR
STARTCHAR 2864
ENCODING 10340
SWIDTH 823 0
DWIDTH 16 0
BBX 16 16 0 -2
BITMAP
0080
1084
1ffc
0820
1ffe
3040
5ffc
1040
1ffc
1040
1fff
0000
3e3e
2222
23e6
0000
ENDCHAR
STARTCHAR 2865
ENCODING 10341
SWIDTH 823 0
DWIDTH 16 0
BBX 16 16 0 -2
BITMAP
0100
1ffc
1034
17d4
12a4
17fc
11c4
12a4
0490
7fff
0630
388e
0080
1084
1ffc
0000
ENDCHAR
STARTCHAR 2866
ENCODING 10342
SWIDTH 823 0
DWIDTH 16 0
BBX 16 16 0 -2
BITMAP
1010
1020
10fc
1084
54fc
5484
55fe
5522
55fe
5522
55fe
7c48
03ff
0088
0308
0000
ENDCHAR
STARTCHAR 2867
ENCODING 10343
SWIDTH 823 0
DWIDTH 16 0
BBX 16 16 0 -2
BITMAP
1020
1020
13fe
1020
55fc
5400
57fe
5422
55fc
5400
57ff
7c04
03ff
02a4
038c
0000
ENDCHAR
STARTCHAR 2868
ENCODING 10344
SWIDTH 823 0
DWIDTH 16 0
BBX 16 16 0 -2
BITMAP
1294
13de
14a4
13ff
554a
556a
57ff
5504
55fc
5504
55fc
7d04
01fc
0088
0306
0000
ENDCHAR
STARTCHAR 2869
ENCODING 10345
SWIDTH 823 0
DWIDTH 16 0
BBX 16 16 0 -2
BITMAP
13de
1252
13de
1000
57ff
5408
55c8
548f
57fa
5552
55ca
7d4c
05c4
0b4a
0051
0000
ENDCHAR
STARTCHAR 286a
ENCODING 10346
SWIDTH 823 0
DWIDTH 16 0
BBX 16 16 0 -2
BITMAP
1104
11c6
1105
17e4
551f
57c4
5524
57e4
5546
57ea
56aa
7cea
07aa
0d2a
0573
0000
ENDCHAR
STARTCHAR 286b
ENCODING 10347
SWIDTH 823 0
DWIDTH 16 0
BBX 16 16 0 -2
BITMAP
0000
3ffe
0888
0888
1110
2220
1110
0888
0888
0000
1ffc
0080
0080
0080
3ffe
0000
ENDCHAR
STARTCHAR 286c
ENCODING 10348
SWIDTH 823 0
DWIDTH 16 0
BBX 16 16 0 -2
BITMAP
0888
1110
2220
1110
0a88
0400
3ffc
2024
2224
2144
2084
2344
2c24
2004
3ffc
0000
ENDCHAR
STARTCHAR 286d
ENCODING 10349
SWIDTH 823 0
DWIDTH 16 0
BBX 16 16 0 -2
BITMAP
0444
0888
1110
0888
1ffc
1334
10c4
1334
1ffc
14a8
1298
14a8
1295
1ce2
7382
0000
ENDCHAR
STARTCHAR 286e
ENCODING 10350
SWIDTH 823 0
DWIDTH 16 0
BBX 16 16 0 -2
BITMAP
0000
03f8
7d08
1108
1108
1108
17e8
1108
1108
1d08
6108
0208
0209
0409
0807
0000
ENDCHAR
STARTCHAR 286f
ENCODING 10351
SWIDTH 823 0
DWIDTH 16 0
BBX 16 16 0 -2
BITMAP
0000
1ff8
1008
1008
1008
1008
1ff8
1000
1000
1ffc
1004
1004
1004
1004
1ffc
0000
ENDCHAR
STARTCHAR 2870
ENCODING 10352
SWIDTH 823 0
DWIDTH 16 0
BBX 16 16 0 -2
BITMAP
0000
3ffe
0080
0080
1ffc
1084
1084
1084
1084
1084
1084
109c
0080
0080
0080
0000
ENDCHAR
STARTCHAR 2871
ENCODING 10353
SWIDTH 823 0
DWIDTH 16 0
BBX 16 16 0 -2
BITMAP
1010
1010
1020
7cfc
5484
5484
5484
5484
5484
5484
5c84
1084
1105
1105
1203
0000
ENDCHAR
STARTCHAR 2872
ENCODING 10354
SWIDTH 823 0
DWIDTH 16 0
BBX 16 16 0 -2
BITMAP
0890
0888
0880
10fe
37c0
5020
1012
108c
0080
1ffc
1084
1084
1084
109c
0080
0000
ENDCHAR
STARTCHAR 2873
ENCODING 10355
SWIDTH 823 0
DWIDTH 16 0
BBX 16 16 0 -2
BITMAP
1020
1020
1040
7dfe
5502
5502
5502
5502
55fe
5502
5d02
1102
1102
1102
11fe
0000
ENDCHAR
STARTCHAR 2874
ENCODING 10356
SWIDTH 823 0
DWIDTH 16 0
BBX 16 16 0 -2
BITMAP
0080
0490
088c
3083
0080
1ffe
1082
12a2
12a2
1492
1492
188a
1082
1082
100e
0000
ENDCHAR
STARTCHAR 2875
ENCODING 10357
SWIDTH 823 0
DWIDTH 16 0
BBX 16 16 0 -2
BITMAP
0080
0080
7fff
0220
1224
2222
4421
08a0
0080
1ffc
1084
1084
1084
108c
0080
0000
ENDCHAR
STARTCHAR 2876
ENCODING 10358
SWIDTH 823 0
DWIDTH 16 0
BBX 16 16 0 -2
BITMAP
0400
043e
3fa2
0424
3f22
0421
7fa1
0826
1020
6080
1ffc
1084
1084
108c
0080
0000
ENDCHAR
STARTCHAR 2877
ENCODING 10359
SWIDTH 823 0
DWIDTH 16 0
BBX 16 16 0 -2
BITMAP
1020
1022
11fe
7c24
5424
5428
57ff
5424
54fe
5582
5e82
10fe
1082
1082
10fe
0000
ENDCHAR
STARTCHAR 2878
ENCODING 10360
SWIDTH 823 0
DWIDTH 16 0
BBX 16 16 0 -2
BITMAP
1124
1124
13ff
7d24
5524
553c
5500
55fe
5420
57ff
5ca8
1124
1222
1421
1020
0000
ENDCHAR
STARTCHAR 2879
ENCODING 10361
SWIDTH 823 0
DWIDTH 16 0
BBX 16 16 0 -2
BITMAP
1100
11de
1322
7ea6
5554
5488
55fc
5603
5400
57fe
5c20
1124
1222
1421
1060
0000
ENDCHAR
STARTCHAR 287a
ENCODING 10362
SWIDTH 823 0
DWIDTH 16 0
BBX 16 16 0 -2
BITMAP
1000
11ff
1048
7dff
5549
5549
55ff
5400
54fe
5400
5dff
1010
1094
1313
1030
0000
ENDCHAR
STARTCHAR 287b
ENCODING 10363
SWIDTH 823 0
DWIDTH 16 0
BBX 16 16 0 -2
BITMAP
1000
17ff
1400
7de2
5402
55ef
5522
552a
55ea
540a
5d2a
1522
14a2
18f2
1386
0000
ENDCHAR
STARTCHAR 287c
ENCODING 10364
SWIDTH 823 0
DWIDTH 16 0
BBX 16 16 0 -2
BITMAP
0404
3f7f
0404
7fa4
0454
3e84
0ffc
7808
0ff8
0808
0ff8
0080
1ffc
1084
108c
0000
ENDCHAR
STARTCHAR 287d
ENCODING 10365
SWIDTH 823 0
DWIDTH 16 0
BBX 16 16 0 -2
BITMAP
1020
1020
13fe
7c20
55fc
5400
55ff
5421
55fe
5400
5fff
1002
13bf
1292
1386
0000
ENDCHAR
STARTCHAR 287e
ENCODING 10366
SWIDTH 823 0
DWIDTH 16 0
BBX 16 16 0 -2
BITMAP
1088
1088
13ff
7c88
55fe
5552
5552
55fe
5409
55ff
5d08
118a
114c
1115
1262
0000
ENDCHAR
STARTCHAR 2c21
ENCODING 11297
SWIDTH 823 0
DWIDTH 16 0
BBX 16 16 0 -2
BITMAP
1020
1020
17ff
7c82
57e2
5482
55df
5402
55ca
554a
5dca
1502
1542
18e2
1386
0000
ENDCHAR
STARTCHAR 2c22
ENCODING 11298
SWIDTH 823 0
DWIDTH 16 0
BBX 16 16 0 -2
BITMAP
1129
114a
13ef
7d5a
55ef
554a
55ef
554a
55ef
5400
5ffe
1084
1078
10cc
1303
0000
ENDCHAR
STARTCHAR 2c23
ENCODING 11299
SWIDTH 823 0
DWIDTH 16 0
BBX 16 16 0 -2
BITMAP
0080
0080
3ffe
2220
2220
2220
25fe
24a8
2ca8
34a8
2524
4524
4622
0420
0420
0000
ENDCHAR
STARTCHAR 2c24
ENCODING 11300
SWIDTH 823 0
DWIDTH 16 0
BBX 16 16 0 -2
BITMAP
0080
0080
3ffe
2410
2410
24fe
3f10
2410
24fc
2444
2744
3c28
4410
446c
0d83
0000
ENDCHAR
STARTCHAR 2c25
ENCODING 11301
SWIDTH 823 0
DWIDTH 16 0
BBX 16 16 0 -2
BITMAP
0080
0080
3fff
2440
2420
3fff
2410
24e4
2608
2a70
2a02
4a0c
5270
1201
21ff
0000
ENDCHAR
STARTCHAR 2c26
ENCODING 11302
SWIDTH 823 0
DWIDTH 16 0
BBX 16 16 0 -2
BITMAP
0080
0080
3ffe
2000
2110
2ffe
2110
21f0
2000
27fc
2404
27fc
4420
4818
1007
0000
ENDCHAR
STARTCHAR 2c27
ENCODING 11303
SWIDTH 823 0
DWIDTH 16 0
BBX 16 16 0 -2
BITMAP
0080
0080
3ffe
2110
2110
2ffe
2110
2110
2000
27fc
2444
27fc
4444
4444
07fc
0000
ENDCHAR
STARTCHAR 2c28
ENCODING 11304
SWIDTH 823 0
DWIDTH 16 0
BBX 16 16 0 -2
BITMAP
0080
0080
3ffe
2100
2ffc
2884
2ffc
2884
2884
2ffc
2248
2254
425a
4441
183f
0000
ENDCHAR
STARTCHAR 2c29
ENCODING 11305
SWIDTH 823 0
DWIDTH 16 0
BBX 16 16 0 -2
BITMAP
0080
3fff
2220
2220
3fbf
2222
2242
3fa2
2224
3fd4
2408
2788
4494
48a2
11c1
0000
ENDCHAR
STARTCHAR 2c2a
ENCODING 11306
SWIDTH 823 0
DWIDTH 16 0
BBX 16 16 0 -2
BITMAP
0080
0080
3ffe
2000
27fc
2444
27fc
2444
27fc
2110
2ffe
2110
5fff
4208
0c06
0000
ENDCHAR
STARTCHAR 2c2b
ENCODING 11307
SWIDTH 823 0
DWIDTH 16 0
BBX 16 16 0 -2
BITMAP
0000
7dfe
0902
1102
217a
794a
094a
097a
4942
494a
294a
113a
2906
2400
43ff
0000
ENDCHAR
STARTCHAR 2c2c
ENCODING 11308
SWIDTH 823 0
DWIDTH 16 0
BBX 16 16 0 -2
BITMAP
0000
7dfe
094a
114a
217a
794a
094a
097a
494a
494a
294a
11fe
2800
2600
41ff
0000
ENDCHAR
STARTCHAR 2c2d
ENCODING 11309
SWIDTH 823 0
DWIDTH 16 0
BBX 16 16 0 -2
BITMAP
0080
0080
7fff
0220
1224
2222
4421
0860
0210
0210
7fff
0210
0210
0410
1810
0000
ENDCHAR
STARTCHAR 2c2e
ENCODING 11310
SWIDTH 823 0
DWIDTH 16 0
BBX 16 16 0 -2
BITMAP
0028
0024
0024
7fff
0020
0020
0020
3fa0
0020
0010
1f10
0010
0009
7fca
0004
0000
ENDCHAR
STARTCHAR 2c2f
ENCODING 11311
SWIDTH 823 0
DWIDTH 16 0
BBX 16 16 0 -2
BITMAP
0000
3f3e
0102
0102
0102
1f3e
1020
1020
1f3e
0102
0102
0102
0102
0102
0e1c
0000
ENDCHAR
STARTCHAR 2c30
ENCODING 11312
SWIDTH 823 0
DWIDTH 16 0
BBX 16 16 0 -2
BITMAP
0010
7c10
0410
04ff
0491
3c91
2091
2091
3c91
0491
0491
0493
0410
0410
3810
0000
ENDCHAR
STARTCHAR 2c31
ENCODING 11313
SWIDTH 823 0
DWIDTH 16 0
BBX 16 16 0 -2
BITMAP
0040
7c40
0440
047f
0481
3c92
2114
2010
3c10
0410
0428
0428
0444
0482
3901
0000
ENDCHAR
STARTCHAR 2c32
ENCODING 11314
SWIDTH 823 0
DWIDTH 16 0
BBX 16 16 0 -2
BITMAP
0010
7cfe
0412
05ff
0412
3cfe
2010
2155
3dd7
0511
05ff
0511
05d7
0555
3a55
0000
ENDCHAR
STARTCHAR 2c33
ENCODING 11315
SWIDTH 823 0
DWIDTH 16 0
BBX 16 16 0 -2
BITMAP
0404
0408
0410
7fa0
0102
1104
1108
0a30
0a01
0402
040c
0a30
1100
20c0
403f
0000
ENDCHAR
STARTCHAR 2c34
ENCODING 11316
SWIDTH 823 0
DWIDTH 16 0
BBX 16 16 0 -2
BITMAP
0004
3dc4
0008
3dd0
2d40
0202
3fc2
2504
3fc8
2550
3fc1
2901
2dc2
4924
1ce8
0000
ENDCHAR
STARTCHAR 2c35
ENCODING 11317
SWIDTH 823 0
DWIDTH 16 0
BBX 16 16 0 -2
BITMAP
0820
1020
2050
4088
0104
0afb
1000
3000
53fe
1042
1042
1042
104e
1040
1040
0000
ENDCHAR
STARTCHAR 2c36
ENCODING 11318
SWIDTH 823 0
DWIDTH 16 0
BBX 16 16 0 -2
BITMAP
0820
1120
213e
4120
0120
0bff
1020
30a2
5122
1222
1064
1004
1008
1030
13c0
0000
ENDCHAR
STARTCHAR 2c37
ENCODING 11319
SWIDTH 823 0
DWIDTH 16 0
BBX 16 16 0 -2
BITMAP
0820
1020
27ff
4020
03fe
0822
13ff
3022
53fe
1020
1120
113e
1120
12e0
143f
0000
ENDCHAR
STARTCHAR 2c38
ENCODING 11320
SWIDTH 823 0
DWIDTH 16 0
BBX 16 16 0 -2
BITMAP
0810
1010
2f7e
4112
02ff
0c12
1712
317e
5510
157e
1510
12ff
1210
1510
18ff
0000
ENDCHAR
STARTCHAR 2c39
ENCODING 11321
SWIDTH 823 0
DWIDTH 16 0
BBX 16 16 0 -2
BITMAP
0820
1020
21fe
4048
03ff
0800
11fe
3122
51fe
1122
11fe
1020
11fe
1020
13ff
0000
ENDCHAR
STARTCHAR 2c3a
ENCODING 11322
SWIDTH 823 0
DWIDTH 16 0
BBX 16 16 0 -2
BITMAP
0080
0080
0080
0080
04a0
04a0
0490
0888
0880
1080
0080
0080
0080
0080
0080
0000
ENDCHAR
STARTCHAR 2c3b
ENCODING 11323
SWIDTH 823 0
DWIDTH 16 0
BBX 16 16 0 -2
BITMAP
0000
0000
0100
0100
0100
0108
1104
1142
1121
2111
2108
4100
0100
0700
0000
0000
ENDCHAR
STARTCHAR 2c3c
ENCODING 11324
SWIDTH 823 0
DWIDTH 16 0
BBX 16 16 0 -2
BITMAP
1040
1040
1040
1040
53fe
5842
5442
5442
5042
1042
1082
1082
1102
1202
141c
0000
ENDCHAR
STARTCHAR 2c3d
ENCODING 11325
SWIDTH 823 0
DWIDTH 16 0
BBX 16 16 0 -2
BITMAP
1000
11fe
1002
1002
5002
5802
55fe
5500
5100
1100
1100
1100
1101
1101
10ff
0000
ENDCHAR
STARTCHAR 2c3e
ENCODING 11326
SWIDTH 823 0
DWIDTH 16 0
BBX 16 16 0 -2
BITMAP
0024
0022
0022
0020
7fff
0020
0820
0420
0220
0890
2850
2828
2889
4885
4782
0000
ENDCHAR
STARTCHAR 2c3f
ENCODING 11327
SWIDTH 823 0
DWIDTH 16 0
BBX 16 16 0 -2
BITMAP
1000
11fe
1020
1020
5020
5820
5420
57ff
5020
1020
1020
1020
1020
1020
1020
0000
ENDCHAR
STARTCHAR 2c40
ENCODING 11328
SWIDTH 823 0
DWIDTH 16 0
BBX 16 16 0 -2
BITMAP
1080
1080
1080
11ff
5100
5900
56fc
5410
5020
1040
1080
1100
1101
1101
10ff
0000
ENDCHAR
STARTCHAR 2c41
ENCODING 11329
SWIDTH 823 0
DWIDTH 16 0
BBX 16 16 0 -2
BITMAP
0000
1ffc
0100
0100
0ff0
0210
0210
0410
3ffe
0100
0080
1244
1202
2209
41f8
0000
ENDCHAR
STARTCHAR 2c42
ENCODING 11330
SWIDTH 823 0
DWIDTH 16 0
BBX 16 16 0 -2
BITMAP
1020
1020
1020
13fe
5020
5820
55fc
5404
5084
1088
1050
1020
1050
118c
1603
0000
ENDCHAR
STARTCHAR 2c43
ENCODING 11331
SWIDTH 823 0
DWIDTH 16 0
BBX 16 16 0 -2
BITMAP
100e
11f0
1110
1110
5110
5910
55ff
5510
5110
1110
1108
1108
1105
11e5
1702
0000
ENDCHAR
STARTCHAR 2c44
ENCODING 11332
SWIDTH 823 0
DWIDTH 16 0
BBX 16 16 0 -2
BITMAP
1020
1022
103c
11e0
5020
5924
5524
5524
5124
1124
11fc
1020
1021
1021
101f
0000
ENDCHAR
STARTCHAR 2c45
ENCODING 11333
SWIDTH 823 0
DWIDTH 16 0
BBX 16 16 0 -2
BITMAP
1020
1020
1020
13ff
5000
5800
54f8
5088
5088
1088
1088
1088
1109
1109
1207
0000
ENDCHAR
STARTCHAR 2c46
ENCODING 11334
SWIDTH 823 0
DWIDTH 16 0
BBX 16 16 0 -2
BITMAP
0080
0080
3ffe
0080
1ffc
0140
7fff
0410
188c
6083
0884
08a2
1091
2088
0380
0000
ENDCHAR
STARTCHAR 2c47
ENCODING 11335
SWIDTH 823 0
DWIDTH 16 0
BBX 16 16 0 -2
BITMAP
1020
1020
1020
1020
503f
5820
5420
5420
51fe
1102
1102
1102
1102
1102
11fe
0000
ENDCHAR
STARTCHAR 2c48
ENCODING 11336
SWIDTH 823 0
DWIDTH 16 0
BBX 16 16 0 -2
BITMAP
1020
1120
1120
11fe
5220
5a20
5420
5020
53ff
1050
1050
1088
1088
1104
1603
0000
ENDCHAR
STARTCHAR 2c49
ENCODING 11337
SWIDTH 823 0
DWIDTH 16 0
BBX 16 16 0 -2
BITMAP
0408
0408
0bff
1008
3108
5088
1048
1008
1018
0100
0084
1442
1401
2208
41f8
0000
ENDCHAR
STARTCHAR 2c4a
ENCODING 11338
SWIDTH 823 0
DWIDTH 16 0
BBX 16 16 0 -2
BITMAP
1080
109e
1100
1100
5200
5a80
54bf
5104
5104
1304
1104
1104
1104
1104
111c
0000
ENDCHAR
STARTCHAR 2c4b
ENCODING 11339
SWIDTH 823 0
DWIDTH 16 0
BBX 16 16 0 -2
BITMAP
1048
1048
1249
114a
514c
5848
5448
5448
50cc
114a
1249
1088
1088
1109
1207
0000
ENDCHAR
STARTCHAR 2c4c
ENCODING 11340
SWIDTH 823 0
DWIDTH 16 0
BBX 16 16 0 -2
BITMAP
0000
1ff8
0010
0220
1ffc
1084
1ffc
1084
1ffc
1084
200c
0082
1441
2409
43f8
0000
ENDCHAR
STARTCHAR 2c4d
ENCODING 11341
SWIDTH 823 0
DWIDTH 16 0
BBX 16 16 0 -2
BITMAP
100c
10f0
7c80
10ff
1088
1c88
7088
1108
1208
3008
0100
1484
1442
2409
43f8
0000
ENDCHAR
STARTCHAR 2c4e
ENCODING 11342
SWIDTH 823 0
DWIDTH 16 0
BBX 16 16 0 -2
BITMAP
1084
1048
1030
10cc
5302
5840
55ff
5480
5120
13fe
1522
1122
1122
1126
1020
0000
ENDCHAR
STARTCHAR 2c4f
ENCODING 11343
SWIDTH 823 0
DWIDTH 16 0
BBX 16 16 0 -2
BITMAP
0880
0880
09fe
1222
3024
5120
1124
1222
1421
1060
0080
1444
1402
2209
41f8
0000
ENDCHAR
STARTCHAR 2c50
ENCODING 11344
SWIDTH 823 0
DWIDTH 16 0
BBX 16 16 0 -2
BITMAP
0080
0080
7fff
0080
1ffc
1224
1224
1ffc
0000
3ffe
0080
1444
1402
2209
41f8
0000
ENDCHAR
STARTCHAR 2c51
ENCODING 11345
SWIDTH 823 0
DWIDTH 16 0
BBX 16 16 0 -2
BITMAP
1020
1020
13ff
1201
5201
58fc
5400
5400
53ff
1020
1124
1124
1222
1221
10e0
0000
ENDCHAR
STARTCHAR 2c52
ENCODING 11346
SWIDTH 823 0
DWIDTH 16 0
BBX 16 16 0 -2
BITMAP
1048
1048
1048
13cf
5048
5848
55cf
5448
5048
10c8
134f
1048
1048
1088
1308
0000
ENDCHAR
STARTCHAR 2c53
ENCODING 11347
SWIDTH 823 0
DWIDTH 16 0
BBX 16 16 0 -2
BITMAP
1010
1010
11ff
1101
5149
5848
5448
5487
5100
1000
10fe
1010
1010
1010
11ff
0000
ENDCHAR
STARTCHAR 2c54
ENCODING 11348
SWIDTH 823 0
DWIDTH 16 0
BBX 16 16 0 -2
BITMAP
1000
11fe
1122
1122
51fe
5922
5522
55fe
5020
13ff
10a8
10a8
1124
1623
1020
0000
ENDCHAR
STARTCHAR 2c55
ENCODING 11349
SWIDTH 823 0
DWIDTH 16 0
BBX 16 16 0 -2
BITMAP
1000
13de
1042
135a
5084
594a
5611
5400
53de
1042
1252
118c
1084
114a
1631
0000
ENDCHAR
STARTCHAR 2c56
ENCODING 11350
SWIDTH 823 0
DWIDTH 16 0
BBX 16 16 0 -2
BITMAP
100e
11f0
1110
1110
51ff
5908
5508
55c5
5302
11fe
1102
11fe
1102
1102
11fe
0000
ENDCHAR
STARTCHAR 2c57
ENCODING 11351
SWIDTH 823 0
DWIDTH 16 0
BBX 16 16 0 -2
BITMAP
1221
1111
1112
11fe
5122
5922
55fe
5522
5122
11fe
1020
1020
13ff
1020
1020
0000
ENDCHAR
STARTCHAR 2c58
ENCODING 11352
SWIDTH 823 0
DWIDTH 16 0
BBX 16 16 0 -2
BITMAP
1000
13ff
1201
1221
51fe
5820
55fe
5522
51fe
1122
11fe
1020
13ff
1020
1020
0000
ENDCHAR
STARTCHAR 2c59
ENCODING 11353
SWIDTH 823 0
DWIDTH 16 0
BBX 16 16 0 -2
BITMAP
1124
1124
13ff
1124
5124
593c
5500
55fe
5020
13ff
10a8
10a8
1124
1222
1020
0000
ENDCHAR
STARTCHAR 2c5a
ENCODING 11354
SWIDTH 823 0
DWIDTH 16 0
BBX 16 16 0 -2
BITMAP
1000
11ff
1010
1020
51ff
5929
5529
5539
5129
1129
1139
1129
1129
1129
11ff
0000
ENDCHAR
STARTCHAR 2c5b
ENCODING 11355
SWIDTH 823 0
DWIDTH 16 0
BBX 16 16 0 -2
BITMAP
1000
11fc
1104
11fc
5104
5904
55fc
5480
51ff
1221
1621
1251
1289
13f1
1006
0000
ENDCHAR
STARTCHAR 2c5c
ENCODING 11356
SWIDTH 823 0
DWIDTH 16 0
BBX 16 16 0 -2
BITMAP
1000
11fc
1104
11fc
5104
59fc
5400
57ff
5100
11ff
1249
1491
1121
1641
100e
0000
ENDCHAR
STARTCHAR 2c5d
ENCODING 11357
SWIDTH 823 0
DWIDTH 16 0
BBX 16 16 0 -2
BITMAP
0080
1ffc
1104
13f4
0620
19c0
0330
3c0f
07f8
0408
07f8
0080
1444
240a
43f9
0000
ENDCHAR
STARTCHAR 2c5e
ENCODING 11358
SWIDTH 823 0
DWIDTH 16 0
BBX 16 16 0 -2
BITMAP
1000
13ff
1040
13ff
5249
5a49
5649
524b
5020
1020
13ff
1050
1088
1104
1603
0000
ENDCHAR
STARTCHAR 2c5f
ENCODING 11359
SWIDTH 823 0
DWIDTH 16 0
BBX 16 16 0 -2
BITMAP
1088
1088
13ff
1088
5000
59fc
5504
55fc
5104
11fc
1020
17ff
1020
1020
1020
0000
ENDCHAR
STARTCHAR 2c60
ENCODING 11360
SWIDTH 823 0
DWIDTH 16 0
BBX 16 16 0 -2
BITMAP
000c
0ff0
0888
1104
2ff4
0040
3ffe
0004
7fff
0004
1ffc
0080
1444
240a
43f9
0000
ENDCHAR
STARTCHAR 2c61
ENCODING 11361
SWIDTH 823 0
DWIDTH 16 0
BBX 16 16 0 -2
BITMAP
1ffc
1004
17f4
1184
16d4
1164
16e4
1154
164c
1184
1ffc
0084
1442
2409
43f8
0000
ENDCHAR
STARTCHAR 2c62
ENCODING 11362
SWIDTH 823 0
DWIDTH 16 0
BBX 16 16 0 -2
BITMAP
103c
11c4
1122
1112
5a11
5401
5460
538f
5201
1201
13cf
1201
1201
1201
13ff
0000
ENDCHAR
STARTCHAR 2c63
ENCODING 11363
SWIDTH 823 0
DWIDTH 16 0
BBX 16 16 0 -2
BITMAP
1110
1110
13d0
111f
5912
57e2
5512
5112
57ca
110a
11c4
1144
124a
124a
1591
0000
ENDCHAR
STARTCHAR 2c64
ENCODING 11364
SWIDTH 823 0
DWIDTH 16 0
BBX 16 16 0 -2
BITMAP
0028
3ffe
2220
23a0
2224
3f94
2214
2a88
3299
2626
4140
1484
1442
2209
41f8
0000
ENDCHAR
STARTCHAR 2c65
ENCODING 11365
SWIDTH 823 0
DWIDTH 16 0
BBX 16 16 0 -2
BITMAP
2088
17ff
0088
47ff
2020
13fe
0222
0aaa
12aa
22fa
4206
0080
1442
2409
43f8
0000
ENDCHAR
STARTCHAR 2c66
ENCODING 11366
SWIDTH 823 0
DWIDTH 16 0
BBX 16 16 0 -2
BITMAP
1010
1010
10fe
1092
50fe
5810
55ff
5482
50fe
1082
10fe
1082
10fe
1044
1183
0000
ENDCHAR
STARTCHAR 2c67
ENCODING 11367
SWIDTH 823 0
DWIDTH 16 0
BBX 16 16 0 -2
BITMAP
1020
17ff
1020
13fe
5222
5bfe
5622
53fe
5022
13ff
1041
1224
12a2
1485
147c
0000
ENDCHAR
STARTCHAR 2c68
ENCODING 11368
SWIDTH 823 0
DWIDTH 16 0
BBX 16 16 0 -2
BITMAP
0410
0410
7fbf
0422
1552
1514
2e88
4e48
1514
64a3
0000
1484
1442
2409
43f8
0000
ENDCHAR
STARTCHAR 2c69
ENCODING 11369
SWIDTH 823 0
DWIDTH 16 0
BBX 16 16 0 -2
BITMAP
1020
13ff
1020
11fe
5000
59fe
5502
55fe
5048
13ff
1000
11fe
1102
1102
11fe
0000
ENDCHAR
STARTCHAR 2c6a
ENCODING 11370
SWIDTH 823 0
DWIDTH 16 0
BBX 16 16 0 -2
BITMAP
1554
1554
0a28
1144
3ffe
2082
2ffa
0108
0208
0408
1830
0100
1484
240a
43f9
0000
ENDCHAR
STARTCHAR 2c6b
ENCODING 11371
SWIDTH 823 0
DWIDTH 16 0
BBX 16 16 0 -2
BITMAP
1e20
0420
7f7e
1244
1ec4
1228
1e10
1210
7f28
0246
0100
1484
1442
2409
43f8
0000
ENDCHAR
STARTCHAR 2c6c
ENCODING 11372
SWIDTH 823 0
DWIDTH 16 0
BBX 16 16 0 -2
BITMAP
1020
1020
17ff
1050
528a
5904
57fe
5505
51fc
1104
11fc
1020
1124
1623
1060
0000
ENDCHAR
STARTCHAR 2c6d
ENCODING 11373
SWIDTH 823 0
DWIDTH 16 0
BBX 16 16 0 -2
BITMAP
0820
0bfe
7c20
09fc
0848
1bff
1c84
29fe
4a85
08fc
0884
08fc
2082
2449
43f8
0000
ENDCHAR
STARTCHAR 2c6e
ENCODING 11374
SWIDTH 823 0
DWIDTH 16 0
BBX 16 16 0 -2
BITMAP
3ffe
2888
2f8a
2009
2fff
2888
2f94
2894
4f94
48a2
09a1
0080
1444
240a
43f9
0000
ENDCHAR
STARTCHAR 2c6f
ENCODING 11375
SWIDTH 823 0
DWIDTH 16 0
BBX 16 16 0 -2
BITMAP
1400
14be
1702
1424
5498
5388
5d7f
5789
550a
1928
17ae
1128
12b8
1268
1447
0000
ENDCHAR
STARTCHAR 2c70
ENCODING 11376
SWIDTH 823 0
DWIDTH 16 0
BBX 16 16 0 -2
BITMAP
2542
2542
1582
3fff
1082
0912
3fca
040a
3fc2
0402
3fce
0080
1444
240a
43f9
0000
ENDCHAR
STARTCHAR 2c71
ENCODING 11377
SWIDTH 823 0
DWIDTH 16 0
BBX 16 16 0 -2
BITMAP
1048
1048
13ff
1048
51fe
5952
55fe
5400
53ff
1285
10fc
1084
10fc
1084
10fc
0000
ENDCHAR
STARTCHAR 2c72
ENCODING 11378
SWIDTH 823 0
DWIDTH 16 0
BBX 16 16 0 -2
BITMAP
0420
0424
3fa2
0422
0420
7fff
0020
0022
0022
0014
0014
0008
0019
0065
0382
0000
ENDCHAR
STARTCHAR 2c73
ENCODING 11379
SWIDTH 823 0
DWIDTH 16 0
BBX 16 16 0 -2
BITMAP
0428
2424
2422
2420
243f
3de0
0422
0412
7c14
2414
2408
2418
2425
4445
0582
0000
ENDCHAR
STARTCHAR 2c74
ENCODING 11380
SWIDTH 823 0
DWIDTH 16 0
BBX 16 16 0 -2
BITMAP
0094
3f12
4a52
3290
121f
2170
4092
1e12
0414
0414
7f08
0408
0a15
1125
60c2
0000
ENDCHAR
STARTCHAR 2c75
ENCODING 11381
SWIDTH 823 0
DWIDTH 16 0
BBX 16 16 0 -2
BITMAP
0014
7f92
2212
221f
5570
6e90
0012
7f92
0014
3f14
2108
3f08
2115
2125
3f42
0000
ENDCHAR
STARTCHAR 2c76
ENCODING 11382
SWIDTH 823 0
DWIDTH 16 0
BBX 16 16 0 -2
BITMAP
003e
3fc0
2000
3ffe
2002
3ffe
2080
2080
3fff
2144
2644
5c28
4410
078c
1c03
0000
ENDCHAR
STARTCHAR 2c77
ENCODING 11383
SWIDTH 823 0
DWIDTH 16 0
BBX 16 16 0 -2
BITMAP
0080
0080
0080
0080
0ff8
0080
0080
0080
00f8
0f80
0080
0080
0080
0080
0380
0000
ENDCHAR
STARTCHAR 2c78
ENCODING 11384
SWIDTH 823 0
DWIDTH 16 0
BBX 16 16 0 -2
BITMAP
0810
0810
0810
0810
7f10
0818
0814
0812
0f11
7810
0810
0810
0810
0810
3810
0000
ENDCHAR
STARTCHAR 2c79
ENCODING 11385
SWIDTH 823 0
DWIDTH 16 0
BBX 16 16 0 -2
BITMAP
1000
10f8
1008
1008
7c88
1088
1088
1088
1c88
7088
1104
1104
1204
1202
3401
0000
ENDCHAR
STARTCHAR 2c7a
ENCODING 11386
SWIDTH 823 0
DWIDTH 16 0
BBX 16 16 0 -2
BITMAP
1010
1090
1090
109e
7cb2
10d2
1392
1092
1c96
7090
1090
1080
1081
1081
307f
0000
ENDCHAR
STARTCHAR 2c7b
ENCODING 11387
SWIDTH 823 0
DWIDTH 16 0
BBX 16 16 0 -2
BITMAP
1000
17ff
1090
1090
7c90
1090
1090
1090
1c90
7090
1090
1110
1110
1211
340f
0000
ENDCHAR
STARTCHAR 2c7c
ENCODING 11388
SWIDTH 823 0
DWIDTH 16 0
BBX 16 16 0 -2
BITMAP
1100
1100
1100
11fe
7a02
1224
1428
1020
1820
7020
1050
1050
1088
1104
3603
0000
ENDCHAR
STARTCHAR 2c7d
ENCODING 11389
SWIDTH 823 0
DWIDTH 16 0
BBX 16 16 0 -2
BITMAP
1000
13fc
1044
1044
7c44
1044
1044
13ff
1c44
7044
1044
1044
1044
1044
33ff
0000
ENDCHAR
STARTCHAR 2c7e
ENCODING 11390
SWIDTH 823 0
DWIDTH 16 0
BBX 16 16 0 -2
BITMAP
1000
11ff
1100
1100
7d00
11fe
1142
1142
1d44
7124
1128
1210
1228
1444
3083
0000
ENDCHAR
STARTCHAR 2d21
ENCODING 11553
SWIDTH 823 0
DWIDTH 16 0
BBX 16 16 0 -2
BITMAP
101c
11e0
1020
1020
79fe
1020
1020
1020
1bff
7020
1020
1020
1020
1020
30e0
0000
ENDCHAR
STARTCHAR 2d22
ENCODING 11554
SWIDTH 823 0
DWIDTH 16 0
BBX 16 16 0 -2
BITMAP
1000
17ff
1020
1020
7bfe
1222
1222
1252
1a52
728a
128a
1202
1202
1202
320e
0000
ENDCHAR
STARTCHAR 2d23
ENCODING 11555
SWIDTH 823 0
DWIDTH 16 0
BBX 16 16 0 -2
BITMAP
1010
1010
1010
11ff
7d01
1101
1040
1042
1c4c
7070
1040
1040
1041
1041
303f
0000
ENDCHAR
STARTCHAR 2d24
ENCODING 11556
SWIDTH 823 0
DWIDTH 16 0
BBX 16 16 0 -2
BITMAP
0800
0f7e
1142
694e
0640
0441
183f
77f0
0080
1ffc
0080
7fff
0080
0080
0380
0000
ENDCHAR
STARTCHAR 2d25
ENCODING 11557
SWIDTH 823 0
DWIDTH 16 0
BBX 16 16 0 -2
BITMAP
1020
1020
13fe
1222
7a22
13fe
1222
1222
1bfe
7020
1024
1028
1011
1069
3386
0000
ENDCHAR
STARTCHAR 2d26
ENCODING 11558
SWIDTH 823 0
DWIDTH 16 0
BBX 16 16 0 -2
BITMAP
1000
13fe
1040
1048
7844
109e
13e2
1000
1820
7020
13fe
1020
1020
1020
37ff
0000
ENDCHAR
STARTCHAR 2d27
ENCODING 11559
SWIDTH 823 0
DWIDTH 16 0
BBX 16 16 0 -2
BITMAP
1010
1010
1010
11ff
7c44
1082
1101
1044
1c44
7028
1028
1010
1028
1044
3183
0000
ENDCHAR
STARTCHAR 2d28
ENCODING 11560
SWIDTH 823 0
DWIDTH 16 0
BBX 16 16 0 -2
BITMAP
0400
043f
7fa1
08a1
1121
3e21
05bf
1800
67f0
0080
1ffc
0080
7fff
0080
0380
0000
ENDCHAR
STARTCHAR 2d29
ENCODING 11561
SWIDTH 823 0
DWIDTH 16 0
BBX 16 16 0 -2
BITMAP
1020
1020
13fe
1020
79fc
1020
13fe
1040
1844
77ff
1084
1124
1614
1004
301c
0000
ENDCHAR
STARTCHAR 2d2a
ENCODING 11562
SWIDTH 823 0
DWIDTH 16 0
BBX 16 16 0 -2
BITMAP
1242
1122
1124
1008
7bff
1201
1221
1020
1bfe
7042
1042
1082
1082
1102
321c
0000
ENDCHAR
STARTCHAR 2d2b
ENCODING 11563
SWIDTH 823 0
DWIDTH 16 0
BBX 16 16 0 -2
BITMAP
1020
0ca4
4122
3221
0064
0418
19e0
6000
07e0
0080
1ffe
0080
7fff
0080
0380
0000
ENDCHAR
STARTCHAR 2d2c
ENCODING 11564
SWIDTH 823 0
DWIDTH 16 0
BBX 16 16 0 -2
BITMAP
1000
13fe
1020
11fc
7820
1020
17ff
1000
1888
7088
17ff
1088
1108
1108
3208
0000
ENDCHAR
STARTCHAR 2d2d
ENCODING 11565
SWIDTH 823 0
DWIDTH 16 0
BBX 16 16 0 -2
BITMAP
1006
1038
1708
1208
7a08
1448
174e
1148
1d48
7548
1248
12ff
1300
14c0
383f
0000
ENDCHAR
STARTCHAR 2d2e
ENCODING 11566
SWIDTH 823 0
DWIDTH 16 0
BBX 16 16 0 -2
BITMAP
101c
11e4
1122
1112
7e11
1221
1020
11ff
1c44
7044
1084
11e8
1038
1044
3182
0000
ENDCHAR
STARTCHAR 2d2f
ENCODING 11567
SWIDTH 823 0
DWIDTH 16 0
BBX 16 16 0 -2
BITMAP
1020
1120
1120
13fe
7a20
1420
1020
17ff
1820
7000
11fc
1104
1104
1104
31fc
0000
ENDCHAR
STARTCHAR 2d30
ENCODING 11568
SWIDTH 823 0
DWIDTH 16 0
BBX 16 16 0 -2
BITMAP
1024
1024
1022
17ff
7820
1222
1124
1128
1820
7030
10a8
1124
1622
1021
30e0
0000
ENDCHAR
STARTCHAR 2d31
ENCODING 11569
SWIDTH 823 0
DWIDTH 16 0
BBX 16 16 0 -2
BITMAP
1020
1124
1122
1222
7820
11fe
1102
1102
19fe
7102
1102
11fe
1102
1102
310e
0000
ENDCHAR
STARTCHAR 2d32
ENCODING 11570
SWIDTH 823 0
DWIDTH 16 0
BBX 16 16 0 -2
BITMAP
1038
13e0
1020
13ff
78a8
1124
1222
1401
19f8
7048
104e
1082
1082
1102
321c
0000
ENDCHAR
STARTCHAR 2d33
ENCODING 11571
SWIDTH 823 0
DWIDTH 16 0
BBX 16 16 0 -2
BITMAP
1040
1040
17fe
1040
7bfc
1244
1244
13fc
1a44
7244
13fc
1040
1fff
1040
3040
0000
ENDCHAR
STARTCHAR 2d34
ENCODING 11572
SWIDTH 823 0
DWIDTH 16 0
BBX 16 16 0 -2
BITMAP
1088
1088
17ff
1088
78ac
1022
13ff
1210
1a12
7212
120c
1408
1415
1865
3182
0000
ENDCHAR
STARTCHAR 2d35
ENCODING 11573
SWIDTH 823 0
DWIDTH 16 0
BBX 16 16 0 -2
BITMAP
1020
1020
1050
118c
7efb
1020
13fe
1222
1a22
73fe
1020
1050
1088
1104
3603
0000
ENDCHAR
STARTCHAR 2d36
ENCODING 11574
SWIDTH 823 0
DWIDTH 16 0
BBX 16 16 0 -2
BITMAP
1020
1020
13ff
1200
7a44
1244
12ff
1284
1ba4
7294
1294
1284
1284
1484
309c
0000
ENDCHAR
STARTCHAR 2d37
ENCODING 11575
SWIDTH 823 0
DWIDTH 16 0
BBX 16 16 0 -2
BITMAP
1020
1050
1088
1104
7a03
10f8
1000
13fe
1a92
7292
13fe
1292
1292
1292
3296
0000
ENDCHAR
STARTCHAR 2d38
ENCODING 11576
SWIDTH 823 0
DWIDTH 16 0
BBX 16 16 0 -2
BITMAP
101c
11e4
1122
1212
7bfe
1022
1022
17ff
1822
7022
13fe
1020
1020
1020
30e0
0000
ENDCHAR
STARTCHAR 2d39
ENCODING 11577
SWIDTH 823 0
DWIDTH 16 0
BBX 16 16 0 -2
BITMAP
1020
1020
13fe
1104
7884
1088
17ff
1002
19f2
7112
1112
1112
11f2
1002
300e
0000
ENDCHAR
STARTCHAR 2d3a
ENCODING 11578
SWIDTH 823 0
DWIDTH 16 0
BBX 16 16 0 -2
BITMAP
3f7e
2422
3e22
2214
3e08
2414
3f63
0000
0ff0
0080
1ffc
0080
7fff
0080
0380
0000
ENDCHAR
STARTCHAR 2d3b
ENCODING 11579
SWIDTH 823 0
DWIDTH 16 0
BBX 16 16 0 -2
BITMAP
1084
1044
1048
1010
7bff
1048
1048
1249
1a49
7249
13cf
1048
1048
1048
33ff
0000
ENDCHAR
STARTCHAR 2d3c
ENCODING 11580
SWIDTH 823 0
DWIDTH 16 0
BBX 16 16 0 -2
BITMAP
101c
13e0
1020
17ff
7820
10ae
1322
1222
1bae
7222
1222
13fe
1020
1020
3020
0000
ENDCHAR
STARTCHAR 2d3d
ENCODING 11581
SWIDTH 823 0
DWIDTH 16 0
BBX 16 16 0 -2
BITMAP
1100
1100
13fe
1252
7d92
10e2
1132
1244
1c84
7018
1040
1524
1502
1489
3878
0000
ENDCHAR
STARTCHAR 2d3e
ENCODING 11582
SWIDTH 823 0
DWIDTH 16 0
BBX 16 16 0 -2
BITMAP
1084
1084
13ff
1084
78fc
1084
10fc
1084
1fff
7248
1248
128f
1300
1200
33ff
0000
ENDCHAR
STARTCHAR 2d3f
ENCODING 11583
SWIDTH 823 0
DWIDTH 16 0
BBX 16 16 0 -2
BITMAP
1020
1050
1088
1104
7efb
1000
11fc
1104
1dfc
7000
1088
17ff
1088
1108
3208
0000
ENDCHAR
STARTCHAR 2d40
ENCODING 11584
SWIDTH 823 0
DWIDTH 16 0
BBX 16 16 0 -2
BITMAP
17ff
1400
14fc
1484
7cfc
1484
14fc
1420
1dfe
7448
14d8
1430
15ce
1400
37ff
0000
ENDCHAR
STARTCHAR 2d41
ENCODING 11585
SWIDTH 823 0
DWIDTH 16 0
BBX 16 16 0 -2
BITMAP
0e10
7851
0851
7e92
0890
1c28
1a44
2802
4ff1
0080
1ffc
0080
7fff
0080
0380
0000
ENDCHAR
STARTCHAR 2d42
ENCODING 11586
SWIDTH 823 0
DWIDTH 16 0
BBX 16 16 0 -2
BITMAP
1020
1020
13ff
1249
7a49
1088
1107
1200
1828
7024
17ff
1050
1088
1104
3603
0000
ENDCHAR
STARTCHAR 2d43
ENCODING 11587
SWIDTH 823 0
DWIDTH 16 0
BBX 16 16 0 -2
BITMAP
1124
1124
17ff
1124
7924
113c
1100
11fe
1820
77ff
10a8
1124
1222
1421
3020
0000
ENDCHAR
STARTCHAR 2d44
ENCODING 11588
SWIDTH 823 0
DWIDTH 16 0
BBX 16 16 0 -2
BITMAP
1020
1020
13ff
1241
7a45
1088
11fe
1310
1dfe
7110
1110
11fe
1110
1110
31ff
0000
ENDCHAR
STARTCHAR 2d45
ENCODING 11589
SWIDTH 823 0
DWIDTH 16 0
BBX 16 16 0 -2
BITMAP
1020
1020
17ff
1000
7dfc
1104
11fc
1000
1fff
7201
12f9
1289
1289
12f9
3203
0000
ENDCHAR
STARTCHAR 2d46
ENCODING 11590
SWIDTH 823 0
DWIDTH 16 0
BBX 16 16 0 -2
BITMAP
1408
1210
117e
1442
7a42
1142
107e
1740
197e
7142
1142
1142
117e
1280
3c7f
0000
ENDCHAR
STARTCHAR 2d47
ENCODING 11591
SWIDTH 823 0
DWIDTH 16 0
BBX 16 16 0 -2
BITMAP
1204
13c4
125f
1654
7954
1094
113f
1204
1c04
7020
17ff
10a8
1124
1623
3020
0000
ENDCHAR
STARTCHAR 2d48
ENCODING 11592
SWIDTH 823 0
DWIDTH 16 0
BBX 16 16 0 -2
BITMAP
101e
13e4
1242
1222
7c21
1401
10c0
139e
1a02
7202
13de
1202
1202
1202
33fe
0000
ENDCHAR
STARTCHAR 2d49
ENCODING 11593
SWIDTH 823 0
DWIDTH 16 0
BBX 16 16 0 -2
BITMAP
1222
1222
1124
13fe
7a02
12fa
1088
1088
18f8
7020
1020
11fc
1020
1020
37ff
0000
ENDCHAR
STARTCHAR 2d4a
ENCODING 11594
SWIDTH 823 0
DWIDTH 16 0
BBX 16 16 0 -2
BITMAP
1020
1020
13ff
1008
7d52
1132
11ca
1102
1dfe
7020
13ff
1241
1249
12f5
3203
0000
ENDCHAR
STARTCHAR 2d4b
ENCODING 11595
SWIDTH 823 0
DWIDTH 16 0
BBX 16 16 0 -2
BITMAP
1020
1020
17ff
1490
7ffe
1492
1492
17fe
1c00
7510
15d2
151c
1510
19d1
330f
0000
ENDCHAR
STARTCHAR 2d4c
ENCODING 11596
SWIDTH 823 0
DWIDTH 16 0
BBX 16 16 0 -2
BITMAP
1000
13ff
1200
127c
7e44
1244
127c
1200
1eee
72aa
12aa
12aa
12ee
1200
33ff
0000
ENDCHAR
STARTCHAR 2d4d
ENCODING 11597
SWIDTH 823 0
DWIDTH 16 0
BBX 16 16 0 -2
BITMAP
1000
13ff
1048
13ff
7a49
1249
13ff
1000
19fe
7000
13ff
1010
1094
1313
3070
0000
ENDCHAR
STARTCHAR 2d4e
ENCODING 11598
SWIDTH 823 0
DWIDTH 16 0
BBX 16 16 0 -2
BITMAP
1108
1548
152f
191a
7912
17ea
152a
152a
1d2a
77a4
1564
152a
152a
1531
3461
0000
ENDCHAR
STARTCHAR 2d4f
ENCODING 11599
SWIDTH 823 0
DWIDTH 16 0
BBX 16 16 0 -2
BITMAP
1222
1124
17ff
1401
7dfd
1104
11fc
1000
1dfc
7020
13fe
1020
17ff
1020
30e0
0000
ENDCHAR
STARTCHAR 2d50
ENCODING 11600
SWIDTH 823 0
DWIDTH 16 0
BBX 16 16 0 -2
BITMAP
101c
13e4
1242
1022
7bfc
1204
13fe
1202
1a02
73ff
1401
1415
194b
1221
320e
0000
ENDCHAR
STARTCHAR 2d51
ENCODING 11601
SWIDTH 823 0
DWIDTH 16 0
BBX 16 16 0 -2
BITMAP
101c
13e0
1040
17ff
7888
11fc
168b
10f8
1800
73fe
1202
12fa
128a
12fa
3206
0000
ENDCHAR
STARTCHAR 2d52
ENCODING 11602
SWIDTH 823 0
DWIDTH 16 0
BBX 16 16 0 -2
BITMAP
1222
1222
1124
17ff
7c01
15fd
1104
11fc
1800
73fe
1222
13fe
1222
1222
33fe
0000
ENDCHAR
STARTCHAR 2d53
ENCODING 11603
SWIDTH 823 0
DWIDTH 16 0
BBX 16 16 0 -2
BITMAP
1210
1210
17df
1524
7882
1020
17ff
1020
1924
7124
12aa
1252
1088
1104
3603
0000
ENDCHAR
STARTCHAR 2d54
ENCODING 11604
SWIDTH 823 0
DWIDTH 16 0
BBX 16 16 0 -2
BITMAP
1110
1120
13ff
1220
7ffe
1220
13fe
1220
1bff
7000
179e
1492
14f2
1402
340e
0000
ENDCHAR
STARTCHAR 2d55
ENCODING 11605
SWIDTH 823 0
DWIDTH 16 0
BBX 16 16 0 -2
BITMAP
1008
1788
14be
1480
7ca2
17a2
1414
147f
1f88
7488
14be
1488
1488
1788
3008
0000
ENDCHAR
STARTCHAR 2d56
ENCODING 11606
SWIDTH 823 0
DWIDTH 16 0
BBX 16 16 0 -2
BITMAP
1000
17df
1104
17df
7d55
1555
16db
1451
1c53
7020
17ff
10a8
1124
1623
3020
0000
ENDCHAR
STARTCHAR 2d57
ENCODING 11607
SWIDTH 823 0
DWIDTH 16 0
BBX 16 16 0 -2
BITMAP
1020
1040
11fc
1104
7dfc
1104
13fe
1222
1ffe
7222
13fe
1000
17ff
1104
3204
0000
ENDCHAR
STARTCHAR 2d58
ENCODING 11608
SWIDTH 823 0
DWIDTH 16 0
BBX 16 16 0 -2
BITMAP
3f20
243f
3f40
213e
3f00
247f
3f55
0055
0fff
0080
1ffc
0080
7fff
0080
0380
0000
ENDCHAR
STARTCHAR 2d59
ENCODING 11609
SWIDTH 823 0
DWIDTH 16 0
BBX 16 16 0 -2
BITMAP
1008
1208
127f
1122
7a14
127f
1149
107f
1b49
715d
1155
115d
1143
1280
347f
0000
ENDCHAR
STARTCHAR 2d5a
ENCODING 11610
SWIDTH 823 0
DWIDTH 16 0
BBX 16 16 0 -2
BITMAP
1040
107c
1040
17ff
7c41
15f8
1442
15fe
1d24
75fc
1524
15fc
1a22
1295
347d
0000
ENDCHAR
STARTCHAR 2d5b
ENCODING 11611
SWIDTH 823 0
DWIDTH 16 0
BBX 16 16 0 -2
BITMAP
10a0
1336
1222
1336
7a52
1252
17ff
1104
1afa
7421
11fc
1020
13fe
1020
30e0
0000
ENDCHAR
STARTCHAR 2d5c
ENCODING 11612
SWIDTH 823 0
DWIDTH 16 0
BBX 16 16 0 -2
BITMAP
2110
2110
2fff
2450
729e
2fe2
201e
27d0
345e
67d0
245e
27d0
245e
2451
64cf
0000
ENDCHAR
STARTCHAR 2d5d
ENCODING 11613
SWIDTH 823 0
DWIDTH 16 0
BBX 16 16 0 -2
BITMAP
17df
1451
17df
1451
7fdf
1421
15fd
1421
1dfd
75ad
1575
15fd
14a9
1525
3423
0000
ENDCHAR
STARTCHAR 2d5e
ENCODING 11614
SWIDTH 823 0
DWIDTH 16 0
BBX 16 16 0 -2
BITMAP
13de
1252
13de
1252
7bde
1252
13de
1154
1a22
7080
17ff
1104
1388
1078
3386
0000
ENDCHAR
STARTCHAR 2d5f
ENCODING 11615
SWIDTH 823 0
DWIDTH 16 0
BBX 16 16 0 -2
BITMAP
1252
1294
13df
16b4
7bde
1294
13de
1294
1bdf
7000
13fe
1104
10f8
10d8
3707
0000
ENDCHAR
STARTCHAR 2d60
ENCODING 11616
SWIDTH 823 0
DWIDTH 16 0
BBX 16 16 0 -2
BITMAP
0000
0000
0000
0000
0000
0000
0000
0000
0000
0000
0000
0000
0000
0000
0000
0000
ENDCHAR
STARTCHAR 2d60
ENCODING 11616
SWIDTH 823 0
DWIDTH 16 0
BBX 16 16 0 -2
BITMAP
1000
17fe
1492
17fe
7908
110a
121f
16b4
191e
72d4
1754
111e
1554
1554
311f
0000
ENDCHAR
STARTCHAR 2d61
ENCODING 11617
SWIDTH 823 0
DWIDTH 16 0
BBX 16 16 0 -2
BITMAP
0408
0408
7f7f
0a08
1108
207e
0022
7fa2
0122
3d14
2514
2508
3d14
0122
0741
0000
ENDCHAR
STARTCHAR 2d62
ENCODING 11618
SWIDTH 823 0
DWIDTH 16 0
BBX 16 16 0 -2
BITMAP
0040
7f40
0240
147f
1844
0884
7fc4
0944
0a28
1828
1810
2828
4844
0882
1901
0000
ENDCHAR
STARTCHAR 2d63
ENCODING 11619
SWIDTH 823 0
DWIDTH 16 0
BBX 16 16 0 -2
BITMAP
0010
3f10
0810
081f
3e22
1222
1222
1254
7f94
0008
3f08
2114
2114
2122
3f41
0000
ENDCHAR
STARTCHAR 2d64
ENCODING 11620
SWIDTH 823 0
DWIDTH 16 0
BBX 16 16 0 -2
BITMAP
0820
1020
3e20
223f
3e44
2244
3ec4
0824
7f28
1028
1e10
1210
2228
2444
4d83
0000
ENDCHAR
STARTCHAR 2d65
ENCODING 11621
SWIDTH 823 0
DWIDTH 16 0
BBX 16 16 0 -2
BITMAP
0008
7f88
400f
4f08
4908
497e
4f22
4022
5de2
5554
5554
5dc8
4014
7fa2
0041
0000
ENDCHAR
STARTCHAR 2d66
ENCODING 11622
SWIDTH 823 0
DWIDTH 16 0
BBX 16 16 0 -2
BITMAP
0010
3f90
2a90
3f9f
0422
3fc2
0422
7fd4
1114
7fc8
0408
3f94
0414
0422
0441
0000
ENDCHAR
STARTCHAR 2d67
ENCODING 11623
SWIDTH 823 0
DWIDTH 16 0
BBX 16 16 0 -2
BITMAP
0410
3f3f
0422
7fd4
1608
2514
44a3
3fff
2040
2ffe
2248
2554
48e2
4358
1c47
0000
ENDCHAR
STARTCHAR 2d68
ENCODING 11624
SWIDTH 823 0
DWIDTH 16 0
BBX 16 16 0 -2
BITMAP
0804
3184
2a87
3584
2a84
35bf
2a91
7ff1
4031
5faa
020a
07e4
7e04
020a
0e11
0000
ENDCHAR
STARTCHAR 2d69
ENCODING 11625
SWIDTH 823 0
DWIDTH 16 0
BBX 16 16 0 -2
BITMAP
0080
3ffe
0210
01e0
0738
7807
0000
7fff
0410
07f0
0410
07f0
041f
7ff0
0010
0000
ENDCHAR
STARTCHAR 2d6a
ENCODING 11626
SWIDTH 823 0
DWIDTH 16 0
BBX 16 16 0 -2
BITMAP
1806
63b8
4aa0
4aa0
7ba0
0a3f
0a24
7ba4
40a4
40a4
7ba4
0a24
0a24
0f44
7804
0000
ENDCHAR
STARTCHAR 2d6b
ENCODING 11627
SWIDTH 823 0
DWIDTH 16 0
BBX 16 16 0 -2
BITMAP
0806
37b8
22a0
2aa0
3ca0
61bf
0024
7fa4
0a24
3ba4
20a4
23a4
3a24
0bc4
7c04
0000
ENDCHAR
STARTCHAR 2d6c
ENCODING 11628
SWIDTH 823 0
DWIDTH 16 0
BBX 16 16 0 -2
BITMAP
3fc6
2058
3fd0
2210
3bd0
221f
3fd2
2952
3fd2
2812
5fd2
7552
5f52
0562
1ec2
0000
ENDCHAR
STARTCHAR 2d6d
ENCODING 11629
SWIDTH 823 0
DWIDTH 16 0
BBX 16 16 0 -2
BITMAP
0840
0840
0840
7eff
1080
1100
107e
1e02
1204
1208
12ff
1208
2208
2208
4c38
0000
ENDCHAR
STARTCHAR 2d6e
ENCODING 11630
SWIDTH 823 0
DWIDTH 16 0
BBX 16 16 0 -2
BITMAP
0820
0820
0820
7f7f
1040
1086
1e38
1220
1220
123f
1224
1244
2244
2284
4c04
0000
ENDCHAR
STARTCHAR 2d6f
ENCODING 11631
SWIDTH 823 0
DWIDTH 16 0
BBX 16 16 0 -2
BITMAP
0084
7fff
0080
1ffc
1084
1ffc
1084
1ffc
1084
0080
7fff
0100
03fc
0c04
3038
0000
ENDCHAR
STARTCHAR 2d70
ENCODING 11632
SWIDTH 823 0
DWIDTH 16 0
BBX 16 16 0 -2
BITMAP
0808
0808
0bbe
7c8a
117f
110a
1e0a
17be
1488
16be
1688
157f
2508
2688
4c7f
0000
ENDCHAR
STARTCHAR 2d71
ENCODING 11633
SWIDTH 823 0
DWIDTH 16 0
BBX 16 16 0 -2
BITMAP
0080
0080
00fc
0080
0080
0080
7fff
0000
0ff8
0808
0808
0ff8
0808
0808
0ff8
0000
ENDCHAR
STARTCHAR 2d72
ENCODING 11634
SWIDTH 823 0
DWIDTH 16 0
BBX 16 16 0 -2
BITMAP
0000
0ff8
0808
0ff8
0808
0808
0ff8
0000
0080
0080
7fff
0140
0220
0c18
7007
0000
ENDCHAR
STARTCHAR 2d73
ENCODING 11635
SWIDTH 823 0
DWIDTH 16 0
BBX 16 16 0 -2
BITMAP
0080
1084
1084
1ffc
0080
0080
7fff
0000
0ff8
0808
0808
0ff8
0808
0808
0ff8
0000
ENDCHAR
STARTCHAR 2d74
ENCODING 11636
SWIDTH 823 0
DWIDTH 16 0
BBX 16 16 0 -2
BITMAP
0020
0020
7820
4fff
4904
4904
4904
7888
4888
4850
4820
4850
7888
0104
0603
0000
ENDCHAR
STARTCHAR 2d75
ENCODING 11637
SWIDTH 823 0
DWIDTH 16 0
BBX 16 16 0 -2
BITMAP
0000
01fe
7900
4900
4900
49fc
4944
7944
4944
4928
4928
4a10
7a28
0444
0083
0000
ENDCHAR
STARTCHAR 2d76
ENCODING 11638
SWIDTH 823 0
DWIDTH 16 0
BBX 16 16 0 -2
BITMAP
000e
01f0
7900
4900
49ff
4901
4901
7901
49ff
4900
4900
4900
7a00
0200
0400
0000
ENDCHAR
STARTCHAR 2d77
ENCODING 11639
SWIDTH 823 0
DWIDTH 16 0
BBX 16 16 0 -2
BITMAP
0020
0020
7c20
47ff
4440
4440
4488
7c88
4710
44d0
4420
4424
7c46
0079
0381
0000
ENDCHAR
STARTCHAR 2d78
ENCODING 11640
SWIDTH 823 0
DWIDTH 16 0
BBX 16 16 0 -2
BITMAP
0000
1ffc
1004
1ffc
1004
1ffc
0200
0210
0438
3fc6
0210
7fff
0410
0810
1010
0000
ENDCHAR
STARTCHAR 2d79
ENCODING 11641
SWIDTH 823 0
DWIDTH 16 0
BBX 16 16 0 -2
BITMAP
0000
03fe
7800
4800
49fc
4904
4904
79fc
4904
4904
4904
49fc
7800
0000
07ff
0000
ENDCHAR
STARTCHAR 2d7a
ENCODING 11642
SWIDTH 823 0
DWIDTH 16 0
BBX 16 16 0 -2
BITMAP
0000
1ffc
1004
1ffc
1004
1ffc
0200
0400
3ffe
2002
23e2
2222
2222
23e2
200e
0000
ENDCHAR
STARTCHAR 2d7b
ENCODING 11643
SWIDTH 823 0
DWIDTH 16 0
BBX 16 16 0 -2
BITMAP
0088
0088
7888
4888
4bfe
4888
4888
7888
4888
4fff
4800
4888
7904
0202
0401
0000
ENDCHAR
STARTCHAR 2d7c
ENCODING 11644
SWIDTH 823 0
DWIDTH 16 0
BBX 16 16 0 -2
BITMAP
0080
0080
3ffe
0080
1ffc
0140
7fff
0220
0410
1cfc
6487
04fc
0484
0484
04fc
0000
ENDCHAR
STARTCHAR 2d7d
ENCODING 11645
SWIDTH 823 0
DWIDTH 16 0
BBX 16 16 0 -2
BITMAP
0888
0488
0490
1ffc
0140
0140
7fff
0220
0410
1cfc
6487
04fc
0484
0484
04fc
0000
ENDCHAR
STARTCHAR 2d7e
ENCODING 11646
SWIDTH 823 0
DWIDTH 16 0
BBX 16 16 0 -2
BITMAP
0020
0050
7888
4904
4efb
4800
49fc
7808
4810
4820
49fc
4904
7904
0104
01fc
0000
ENDCHAR
STARTCHAR 2e21
ENCODING 11809
SWIDTH 823 0
DWIDTH 16 0
BBX 16 16 0 -2
BITMAP
0000
01fc
7904
49fc
4904
4904
49fc
7904
4904
49fc
4850
4850
7891
0111
060f
0000
ENDCHAR
STARTCHAR 2e22
ENCODING 11810
SWIDTH 823 0
DWIDTH 16 0
BBX 16 16 0 -2
BITMAP
0106
0138
7920
4920
4fe0
493f
4924
7924
49e4
4f24
4924
4944
7944
0184
0304
0000
ENDCHAR
STARTCHAR 2e23
ENCODING 11811
SWIDTH 823 0
DWIDTH 16 0
BBX 16 16 0 -2
BITMAP
0000
1ff8
1008
1ff8
1008
1ff8
0000
7c7e
4442
447e
7c42
447e
4442
7c82
010e
0000
ENDCHAR
STARTCHAR 2e24
ENCODING 11812
SWIDTH 823 0
DWIDTH 16 0
BBX 16 16 0 -2
BITMAP
0800
0f3e
0922
1122
2222
7fa2
24be
24a2
24a2
3fa2
0a22
0a3e
1200
2201
41ff
0000
ENDCHAR
STARTCHAR 2e25
ENCODING 11813
SWIDTH 823 0
DWIDTH 16 0
BBX 16 16 0 -2
BITMAP
0090
0090
7890
4bfe
4a92
4a92
4bfe
7a92
4a92
4a92
4fff
4800
7888
0104
0202
0000
ENDCHAR
STARTCHAR 2e26
ENCODING 11814
SWIDTH 823 0
DWIDTH 16 0
BBX 16 16 0 -2
BITMAP
0040
0040
787e
4840
4bfc
4a04
4a04
7bfc
4a04
4a04
4bfc
4840
7fff
0040
0040
0000
ENDCHAR
STARTCHAR 2e27
ENCODING 11815
SWIDTH 823 0
DWIDTH 16 0
BBX 16 16 0 -2
BITMAP
0020
0020
7bfe
4800
4904
4904
498c
7a52
4c01
4820
4fff
4820
7820
0020
0020
0000
ENDCHAR
STARTCHAR 2e28
ENCODING 11816
SWIDTH 823 0
DWIDTH 16 0
BBX 16 16 0 -2
BITMAP
0000
03fe
7a02
4a22
4afa
4a22
4afa
7a22
4a02
4afa
4a8a
4a8a
7afa
0402
040e
0000
ENDCHAR
STARTCHAR 2e29
ENCODING 11817
SWIDTH 823 0
DWIDTH 16 0
BBX 16 16 0 -2
BITMAP
0020
0020
7bff
4888
4924
4bfe
4d25
7924
49fc
4924
4924
49fc
7821
0021
001f
0000
ENDCHAR
STARTCHAR 2e2a
ENCODING 11818
SWIDTH 823 0
DWIDTH 16 0
BBX 16 16 0 -2
BITMAP
0088
0088
7908
4a7f
4c88
4888
4988
7908
4b3e
4d08
4908
4908
7908
0108
017f
0000
ENDCHAR
STARTCHAR 2e2b
ENCODING 11819
SWIDTH 823 0
DWIDTH 16 0
BBX 16 16 0 -2
BITMAP
0040
01fc
7884
4bff
4800
49fc
4904
79fc
4808
49fe
4908
4908
7fff
0008
0008
0000
ENDCHAR
STARTCHAR 2e2c
ENCODING 11820
SWIDTH 823 0
DWIDTH 16 0
BBX 16 16 0 -2
BITMAP
0000
01fc
7904
49fc
4904
4904
49fc
7920
49fe
4a20
4c20
49fc
7820
0020
07ff
0000
ENDCHAR
STARTCHAR 2e2d
ENCODING 11821
SWIDTH 823 0
DWIDTH 16 0
BBX 16 16 0 -2
BITMAP
0020
0020
7bfe
4820
49fc
4850
4fff
7888
49fc
4b06
4d05
49fc
7904
0104
01fc
0000
ENDCHAR
STARTCHAR 2e2e
ENCODING 11822
SWIDTH 823 0
DWIDTH 16 0
BBX 16 16 0 -2
BITMAP
0000
1ffc
1004
1ffc
1004
1ffc
0810
1122
0a14
0408
0b16
3cf9
1004
2222
4111
0000
ENDCHAR
STARTCHAR 2e2f
ENCODING 11823
SWIDTH 823 0
DWIDTH 16 0
BBX 16 16 0 -2
BITMAP
0020
0040
79fc
4904
49fc
4904
49fc
7800
4bae
4820
4bae
4820
7bfe
0020
0020
0000
ENDCHAR
STARTCHAR 2e30
ENCODING 11824
SWIDTH 823 0
DWIDTH 16 0
BBX 16 16 0 -2
BITMAP
0000
03ff
7a00
4a44
4afe
4a44
4a20
7bff
4a40
4afe
4b42
4a42
7a7e
0200
03ff
0000
ENDCHAR
STARTCHAR 2e31
ENCODING 11825
SWIDTH 823 0
DWIDTH 16 0
BBX 16 16 0 -2
BITMAP
0088
07ff
7888
48f8
4820
4bfe
4a22
7bfe
4820
4bfe
4820
4fff
7850
018c
0603
0000
ENDCHAR
STARTCHAR 2e32
ENCODING 11826
SWIDTH 823 0
DWIDTH 16 0
BBX 16 16 0 -2
BITMAP
0108
0108
7fe8
490f
4a5a
4fb2
482a
7bca
4a4a
4bc4
4a44
4bc4
7a4a
024a
02d1
0000
ENDCHAR
STARTCHAR 2e33
ENCODING 11827
SWIDTH 823 0
DWIDTH 16 0
BBX 16 16 0 -2
BITMAP
0020
03fe
7820
49fc
4800
49fc
4904
79fc
4888
4fff
4800
49fc
7904
0104
01fc
0000
ENDCHAR
STARTCHAR 2e34
ENCODING 11828
SWIDTH 823 0
DWIDTH 16 0
BBX 16 16 0 -2
BITMAP
0000
7f7f
0808
1212
7d7d
0909
3e3e
0808
7f7f
0000
0ffc
0804
0ffc
0804
0ffc
0000
ENDCHAR
STARTCHAR 2e35
ENCODING 11829
SWIDTH 823 0
DWIDTH 16 0
BBX 16 16 0 -2
BITMAP
0000
07df
7000
57df
5555
5020
57ff
7490
57fe
5492
57fe
5510
75de
0911
03cf
0000
ENDCHAR
STARTCHAR 2e36
ENCODING 11830
SWIDTH 823 0
DWIDTH 16 0
BBX 16 16 0 -2
BITMAP
0000
1ffc
1004
1ffc
1004
1ffc
0000
1ffc
0030
00c0
7fff
0080
0080
0080
0380
0000
ENDCHAR
STARTCHAR 2e37
ENCODING 11831
SWIDTH 823 0
DWIDTH 16 0
BBX 16 16 0 -2
BITMAP
0408
3e7e
2448
2448
7efe
0810
1529
2529
4347
1ffc
1004
1ffc
1004
1004
1ffc
0000
ENDCHAR
STARTCHAR 2e38
ENCODING 11832
SWIDTH 823 0
DWIDTH 16 0
BBX 16 16 0 -2
BITMAP
0800
08fe
0882
7efe
0882
0882
08fe
7e40
10ff
1111
1691
14a9
2ec5
72f9
0006
0000
ENDCHAR
STARTCHAR 2e39
ENCODING 11833
SWIDTH 823 0
DWIDTH 16 0
BBX 16 16 0 -2
BITMAP
0010
3c10
25ff
2511
2511
3d29
2529
2555
2511
3d11
2529
2529
2545
4501
4d03
0000
ENDCHAR
STARTCHAR 2e3a
ENCODING 11834
SWIDTH 823 0
DWIDTH 16 0
BBX 16 16 0 -2
BITMAP
0000
3ffe
2440
25fc
2484
3c84
27ff
2420
2420
3fff
2444
2488
25f0
4428
4dc4
0000
ENDCHAR
STARTCHAR 2e3b
ENCODING 11835
SWIDTH 823 0
DWIDTH 16 0
BBX 16 16 0 -2
BITMAP
0000
003e
7fa2
4aa2
4aa2
4abe
52a2
61a2
40a2
5ebe
52a2
52a2
7fc2
0042
008e
0000
ENDCHAR
STARTCHAR 2e3c
ENCODING 11836
SWIDTH 823 0
DWIDTH 16 0
BBX 16 16 0 -2
BITMAP
1000
11fe
1040
7c40
13ff
1080
3880
3480
31fe
5102
1002
1002
1004
1004
1038
0000
ENDCHAR
STARTCHAR 2e3d
ENCODING 11837
SWIDTH 823 0
DWIDTH 16 0
BBX 16 16 0 -2
BITMAP
1040
1040
1040
7c40
13f8
1048
3848
3548
3548
50c8
1048
10a8
1089
1109
1207
0000
ENDCHAR
STARTCHAR 2e3e
ENCODING 11838
SWIDTH 823 0
DWIDTH 16 0
BBX 16 16 0 -2
BITMAP
0800
09ff
0848
7e48
0848
0848
1848
1c48
1a48
2848
2848
4848
0889
0889
0907
0000
ENDCHAR
STARTCHAR 2e3f
ENCODING 11839
SWIDTH 823 0
DWIDTH 16 0
BBX 16 16 0 -2
BITMAP
0800
08fe
0804
7e08
0810
0810
1810
1dff
1a10
2810
2810
4810
0810
0810
0870
0000
ENDCHAR
STARTCHAR 2e40
ENCODING 11840
SWIDTH 823 0
DWIDTH 16 0
BBX 16 16 0 -2
BITMAP
081c
08e0
0820
7e20
0820
0820
183e
1de0
1a20
2820
2820
4820
0821
0821
081f
0000
ENDCHAR
STARTCHAR 2e41
ENCODING 11841
SWIDTH 823 0
DWIDTH 16 0
BBX 16 16 0 -2
BITMAP
1020
1020
1120
7d20
112e
1172
39a2
3722
3122
5126
1120
1100
1101
1101
10ff
0000
ENDCHAR
STARTCHAR 2e42
ENCODING 11842
SWIDTH 823 0
DWIDTH 16 0
BBX 16 16 0 -2
BITMAP
0820
0820
0820
7e7f
0841
0881
1d01
1ac2
1822
2814
2808
4810
0820
08c0
0b00
0000
ENDCHAR
STARTCHAR 2e43
ENCODING 11843
SWIDTH 823 0
DWIDTH 16 0
BBX 16 16 0 -2
BITMAP
1088
1088
1104
7d04
1202
1289
3888
3488
3050
5050
5020
1020
1050
118c
1603
0000
ENDCHAR
STARTCHAR 2e44
ENCODING 11844
SWIDTH 823 0
DWIDTH 16 0
BBX 16 16 0 -2
BITMAP
1020
1020
1020
7fff
1020
1020
3924
3524
3524
5124
1225
1225
1423
1020
1020
0000
ENDCHAR
STARTCHAR 2e45
ENCODING 11845
SWIDTH 823 0
DWIDTH 16 0
BBX 16 16 0 -2
BITMAP
0840
0840
0840
7e7f
0891
0892
1914
1c10
1a28
2828
2828
4844
0844
0882
0901
0000
ENDCHAR
STARTCHAR 2e46
ENCODING 11846
SWIDTH 823 0
DWIDTH 16 0
BBX 16 16 0 -2
BITMAP
1020
1020
103c
7de0
1020
1020
3924
3524
3524
5124
51fc
1020
1021
1021
101f
0000
ENDCHAR
STARTCHAR 2e47
ENCODING 11847
SWIDTH 823 0
DWIDTH 16 0
BBX 16 16 0 -2
BITMAP
0806
08f8
0888
7e88
0888
0888
18ff
1c88
1a88
2888
2888
4884
0885
08e5
0b82
0000
ENDCHAR
STARTCHAR 2e48
ENCODING 11848
SWIDTH 823 0
DWIDTH 16 0
BBX 16 16 0 -2
BITMAP
1000
11fe
1088
7c88
1088
1088
3bff
3428
3428
5048
5088
1108
1608
1008
1038
0000
ENDCHAR
STARTCHAR 2e49
ENCODING 11849
SWIDTH 823 0
DWIDTH 16 0
BBX 16 16 0 -2
BITMAP
0810
0810
0810
7eff
0810
0810
2a54
2a54
2a54
2a54
4a95
4a95
4913
0a10
0810
0000
ENDCHAR
STARTCHAR 2e4a
ENCODING 11850
SWIDTH 823 0
DWIDTH 16 0
BBX 16 16 0 -2
BITMAP
0410
0410
7fff
0410
3ffe
2002
2082
0080
7fff
02a0
0490
188c
6083
0080
0080
0000
ENDCHAR
STARTCHAR 2e4b
ENCODING 11851
SWIDTH 823 0
DWIDTH 16 0
BBX 16 16 0 -2
BITMAP
11c0
1030
1000
7c00
11e0
1020
3822
37b4
34b8
50a8
5128
1124
1222
1421
10e0
0000
ENDCHAR
STARTCHAR 2e4c
ENCODING 11852
SWIDTH 823 0
DWIDTH 16 0
BBX 16 16 0 -2
BITMAP
0800
08fe
0810
7e54
0854
0892
1c92
1a10
19ff
2810
2810
4810
0810
0810
0810
0000
ENDCHAR
STARTCHAR 2e4d
ENCODING 11853
SWIDTH 823 0
DWIDTH 16 0
BBX 16 16 0 -2
BITMAP
0100
0210
0478
3f84
0002
0ff8
0808
0808
0ff8
0080
7fff
02a0
0c98
7087
0080
0000
ENDCHAR
STARTCHAR 2e4e
ENCODING 11854
SWIDTH 823 0
DWIDTH 16 0
BBX 16 16 0 -2
BITMAP
0810
0828
0844
7e82
097d
0800
1c00
1afe
1822
2822
2822
4822
0826
0820
0820
0000
ENDCHAR
STARTCHAR 2e4f
ENCODING 11855
SWIDTH 823 0
DWIDTH 16 0
BBX 16 16 0 -2
BITMAP
0810
0854
0854
7e92
0810
08fe
1c10
1a10
1810
29ff
2810
4810
0810
0810
0810
0000
ENDCHAR
STARTCHAR 2e50
ENCODING 11856
SWIDTH 823 0
DWIDTH 16 0
BBX 16 16 0 -2
BITMAP
1040
0840
444e
21f0
1040
0040
0440
183e
6000
0080
7fff
02a0
0c98
7087
0080
0000
ENDCHAR
STARTCHAR 2e51
ENCODING 11857
SWIDTH 823 0
DWIDTH 16 0
BBX 16 16 0 -2
BITMAP
0800
09ff
0911
7f11
0911
09ff
1d11
1b11
1911
29ff
2810
4810
0810
0810
0810
0000
ENDCHAR
STARTCHAR 2e52
ENCODING 11858
SWIDTH 823 0
DWIDTH 16 0
BBX 16 16 0 -2
BITMAP
0810
0810
0810
7fff
0911
0911
1911
1dff
1b11
2911
2911
49ff
0810
0810
0810
0000
ENDCHAR
STARTCHAR 2e53
ENCODING 11859
SWIDTH 823 0
DWIDTH 16 0
BBX 16 16 0 -2
BITMAP
0080
0080
7fff
02a0
0490
188c
67f3
0000
0000
3fff
0080
0490
188c
6083
0380
0000
ENDCHAR
STARTCHAR 2e54
ENCODING 11860
SWIDTH 823 0
DWIDTH 16 0
BBX 16 16 0 -2
BITMAP
0800
09fc
0904
7f04
0904
0904
1904
1dfc
1a90
2890
2890
4890
0911
0911
0a0f
0000
ENDCHAR
STARTCHAR 2e55
ENCODING 11861
SWIDTH 823 0
DWIDTH 16 0
BBX 16 16 0 -2
BITMAP
0840
0840
0840
7fff
0840
0848
1988
1d08
1b3e
2b08
2d08
4908
0908
0908
097f
0000
ENDCHAR
STARTCHAR 2e56
ENCODING 11862
SWIDTH 823 0
DWIDTH 16 0
BBX 16 16 0 -2
BITMAP
0810
0810
09ff
7f01
0901
08fe
1c04
1a18
1a10
29ff
2810
4810
0810
0810
0830
0000
ENDCHAR
STARTCHAR 2e57
ENCODING 11863
SWIDTH 823 0
DWIDTH 16 0
BBX 16 16 0 -2
BITMAP
1020
1020
13ff
7e01
1209
1008
3bff
3408
3408
5108
5088
1048
1008
1008
1038
0000
ENDCHAR
STARTCHAR 2e58
ENCODING 11864
SWIDTH 823 0
DWIDTH 16 0
BBX 16 16 0 -2
BITMAP
0820
083e
0842
7ea2
0814
0818
19f0
1c08
1a0f
2831
28d1
480a
0804
0818
09e0
0000
ENDCHAR
STARTCHAR 2e59
ENCODING 11865
SWIDTH 823 0
DWIDTH 16 0
BBX 16 16 0 -2
BITMAP
0882
0842
0844
7eff
0844
0844
1c44
1a44
19ff
2844
2844
4844
0884
0884
0904
0000
ENDCHAR
STARTCHAR 2e5a
ENCODING 11866
SWIDTH 823 0
DWIDTH 16 0
BBX 16 16 0 -2
BITMAP
0800
09ff
0810
7e20
09ff
0929
1929
1d29
1b29
2929
2929
4929
0929
0929
092b
0000
ENDCHAR
STARTCHAR 2e5b
ENCODING 11867
SWIDTH 823 0
DWIDTH 16 0
BBX 16 16 0 -2
BITMAP
0822
0822
09fc
7e24
0824
0828
1bff
1c20
1a40
28fe
2b10
4810
0810
0810
0870
0000
ENDCHAR
STARTCHAR 2e5c
ENCODING 11868
SWIDTH 823 0
DWIDTH 16 0
BBX 16 16 0 -2
BITMAP
0822
0822
09fc
7e24
0824
0828
1dff
1a10
1820
28c6
2b78
4840
0841
0841
083f
0000
ENDCHAR
STARTCHAR 2e5d
ENCODING 11869
SWIDTH 823 0
DWIDTH 16 0
BBX 16 16 0 -2
BITMAP
0808
080a
0809
7e09
09ff
0808
1808
1de8
1a88
2888
2888
48e4
0b85
0805
0802
0000
ENDCHAR
STARTCHAR 2e5e
ENCODING 11870
SWIDTH 823 0
DWIDTH 16 0
BBX 16 16 0 -2
BITMAP
0080
0080
7fff
0220
1224
2222
4421
08a0
0080
7fff
02a0
0490
188c
6083
0080
0000
ENDCHAR
STARTCHAR 2e5f
ENCODING 11871
SWIDTH 823 0
DWIDTH 16 0
BBX 16 16 0 -2
BITMAP
0820
0922
0922
7ea4
08a8
0820
1c20
1bff
1848
2848
2848
4848
0889
0889
0907
0000
ENDCHAR
STARTCHAR 2e60
ENCODING 11872
SWIDTH 823 0
DWIDTH 16 0
BBX 16 16 0 -2
BITMAP
0840
087c
0884
7d08
0bff
0900
1d00
1b7c
1944
2944
2944
494c
0941
0a41
083f
0000
ENDCHAR
STARTCHAR 2e61
ENCODING 11873
SWIDTH 823 0
DWIDTH 16 0
BBX 16 16 0 -2
BITMAP
0820
0820
09fe
7f02
0922
0820
1c20
1bff
1a44
2844
2888
49c8
0830
084c
0982
0000
ENDCHAR
STARTCHAR 2e62
ENCODING 11874
SWIDTH 823 0
DWIDTH 16 0
BBX 16 16 0 -2
BITMAP
0080
0080
00fe
0080
0ffc
0804
0ffc
0804
0ffc
0080
7fff
02a0
0c98
7087
0080
0000
ENDCHAR
STARTCHAR 2e63
ENCODING 11875
SWIDTH 823 0
DWIDTH 16 0
BBX 16 16 0 -2
BITMAP
0820
0820
0840
7f8e
0902
0902
1d02
1b02
19ce
2902
2902
4902
0902
0902
09fe
0000
ENDCHAR
STARTCHAR 2e64
ENCODING 11876
SWIDTH 823 0
DWIDTH 16 0
BBX 16 16 0 -2
BITMAP
0800
09fc
0824
7e27
0821
0841
1c81
1b2e
1820
2bff
28a8
48a4
0922
0a21
0820
0000
ENDCHAR
STARTCHAR 2e65
ENCODING 11877
SWIDTH 823 0
DWIDTH 16 0
BBX 16 16 0 -2
BITMAP
0800
08fe
0892
7e92
08fe
0892
1c92
1afe
1810
29ff
2821
4821
0841
0881
090e
0000
ENDCHAR
STARTCHAR 2e66
ENCODING 11878
SWIDTH 823 0
DWIDTH 16 0
BBX 16 16 0 -2
BITMAP
0808
0908
0888
7e2a
082a
0849
1d49
1a88
180a
281a
2884
4884
0908
0910
0a60
0000
ENDCHAR
STARTCHAR 2e67
ENCODING 11879
SWIDTH 823 0
DWIDTH 16 0
BBX 16 16 0 -2
BITMAP
0800
09ff
0810
7e30
0858
0894
1913
1c10
1a10
28fe
2882
4882
0882
0882
08fe
0000
ENDCHAR
STARTCHAR 2e68
ENCODING 11880
SWIDTH 823 0
DWIDTH 16 0
BBX 16 16 0 -2
BITMAP
0800
09ff
0828
7e28
0828
09ef
1d29
1b29
1929
2929
29ef
4828
0848
0848
0888
0000
ENDCHAR
STARTCHAR 2e69
ENCODING 11881
SWIDTH 823 0
DWIDTH 16 0
BBX 16 16 0 -2
BITMAP
0080
0080
3ffe
02a0
0c98
3086
0140
0638
7887
1088
0890
02e0
0c98
3086
0380
0000
ENDCHAR
STARTCHAR 2e6a
ENCODING 11882
SWIDTH 823 0
DWIDTH 16 0
BBX 16 16 0 -2
BITMAP
1024
1022
1022
7dff
1020
1122
38a4
34a8
3020
5030
50b0
1128
1624
1023
1060
0000
ENDCHAR
STARTCHAR 2e6b
ENCODING 11883
SWIDTH 823 0
DWIDTH 16 0
BBX 16 16 0 -2
BITMAP
1110
1110
1112
7ddc
1110
1110
3911
35cf
3720
5020
51fc
1020
1020
1020
17ff
0000
ENDCHAR
STARTCHAR 2e6c
ENCODING 11884
SWIDTH 823 0
DWIDTH 16 0
BBX 16 16 0 -2
BITMAP
0800
08fe
0882
7e82
08fe
0882
1c82
1afe
1882
2882
2882
48fe
0840
0884
0b03
0000
ENDCHAR
STARTCHAR 2e6d
ENCODING 11885
SWIDTH 823 0
DWIDTH 16 0
BBX 16 16 0 -2
BITMAP
1001
13e1
1229
7e29
1229
13e9
3909
3509
35e9
5129
5129
1121
1221
1221
14c7
0000
ENDCHAR
STARTCHAR 2e6e
ENCODING 11886
SWIDTH 823 0
DWIDTH 16 0
BBX 16 16 0 -2
BITMAP
1000
11fe
1102
7dfe
1102
1102
39fe
3502
3102
51fe
5048
1048
1089
1109
1207
0000
ENDCHAR
STARTCHAR 2e6f
ENCODING 11887
SWIDTH 823 0
DWIDTH 16 0
BBX 16 16 0 -2
BITMAP
0810
0810
08fe
7e92
0892
0892
1cfe
1a10
1bff
2911
2911
4911
09ff
0810
0810
0000
ENDCHAR
STARTCHAR 2e70
ENCODING 11888
SWIDTH 823 0
DWIDTH 16 0
BBX 16 16 0 -2
BITMAP
0840
0840
0878
7e88
0910
09fe
1922
1d22
1b22
29fe
2850
4850
0891
0911
0a0f
0000
ENDCHAR
STARTCHAR 2e71
ENCODING 11889
SWIDTH 823 0
DWIDTH 16 0
BBX 16 16 0 -2
BITMAP
0820
0820
0bff
7c20
0924
0924
1924
1eaa
1aaa
2821
2850
4850
0888
0904
0e03
0000
ENDCHAR
STARTCHAR 2e72
ENCODING 11890
SWIDTH 823 0
DWIDTH 16 0
BBX 16 16 0 -2
BITMAP
0800
09ff
0800
7e00
08fe
0882
1882
1c82
1afe
2800
2884
4844
0848
0808
09ff
0000
ENDCHAR
STARTCHAR 2e73
ENCODING 11891
SWIDTH 823 0
DWIDTH 16 0
BBX 16 16 0 -2
BITMAP
0800
08fc
0804
7eff
0804
08fc
1800
1dff
1a01
2afd
2844
4844
0838
086c
0983
0000
ENDCHAR
STARTCHAR 2e74
ENCODING 11892
SWIDTH 823 0
DWIDTH 16 0
BBX 16 16 0 -2
BITMAP
1006
1038
1788
7908
1208
122e
37a8
38a8
32a8
52a8
52a8
117f
1100
12c0
143f
0000
ENDCHAR
STARTCHAR 2e75
ENCODING 11893
SWIDTH 823 0
DWIDTH 16 0
BBX 16 16 0 -2
BITMAP
1094
1094
11ff
7d15
1315
137f
3554
3954
357f
5115
5115
1115
1125
1126
1144
0000
ENDCHAR
STARTCHAR 2e76
ENCODING 11894
SWIDTH 823 0
DWIDTH 16 0
BBX 16 16 0 -2
BITMAP
0410
7fff
0410
02e0
0610
0bf8
310e
0208
0c30
0080
7fff
02a0
0c98
7087
0080
0000
ENDCHAR
STARTCHAR 2e77
ENCODING 11895
SWIDTH 823 0
DWIDTH 16 0
BBX 16 16 0 -2
BITMAP
0810
0810
08fe
7e10
0892
0882
19ff
1c82
1a82
2800
29fe
4848
0849
0889
0b07
0000
ENDCHAR
STARTCHAR 2e78
ENCODING 11896
SWIDTH 823 0
DWIDTH 16 0
BBX 16 16 0 -2
BITMAP
0888
0888
0bff
7c88
089c
0812
19ff
1d10
1b12
2912
2914
4908
0919
0a25
0ac2
0000
ENDCHAR
STARTCHAR 2e79
ENCODING 11897
SWIDTH 823 0
DWIDTH 16 0
BBX 16 16 0 -2
BITMAP
1048
1048
13ff
7c48
1048
1084
3884
357f
3104
5304
5144
1124
1114
1104
110c
0000
ENDCHAR
STARTCHAR 2e7a
ENCODING 11898
SWIDTH 823 0
DWIDTH 16 0
BBX 16 16 0 -2
BITMAP
0620
7820
087f
7e89
0811
1c21
2a41
4a01
088e
0080
7fff
02a0
0c98
7087
0080
0000
ENDCHAR
STARTCHAR 2e7b
ENCODING 11899
SWIDTH 823 0
DWIDTH 16 0
BBX 16 16 0 -2
BITMAP
081c
09e0
0820
7fff
0820
09fe
1822
1fff
1c22
29fe
2870
48a8
0924
0e23
0820
0000
ENDCHAR
STARTCHAR 2e7c
ENCODING 11900
SWIDTH 823 0
DWIDTH 16 0
BBX 16 16 0 -2
BITMAP
081c
08e4
08a2
7e92
0911
0901
1810
1c10
1bff
2854
2854
4892
0892
0911
0810
0000
ENDCHAR
STARTCHAR 2e7d
ENCODING 11901
SWIDTH 823 0
DWIDTH 16 0
BBX 16 16 0 -2
BITMAP
0800
08fe
0882
7efe
0882
0882
1cfe
1a00
19ff
2804
29ff
4884
0844
0844
081c
0000
ENDCHAR
STARTCHAR 2e7e
ENCODING 11902
SWIDTH 823 0
DWIDTH 16 0
BBX 16 16 0 -2
BITMAP
0800
08fe
0880
7efc
0880
08fc
1c80
1a80
19ff
2892
2894
4888
0888
08e4
0b83
0000
ENDCHAR
STARTCHAR 2f21
ENCODING 12065
SWIDTH 823 0
DWIDTH 16 0
BBX 16 16 0 -2
BITMAP
080e
09f0
0900
7dfe
0902
0902
19fe
1d14
1b12
29ff
2910
4a10
0a28
0c44
0983
0000
ENDCHAR
STARTCHAR 2f22
ENCODING 12066
SWIDTH 823 0
DWIDTH 16 0
BBX 16 16 0 -2
BITMAP
1088
1088
13fe
7c88
1088
1088
3bff
3400
35fc
5104
5104
11fc
1104
1104
11fc
0000
ENDCHAR
STARTCHAR 2f23
ENCODING 12067
SWIDTH 823 0
DWIDTH 16 0
BBX 16 16 0 -2
BITMAP
1004
1044
1244
799f
1084
1144
3a0c
340e
344d
5255
5194
10a4
1144
1204
1004
0000
ENDCHAR
STARTCHAR 2f24
ENCODING 12068
SWIDTH 823 0
DWIDTH 16 0
BBX 16 16 0 -2
BITMAP
1124
1124
1222
7bfe
1050
1050
3bff
3488
31fc
530e
550b
1138
1100
1102
10fe
0000
ENDCHAR
STARTCHAR 2f25
ENCODING 12069
SWIDTH 823 0
DWIDTH 16 0
BBX 16 16 0 -2
BITMAP
1000
17ff
1240
7a40
13ff
1251
3251
3a51
37ca
524a
524a
1244
13c4
164a
1051
0000
ENDCHAR
STARTCHAR 2f26
ENCODING 12070
SWIDTH 823 0
DWIDTH 16 0
BBX 16 16 0 -2
BITMAP
1020
103e
1020
7dff
1121
1122
113c
39e0
3522
551e
5100
1248
1248
1489
1107
0000
ENDCHAR
STARTCHAR 2f27
ENCODING 12071
SWIDTH 823 0
DWIDTH 16 0
BBX 16 16 0 -2
BITMAP
1000
11fc
1104
7dfc
1104
1104
39fc
3504
3504
51fc
5104
1104
17ff
1088
1706
0000
ENDCHAR
STARTCHAR 2f28
ENCODING 12072
SWIDTH 823 0
DWIDTH 16 0
BBX 16 16 0 -2
BITMAP
101c
11e0
1020
7c20
13ff
1048
3084
3902
3621
5020
512a
1129
1225
1224
1060
0000
ENDCHAR
STARTCHAR 2f29
ENCODING 12073
SWIDTH 823 0
DWIDTH 16 0
BBX 16 16 0 -2
BITMAP
1020
1020
13fe
7c50
1088
1104
32fa
3800
3400
57fe
5020
1128
1224
1c23
10e0
0000
ENDCHAR
STARTCHAR 2f2a
ENCODING 12074
SWIDTH 823 0
DWIDTH 16 0
BBX 16 16 0 -2
BITMAP
13ff
1200
12fe
fe82
12fe
1282
32fe
3a00
36fe
520c
5210
17ff
1410
1810
1070
0000
ENDCHAR
STARTCHAR 2f2b
ENCODING 12075
SWIDTH 823 0
DWIDTH 16 0
BBX 16 16 0 -2
BITMAP
1000
13ff
1200
7efe
1282
12fe
3a82
36fe
3220
53ff
5244
12e8
1218
12e4
13ff
0000
ENDCHAR
STARTCHAR 2f2c
ENCODING 12076
SWIDTH 823 0
DWIDTH 16 0
BBX 16 16 0 -2
BITMAP
0210
7fff
0000
1f24
1924
1724
1924
1704
110c
0080
7fff
02a0
0c98
7087
0080
0000
ENDCHAR
STARTCHAR 2f2d
ENCODING 12077
SWIDTH 823 0
DWIDTH 16 0
BBX 16 16 0 -2
BITMAP
1000
13ff
1048
7bff
1249
1249
33ff
3820
3420
53ff
5044
1084
11e8
1038
13c6
0000
ENDCHAR
STARTCHAR 2f2e
ENCODING 12078
SWIDTH 823 0
DWIDTH 16 0
BBX 16 16 0 -2
BITMAP
1100
11ff
1110
7dff
1291
12ff
3691
3a91
32ff
5210
5250
1230
1228
1244
1283
0000
ENDCHAR
STARTCHAR 2f2f
ENCODING 12079
SWIDTH 823 0
DWIDTH 16 0
BBX 16 16 0 -2
BITMAP
1000
11fc
1104
7dfc
1104
1104
39fc
3480
31ff
5221
5621
1251
1289
13f1
1006
0000
ENDCHAR
STARTCHAR 2f30
ENCODING 12080
SWIDTH 823 0
DWIDTH 16 0
BBX 16 16 0 -2
BITMAP
100a
1009
1008
7fff
1208
12e8
3a4a
364a
33ea
52aa
52a4
13e4
1255
128d
1432
0000
ENDCHAR
STARTCHAR 2f31
ENCODING 12081
SWIDTH 823 0
DWIDTH 16 0
BBX 16 16 0 -2
BITMAP
1000
11fe
104c
7e30
11ff
1052
3854
3490
3530
5020
53ff
10a8
1124
1623
1020
0000
ENDCHAR
STARTCHAR 2f32
ENCODING 12082
SWIDTH 823 0
DWIDTH 16 0
BBX 16 16 0 -2
BITMAP
100c
11f0
1020
7c20
13ff
10a8
3124
3a22
3421
51fc
5104
11fc
1104
1104
11fc
0000
ENDCHAR
STARTCHAR 2f33
ENCODING 12083
SWIDTH 823 0
DWIDTH 16 0
BBX 16 16 0 -2
BITMAP
1000
13df
1041
7c41
13df
1210
3210
3bdf
3545
5249
50d3
1145
1259
1041
118e
0000
ENDCHAR
STARTCHAR 2f34
ENCODING 12084
SWIDTH 823 0
DWIDTH 16 0
BBX 16 16 0 -2
BITMAP
0080
0080
3ffe
2412
188c
0360
0c18
77f7
0410
07f0
0080
7fff
02a0
0c98
7087
0000
ENDCHAR
STARTCHAR 2f35
ENCODING 12085
SWIDTH 823 0
DWIDTH 16 0
BBX 16 16 0 -2
BITMAP
0800
083c
7f24
0824
3e24
0047
7f00
417e
5d22
0022
0814
7f08
1a14
2922
48c1
0000
ENDCHAR
STARTCHAR 2f36
ENCODING 12086
SWIDTH 823 0
DWIDTH 16 0
BBX 16 16 0 -2
BITMAP
1000
107f
3f20
483e
0822
7fa2
0c3e
1420
227f
4180
7fff
02a0
0c98
7087
0080
0000
ENDCHAR
STARTCHAR 2f37
ENCODING 12087
SWIDTH 823 0
DWIDTH 16 0
BBX 16 16 0 -2
BITMAP
0810
0810
7f28
0844
3e82
2311
3e10
22fe
2210
3e38
0838
7f54
0892
0810
0810
0000
ENDCHAR
STARTCHAR 2f38
ENCODING 12088
SWIDTH 823 0
DWIDTH 16 0
BBX 16 16 0 -2
BITMAP
1024
11fc
1028
7bff
1060
108c
31f0
3a82
347e
5000
50fe
1082
10fe
1082
10fe
0000
ENDCHAR
STARTCHAR 2f39
ENCODING 12089
SWIDTH 823 0
DWIDTH 16 0
BBX 16 16 0 -2
BITMAP
1040
1040
13ff
7e41
1249
1090
31fe
3b10
35fe
5110
5110
11fe
1110
1110
11ff
0000
ENDCHAR
STARTCHAR 2f3a
ENCODING 12090
SWIDTH 823 0
DWIDTH 16 0
BBX 16 16 0 -2
BITMAP
0020
3ca8
2524
2420
25fe
3450
2c50
27ff
2504
3622
2dfd
24a8
2524
4622
4c20
0000
ENDCHAR
STARTCHAR 2f3b
ENCODING 12091
SWIDTH 823 0
DWIDTH 16 0
BBX 16 16 0 -2
BITMAP
1020
1020
11fc
7c20
1020
13fe
3840
3448
3094
53e2
5000
11fc
1154
1154
17ff
0000
ENDCHAR
STARTCHAR 2f3c
ENCODING 12092
SWIDTH 823 0
DWIDTH 16 0
BBX 16 16 0 -2
BITMAP
0080
7fff
0000
07f0
0410
3ffe
2002
27f2
2412
27f6
0080
7fff
02a0
0c98
7087
0000
ENDCHAR
STARTCHAR 2f3d
ENCODING 12093
SWIDTH 823 0
DWIDTH 16 0
BBX 16 16 0 -2
BITMAP
0000
3f7e
2142
2142
2142
3f7e
0410
0410
7f7f
0c18
0e38
1554
2492
4491
0410
0000
ENDCHAR
STARTCHAR 2f3e
ENCODING 12094
SWIDTH 823 0
DWIDTH 16 0
BBX 16 16 0 -2
BITMAP
0080
0080
3ffe
0080
3ffe
2002
2ffa
0100
07f8
1a08
03f8
0080
3ffe
0490
388e
0000
ENDCHAR
STARTCHAR 2f3f
ENCODING 12095
SWIDTH 823 0
DWIDTH 16 0
BBX 16 16 0 -2
BITMAP
0810
0810
09ff
7f01
097d
0810
1cfe
1a92
1a92
28fe
2892
4892
08fe
0844
0983
0000
ENDCHAR
STARTCHAR 2f40
ENCODING 12096
SWIDTH 823 0
DWIDTH 16 0
BBX 16 16 0 -2
BITMAP
1084
1088
13ff
7d10
11fe
1110
11fe
1d10
61ff
0080
7fff
02a0
0c98
7087
0080
0000
ENDCHAR
STARTCHAR 2f41
ENCODING 12097
SWIDTH 823 0
DWIDTH 16 0
BBX 16 16 0 -2
BITMAP
0800
09fe
0820
7fff
0921
09ad
1820
1dac
1a20
29fe
2802
4bff
0802
0802
09fe
0000
ENDCHAR
STARTCHAR 2f42
ENCODING 12098
SWIDTH 823 0
DWIDTH 16 0
BBX 16 16 0 -2
BITMAP
1000
11fe
1122
7dfe
1122
1122
39fe
3420
31fe
5020
53ff
1000
1152
1249
1249
0000
ENDCHAR
STARTCHAR 2f43
ENCODING 12099
SWIDTH 823 0
DWIDTH 16 0
BBX 16 16 0 -2
BITMAP
0880
0880
08ff
7d44
0a7c
0844
187c
1c44
1a44
29ff
2901
497d
0945
097d
0903
0000
ENDCHAR
STARTCHAR 2f44
ENCODING 12100
SWIDTH 823 0
DWIDTH 16 0
BBX 16 16 0 -2
BITMAP
0810
0810
09ff
7f01
0911
08fe
1c28
1ac6
1a00
29ff
2802
48f2
0892
08f2
0806
0000
ENDCHAR
STARTCHAR 2f45
ENCODING 12101
SWIDTH 823 0
DWIDTH 16 0
BBX 16 16 0 -2
BITMAP
1020
1048
11f4
7c00
1084
116b
3bbd
3450
318c
5613
51e4
1018
10e2
100c
11f0
0000
ENDCHAR
STARTCHAR 2f46
ENCODING 12102
SWIDTH 823 0
DWIDTH 16 0
BBX 16 16 0 -2
BITMAP
1020
1122
1122
7dfe
1088
1090
39fe
3510
33fe
5110
5110
11fe
1110
1110
11ff
0000
ENDCHAR
STARTCHAR 2f47
ENCODING 12103
SWIDTH 823 0
DWIDTH 16 0
BBX 16 16 0 -2
BITMAP
0410
247e
25a2
3c5c
05f0
7c04
17ff
1484
2444
444c
0080
7fff
02a0
0c98
7087
0000
ENDCHAR
STARTCHAR 2f48
ENCODING 12104
SWIDTH 823 0
DWIDTH 16 0
BBX 16 16 0 -2
BITMAP
1090
129f
12b1
7ee9
1296
138c
30f2
3882
37bf
5282
5292
128a
128a
1482
1486
0000
ENDCHAR
STARTCHAR 2f49
ENCODING 12105
SWIDTH 823 0
DWIDTH 16 0
BBX 16 16 0 -2
BITMAP
100e
13f0
1200
7ffe
1202
13fe
3a00
367c
3644
52fe
5292
12fe
1480
1481
107f
0000
ENDCHAR
STARTCHAR 2f4a
ENCODING 12106
SWIDTH 823 0
DWIDTH 16 0
BBX 16 16 0 -2
BITMAP
1000
10fe
1082
7cfe
1082
10fe
3800
35ff
3149
51ff
5000
13ff
1082
107c
13c7
0000
ENDCHAR
STARTCHAR 2f4b
ENCODING 12107
SWIDTH 823 0
DWIDTH 16 0
BBX 16 16 0 -2
BITMAP
1000
127c
1114
7c56
1355
1025
38a4
354c
3220
5020
53ff
10a8
1124
1223
1020
0000
ENDCHAR
STARTCHAR 2f4c
ENCODING 12108
SWIDTH 823 0
DWIDTH 16 0
BBX 16 16 0 -2
BITMAP
1020
1020
13ff
7e48
1248
13ff
3a49
3649
33ff
5288
52e9
128e
1488
14e9
1187
0000
ENDCHAR
STARTCHAR 2f4d
ENCODING 12109
SWIDTH 823 0
DWIDTH 16 0
BBX 16 16 0 -2
BITMAP
0820
0820
083e
7e20
09ff
0921
19fe
1d20
1b7f
2942
297e
4942
0a7e
0a42
08ff
0000
ENDCHAR
STARTCHAR 2f4e
ENCODING 12110
SWIDTH 823 0
DWIDTH 16 0
BBX 16 16 0 -2
BITMAP
1088
1088
13ff
7c88
11fe
1122
39fe
3522
35fe
5020
53ff
1221
1229
1235
12c7
0000
ENDCHAR
STARTCHAR 2f4f
ENCODING 12111
SWIDTH 823 0
DWIDTH 16 0
BBX 16 16 0 -2
BITMAP
100a
1009
13ff
7c08
11e8
1008
3be8
3528
35e8
5128
51e8
1124
11e5
1095
130a
0000
ENDCHAR
STARTCHAR 2f50
ENCODING 12112
SWIDTH 823 0
DWIDTH 16 0
BBX 16 16 0 -2
BITMAP
10fc
1004
13ff
7c04
10fc
1000
3bef
3489
34e9
538f
5004
13ff
1084
1044
101c
0000
ENDCHAR
STARTCHAR 2f51
ENCODING 12113
SWIDTH 823 0
DWIDTH 16 0
BBX 16 16 0 -2
BITMAP
1088
108a
13e9
7c09
1228
1148
3bff
3408
33ea
522a
53e4
1224
122d
13f5
1022
0000
ENDCHAR
STARTCHAR 2f52
ENCODING 12114
SWIDTH 823 0
DWIDTH 16 0
BBX 16 16 0 -2
BITMAP
1000
13de
1252
7bde
1000
11fc
3924
35fc
3524
5124
51fc
1020
13fe
1020
1020
0000
ENDCHAR
STARTCHAR 2f53
ENCODING 12115
SWIDTH 823 0
DWIDTH 16 0
BBX 16 16 0 -2
BITMAP
0800
0800
1ffe
2924
0924
7fff
0924
0924
1ffe
0410
3eff
1454
1692
2511
4410
0000
ENDCHAR
STARTCHAR 2f54
ENCODING 12116
SWIDTH 823 0
DWIDTH 16 0
BBX 16 16 0 -2
BITMAP
1222
1124
1020
7bff
10a8
1124
3a23
3520
31c4
527f
5254
1554
109f
1104
1604
0000
ENDCHAR
STARTCHAR 2f55
ENCODING 12117
SWIDTH 823 0
DWIDTH 16 0
BBX 16 16 0 -2
BITMAP
1000
13df
1251
7fdf
1251
13df
3a01
3679
3649
5249
5279
1249
1249
1279
1207
0000
ENDCHAR
STARTCHAR 2f56
ENCODING 12118
SWIDTH 823 0
DWIDTH 16 0
BBX 16 16 0 -2
BITMAP
101c
11e0
1124
7ca8
13ff
1068
38a4
3522
3201
51fc
5124
11fc
1124
1124
11fc
0000
ENDCHAR
STARTCHAR 2f57
ENCODING 12119
SWIDTH 823 0
DWIDTH 16 0
BBX 16 16 0 -2
BITMAP
1000
11fe
1020
7fff
1221
11ae
3820
35ae
3000
51fe
5000
13ff
1044
109a
13e1
0000
ENDCHAR
STARTCHAR 2f58
ENCODING 12120
SWIDTH 823 0
DWIDTH 16 0
BBX 16 16 0 -2
BITMAP
0888
0a44
1210
01f0
0a0a
5555
5050
5151
0f0f
0080
7fff
02a0
0c98
7087
0080
0000
ENDCHAR
STARTCHAR 2f59
ENCODING 12121
SWIDTH 823 0
DWIDTH 16 0
BBX 16 16 0 -2
BITMAP
1060
118e
1102
7dee
1102
11fe
1000
3922
35b2
556a
51b2
116a
1122
11fa
1323
0000
ENDCHAR
STARTCHAR 2f5a
ENCODING 12122
SWIDTH 823 0
DWIDTH 16 0
BBX 16 16 0 -2
BITMAP
1000
10f8
1088
7c88
10f8
1000
33de
3a52
3652
53de
5020
17ff
1124
1623
1020
0000
ENDCHAR
STARTCHAR 2f5b
ENCODING 12123
SWIDTH 823 0
DWIDTH 16 0
BBX 16 16 0 -2
BITMAP
000e
3cf2
2509
257d
2810
28ff
2404
25ff
2804
20fc
0080
7fff
02a0
0c98
7087
0000
ENDCHAR
STARTCHAR 2f5c
ENCODING 12124
SWIDTH 823 0
DWIDTH 16 0
BBX 16 16 0 -2
BITMAP
1088
11fe
1088
7fff
1124
11fc
3222
3bfe
3525
51fc
5124
11fc
1020
13fe
1020
0000
ENDCHAR
STARTCHAR 2f5d
ENCODING 12125
SWIDTH 823 0
DWIDTH 16 0
BBX 16 16 0 -2
BITMAP
11fe
1152
11fe
7c20
13ff
1020
38fe
3482
36fe
5282
52fe
1282
12fe
1200
13ff
0000
ENDCHAR
STARTCHAR 2f5e
ENCODING 12126
SWIDTH 823 0
DWIDTH 16 0
BBX 16 16 0 -2
BITMAP
1000
11fe
1020
7bff
1221
11ad
3821
35ac
3000
51fe
5122
11fe
1122
1122
11fe
0000
ENDCHAR
STARTCHAR 2f5f
ENCODING 12127
SWIDTH 823 0
DWIDTH 16 0
BBX 16 16 0 -2
BITMAP
13ff
1048
13ff
7e49
13ff
3800
35fe
3302
51fe
5102
11fe
1102
11fe
1084
1303
0000
ENDCHAR
STARTCHAR 2f60
ENCODING 12128
SWIDTH 823 0
DWIDTH 16 0
BBX 16 16 0 -2
BITMAP
0000
0000
0000
0000
0000
0000
0000
0000
0000
0000
0000
0000
0000
0000
0000
0000
ENDCHAR
STARTCHAR 2f60
ENCODING 12128
SWIDTH 823 0
DWIDTH 16 0
BBX 16 16 0 -2
BITMAP
1000
11fe
114a
7dfe
1020
39fe
3420
37ff
5084
53ff
1020
11fe
1020
1020
1020
0000
ENDCHAR
STARTCHAR 2f61
ENCODING 12129
SWIDTH 823 0
DWIDTH 16 0
BBX 16 16 0 -2
BITMAP
1020
1122
1122
7dfe
1224
1128
317e
38c8
347e
5748
517e
1148
117e
1280
147f
0000
ENDCHAR
STARTCHAR 2f62
ENCODING 12130
SWIDTH 823 0
DWIDTH 16 0
BBX 16 16 0 -2
BITMAP
1020
1020
13ff
7e01
12ff
1132
3ad4
3548
34fc
5303
51fe
1010
1094
1313
1030
0000
ENDCHAR
STARTCHAR 2f63
ENCODING 12131
SWIDTH 823 0
DWIDTH 16 0
BBX 16 16 0 -2
BITMAP
1000
11fe
1020
7fff
1221
12ad
3a21
34ac
3000
53ff
5020
13ff
1249
1249
124b
0000
ENDCHAR
STARTCHAR 2f64
ENCODING 12132
SWIDTH 823 0
DWIDTH 16 0
BBX 16 16 0 -2
BITMAP
1082
1102
17ea
7d26
1522
17ea
3526
3d22
37e3
529e
52a2
12aa
14f6
1481
187f
0000
ENDCHAR
STARTCHAR 2f65
ENCODING 12133
SWIDTH 823 0
DWIDTH 16 0
BBX 16 16 0 -2
BITMAP
1000
13ff
1244
7fff
1244
12fe
3a92
36fe
3292
52fe
5210
12ff
1295
149d
10e3
0000
ENDCHAR
STARTCHAR 2f66
ENCODING 12134
SWIDTH 823 0
DWIDTH 16 0
BBX 16 16 0 -2
BITMAP
0000
07f0
0490
07f0
0490
3ffe
2552
3f7e
2552
3f7e
0080
3ffe
02a0
0c98
7087
0000
ENDCHAR
STARTCHAR 2f67
ENCODING 12135
SWIDTH 823 0
DWIDTH 16 0
BBX 16 16 0 -2
BITMAP
0080
3ffe
0080
0ff8
0888
7fff
4491
1b1c
07f0
3c1f
07f0
0080
7fff
0490
388e
0000
ENDCHAR
STARTCHAR 2f68
ENCODING 12136
SWIDTH 823 0
DWIDTH 16 0
BBX 16 16 0 -2
BITMAP
0810
0810
09ff
0810
7efe
0800
09ff
1929
1dff
1a82
28fe
2882
48fe
0844
0983
0000
ENDCHAR
STARTCHAR 2f69
ENCODING 12137
SWIDTH 823 0
DWIDTH 16 0
BBX 16 16 0 -2
BITMAP
1048
13ff
1048
7c20
12fd
1186
30fc
3986
36fd
5020
53ff
10a8
1124
1623
1020
0000
ENDCHAR
STARTCHAR 2f6a
ENCODING 12138
SWIDTH 823 0
DWIDTH 16 0
BBX 16 16 0 -2
BITMAP
0a08
0908
08be
7e2a
093e
0888
1c7f
1ba2
18be
28a2
28be
48a2
08be
0941
0a3f
0000
ENDCHAR
STARTCHAR 2f6b
ENCODING 12139
SWIDTH 823 0
DWIDTH 16 0
BBX 16 16 0 -2
BITMAP
1100
113e
17e2
7abe
12a2
12a2
37fe
3122
3922
57fe
5114
1394
1564
1925
1143
0000
ENDCHAR
STARTCHAR 2f6c
ENCODING 12140
SWIDTH 823 0
DWIDTH 16 0
BBX 16 16 0 -2
BITMAP
0810
2a10
3efe
1444
3e44
2228
3efe
2010
3efe
2210
3e10
0080
7fff
06b0
788f
0000
ENDCHAR
STARTCHAR 2f6d
ENCODING 12141
SWIDTH 823 0
DWIDTH 16 0
BBX 16 16 0 -2
BITMAP
1010
179e
10a2
7ec4
133f
1129
37e9
397f
3590
5169
5116
116c
1116
1165
1318
0000
ENDCHAR
STARTCHAR 2f6e
ENCODING 12142
SWIDTH 823 0
DWIDTH 16 0
BBX 16 16 0 -2
BITMAP
1110
1110
17ff
7c50
129e
17e2
301e
3bd0
365e
53d0
525e
13d0
125e
1251
12cf
0000
ENDCHAR
STARTCHAR 2f6f
ENCODING 12143
SWIDTH 823 0
DWIDTH 16 0
BBX 16 16 0 -2
BITMAP
3cff
2522
257d
2808
28ff
2402
25ff
2402
28fe
22a2
247d
0080
7fff
06b0
788f
0000
ENDCHAR
STARTCHAR 2f70
ENCODING 12144
SWIDTH 823 0
DWIDTH 16 0
BBX 16 16 0 -2
BITMAP
1200
123e
17e2
793e
1122
17e2
327e
3aa2
37e2
5cbe
57d4
1494
17d5
1495
17e3
0000
ENDCHAR
STARTCHAR 2f71
ENCODING 12145
SWIDTH 823 0
DWIDTH 16 0
BBX 16 16 0 -2
BITMAP
13de
1252
13de
7a52
13de
1252
33de
3110
3bff
5620
53fe
1220
13fe
1220
13ff
0000
ENDCHAR
STARTCHAR 2f72
ENCODING 12146
SWIDTH 823 0
DWIDTH 16 0
BBX 16 16 0 -2
BITMAP
13ff
1249
1249
7bff
1112
1224
347f
32a4
393f
5a64
57a4
113f
1364
1d24
113f
0000
ENDCHAR
STARTCHAR 2f73
ENCODING 12147
SWIDTH 823 0
DWIDTH 16 0
BBX 16 16 0 -2
BITMAP
1000
13df
1000
7fdf
12d5
1020
3bff
3648
33ff
5249
53ff
1288
12ee
1489
11e7
0000
ENDCHAR
STARTCHAR 2f74
ENCODING 12148
SWIDTH 823 0
DWIDTH 16 0
BBX 16 16 0 -2
BITMAP
1294
13df
1084
7fff
114a
114a
3bff
3502
35fe
5102
51fe
1102
11fe
1084
1303
0000
ENDCHAR
STARTCHAR 2f75
ENCODING 12149
SWIDTH 823 0
DWIDTH 16 0
BBX 16 16 0 -2
BITMAP
13ff
1048
13ff
7e49
1279
1140
3bef
3549
35cf
53e9
52a9
13ef
1089
13e9
1093
0000
ENDCHAR
STARTCHAR 2f76
ENCODING 12150
SWIDTH 823 0
DWIDTH 16 0
BBX 16 16 0 -2
BITMAP
1088
17ff
1088
7fdf
1451
17df
3451
37df
3c21
55fd
5421
14f9
14a9
14f9
152f
0000
ENDCHAR
STARTCHAR 2f77
ENCODING 12151
SWIDTH 823 0
DWIDTH 16 0
BBX 16 16 0 -2
BITMAP
0410
0410
0410
3fbf
0421
0449
040a
7f88
0808
0808
0a08
0914
1114
1ea2
7041
0000
ENDCHAR
STARTCHAR 2f78
ENCODING 12152
SWIDTH 823 0
DWIDTH 16 0
BBX 16 16 0 -2
BITMAP
0420
0420
0420
7f7f
0441
0492
0414
3f10
0010
3f10
2110
2128
2128
2144
3f83
0000
ENDCHAR
STARTCHAR 2f79
ENCODING 12153
SWIDTH 823 0
DWIDTH 16 0
BBX 16 16 0 -2
BITMAP
0410
0410
7fd0
001f
1f21
112a
1f4c
0008
3f88
2088
2e94
2a94
2ea2
20a2
21c1
0000
ENDCHAR
STARTCHAR 2f7a
ENCODING 12154
SWIDTH 823 0
DWIDTH 16 0
BBX 16 16 0 -2
BITMAP
2490
2490
4510
4a3f
0a21
114a
608c
1108
5148
5b48
5594
1114
2aa2
22a2
4441
0000
ENDCHAR
STARTCHAR 2f7b
ENCODING 12155
SWIDTH 823 0
DWIDTH 16 0
BBX 16 16 0 -2
BITMAP
0080
08fc
0880
0880
7fff
0080
0ffc
0884
0844
0844
7fff
0884
1084
1084
201c
0000
ENDCHAR
STARTCHAR 2f7c
ENCODING 12156
SWIDTH 823 0
DWIDTH 16 0
BBX 16 16 0 -2
BITMAP
0810
0810
09ff
0810
28fe
2e10
29ff
2882
28fe
2882
28fe
2882
2efe
3844
6183
0000
ENDCHAR
STARTCHAR 2f7d
ENCODING 12157
SWIDTH 823 0
DWIDTH 16 0
BBX 16 16 0 -2
BITMAP
0040
0040
007e
0040
0240
03fc
0404
1c04
0304
0088
0050
0020
0040
0180
1e00
0000
ENDCHAR
STARTCHAR 2f7e
ENCODING 12158
SWIDTH 823 0
DWIDTH 16 0
BBX 16 16 0 -2
BITMAP
0000
7f7c
1044
1044
1e44
1287
1300
2200
32fe
4a42
0442
0424
0818
1064
6183
0000
ENDCHAR
STARTCHAR 6e21
ENCODING 28193
SWIDTH 823 0
DWIDTH 16 0
BBX 16 16 0 -2
BITMAP
0000
7dfe
1040
1040
1cf0
1410
25df
2551
5555
0d52
09d6
0829
10e0
2000
47ff
0000
ENDCHAR
STARTCHAR 6e22
ENCODING 28194
SWIDTH 823 0
DWIDTH 16 0
BBX 16 16 0 -2
BITMAP
0010
7e28
1044
1082
1d01
147c
2400
25de
5552
0d52
09de
0884
10c4
212a
4211
0000
ENDCHAR
STARTCHAR 6e23
ENCODING 28195
SWIDTH 823 0
DWIDTH 16 0
BBX 16 16 0 -2
BITMAP
0800
107c
7e44
4244
7e44
4287
4200
7efe
0042
4042
4624
7828
4018
4224
3ec3
0000
ENDCHAR
STARTCHAR 6e24
ENCODING 28196
SWIDTH 823 0
DWIDTH 16 0
BBX 16 16 0 -2
BITMAP
0080
333c
0c24
33a4
0424
7fc7
0800
1f7e
3122
5f22
1114
1f14
1108
1114
1363
0000
ENDCHAR
STARTCHAR 6e25
ENCODING 28197
SWIDTH 823 0
DWIDTH 16 0
BBX 16 16 0 -2
BITMAP
0880
08bc
3fa4
0924
0924
0a47
7f80
0a7e
1122
3f22
5114
1f14
1108
1114
1f63
0000
ENDCHAR
STARTCHAR 6e26
ENCODING 28198
SWIDTH 823 0
DWIDTH 16 0
BBX 16 16 0 -2
BITMAP
1800
633c
4124
7724
4124
4147
7f80
497e
2a22
1c22
7f14
1814
2a08
2914
4963
0000
ENDCHAR
STARTCHAR 6e27
ENCODING 28199
SWIDTH 823 0
DWIDTH 16 0
BBX 16 16 0 -2
BITMAP
0810
102e
674a
554a
554a
556a
7753
5540
557f
5551
7551
176a
24c4
244a
4451
0000
ENDCHAR
STARTCHAR 6e28
ENCODING 28200
SWIDTH 823 0
DWIDTH 16 0
BBX 16 16 0 -2
BITMAP
3fbc
2424
2727
2a40
3fbe
2514
2888
3fb6
0000
3ffe
0888
0888
1494
22a2
7fff
0000
ENDCHAR
STARTCHAR 6e29
ENCODING 28201
SWIDTH 823 0
DWIDTH 16 0
BBX 16 16 0 -2
BITMAP
07e0
0840
7ffc
1004
1ffc
0840
0f7c
0841
7fff
0420
3ffc
1084
1ffc
0649
783f
0000
ENDCHAR
STARTCHAR 6e2a
ENCODING 28202
SWIDTH 823 0
DWIDTH 16 0
BBX 16 16 0 -2
BITMAP
000e
7f70
2210
2210
3e1e
2270
2210
3e10
221f
22f0
2210
3e10
6211
0211
020f
0000
ENDCHAR
STARTCHAR 6e2b
ENCODING 28203
SWIDTH 823 0
DWIDTH 16 0
BBX 16 16 0 -2
BITMAP
0c0a
7009
1008
11ff
1008
1c49
7049
11fa
104a
1c44
708d
1095
1122
1000
0fff
0000
ENDCHAR
STARTCHAR 6e2c
ENCODING 28204
SWIDTH 823 0
DWIDTH 16 0
BBX 16 16 0 -2
BITMAP
1020
1124
1124
1262
7c09
1030
13c0
101c
19e0
703e
13e0
103f
17e0
1021
301f
0000
ENDCHAR
STARTCHAR 6e2d
ENCODING 28205
SWIDTH 823 0
DWIDTH 16 0
BBX 16 16 0 -2
BITMAP
0c80
7080
11fe
1202
114a
1cd2
7042
11fa
1062
1cd2
714a
1242
101d
1001
0fff
0000
ENDCHAR
STARTCHAR 6e2e
ENCODING 28206
SWIDTH 823 0
DWIDTH 16 0
BBX 16 16 0 -2
BITMAP
0420
3f20
047f
7fa4
1618
6524
0443
3ffe
20c0
2700
21f0
2f00
21f8
5f02
00fe
0000
ENDCHAR
STARTCHAR 6e2f
ENCODING 28207
SWIDTH 823 0
DWIDTH 16 0
BBX 16 16 0 -2
BITMAP
0c20
7020
13ff
1102
117a
1d4a
717a
1102
11fe
1c84
70fc
1084
13fe
1001
0fff
0000
ENDCHAR
STARTCHAR 6e30
ENCODING 28208
SWIDTH 823 0
DWIDTH 16 0
BBX 16 16 0 -2
BITMAP
1fc3
124c
1fc4
1244
7ff7
555c
7df4
5554
7df7
020c
7ff4
4814
1fc5
2485
7ff3
0000
ENDCHAR
STARTCHAR 6e31
ENCODING 28209
SWIDTH 823 0
DWIDTH 16 0
BBX 16 16 0 -2
BITMAP
0180
0040
0020
0000
0300
0080
0040
0000
0020
0020
0040
0040
0080
0100
0200
0000
ENDCHAR
STARTCHAR 6e32
ENCODING 28210
SWIDTH 823 0
DWIDTH 16 0
BBX 16 16 0 -2
BITMAP
0000
3ffc
0018
0060
0082
7e84
0288
02d0
04a0
0490
0888
1084
6083
0080
0380
0000
ENDCHAR
STARTCHAR 6e33
ENCODING 28211
SWIDTH 823 0
DWIDTH 16 0
BBX 16 16 0 -2
BITMAP
0080
0080
1082
0882
0484
0488
0090
02c0
02a0
0490
1888
6084
0083
0080
0380
0000
ENDCHAR
STARTCHAR 6e34
ENCODING 28212
SWIDTH 823 0
DWIDTH 16 0
BBX 16 16 0 -2
BITMAP
2000
11e0
0820
0020
4020
2020
1020
0020
0020
0850
0850
1088
1104
2202
4401
0000
ENDCHAR
STARTCHAR 6e35
ENCODING 28213
SWIDTH 823 0
DWIDTH 16 0
BBX 16 16 0 -2
BITMAP
2080
1080
0880
0080
47f8
2088
1088
0088
0088
0888
0888
1108
1109
2209
4407
0000
ENDCHAR
STARTCHAR 6e36
ENCODING 28214
SWIDTH 823 0
DWIDTH 16 0
BBX 16 16 0 -2
BITMAP
2080
1080
0880
0080
47f8
2088
1088
0288
0188
0888
08c8
1128
1109
2209
4407
0000
ENDCHAR
STARTCHAR 6e37
ENCODING 28215
SWIDTH 823 0
DWIDTH 16 0
BBX 16 16 0 -2
BITMAP
2000
17f8
0888
0088
4088
2088
1088
03e8
0088
0888
0888
1104
1105
2205
4402
0000
ENDCHAR
STARTCHAR 6e38
ENCODING 28216
SWIDTH 823 0
DWIDTH 16 0
BBX 16 16 0 -2
BITMAP
2060
1020
0820
03fe
4222
2222
1222
0252
0252
0a8a
0b06
1202
1202
2202
420e
0000
ENDCHAR
STARTCHAR 6e39
ENCODING 28217
SWIDTH 823 0
DWIDTH 16 0
BBX 16 16 0 -2
BITMAP
2000
11fc
0800
0000
4000
2000
17ff
0040
0040
0840
0848
1084
1084
211a
47e2
0000
ENDCHAR
STARTCHAR 6e3a
ENCODING 28218
SWIDTH 823 0
DWIDTH 16 0
BBX 16 16 0 -2
BITMAP
2000
17ff
0c01
0401
4401
20f8
1088
0088
0088
0888
0888
1108
1109
2209
4407
0000
ENDCHAR
STARTCHAR 6e3b
ENCODING 28219
SWIDTH 823 0
DWIDTH 16 0
BBX 16 16 0 -2
BITMAP
2040
1040
0bf8
0048
4088
2089
1109
0607
0020
0820
0bfe
1020
1020
2020
4020
0000
ENDCHAR
STARTCHAR 6e3c
ENCODING 28220
SWIDTH 823 0
DWIDTH 16 0
BBX 16 16 0 -2
BITMAP
2000
17ff
0820
0020
4220
223e
1222
0222
0222
0a22
0bfe
1002
1004
2004
4038
0000
ENDCHAR
STARTCHAR 6e3d
ENCODING 28221
SWIDTH 823 0
DWIDTH 16 0
BBX 16 16 0 -2
BITMAP
2100
1100
0900
01ff
4149
2249
1249
0449
0089
0891
0911
1221
1042
2082
401c
0000
ENDCHAR
STARTCHAR 6e3e
ENCODING 28222
SWIDTH 823 0
DWIDTH 16 0
BBX 16 16 0 -2
BITMAP
0000
3ffe
0080
0080
7fff
0140
0e38
7087
0c8c
02b0
00c0
03a0
0c98
7087
0380
0000
ENDCHAR
STARTCHAR 6e3f
ENCODING 28223
SWIDTH 823 0
DWIDTH 16 0
BBX 16 16 0 -2
BITMAP
2024
1022
0822
07ff
4020
2020
1124
0124
0124
0924
0a25
1225
1427
2020
4020
0000
ENDCHAR
STARTCHAR 6e40
ENCODING 28224
SWIDTH 823 0
DWIDTH 16 0
BBX 16 16 0 -2
BITMAP
2000
13fe
0a02
0202
4202
22fa
128a
028a
028a
0a8a
0afa
1202
1202
2202
420e
0000
ENDCHAR
STARTCHAR 6e41
ENCODING 28225
SWIDTH 823 0
DWIDTH 16 0
BBX 16 16 0 -2
BITMAP
2008
17c8
0c48
0448
44bf
2489
1509
0489
0489
0c49
0c49
1451
1591
2421
4446
0000
ENDCHAR
STARTCHAR 6e42
ENCODING 28226
SWIDTH 823 0
DWIDTH 16 0
BBX 16 16 0 -2
BITMAP
2040
1040
0840
07fe
4090
2090
1108
0144
0242
0840
0840
1088
1088
2134
47c2
0000
ENDCHAR
STARTCHAR 6e43
ENCODING 28227
SWIDTH 823 0
DWIDTH 16 0
BBX 16 16 0 -2
BITMAP
2040
1080
0b0f
0249
4249
2249
1249
0249
0249
0a49
0bc9
1649
108f
2088
4108
0000
ENDCHAR
STARTCHAR 6e44
ENCODING 28228
SWIDTH 823 0
DWIDTH 16 0
BBX 16 16 0 -2
BITMAP
2110
1110
0910
0510
4513
25dc
1510
0510
0510
1510
1510
1510
2511
25d1
4e0f
0000
ENDCHAR
STARTCHAR 6e45
ENCODING 28229
SWIDTH 823 0
DWIDTH 16 0
BBX 16 16 0 -2
BITMAP
201c
13f0
0a10
0210
4210
2210
13ff
0210
0210
0a08
0a08
13c8
1605
2005
47f2
0000
ENDCHAR
STARTCHAR 6e46
ENCODING 28230
SWIDTH 823 0
DWIDTH 16 0
BBX 16 16 0 -2
BITMAP
2020
1120
0920
0120
41fe
2220
1420
0020
0020
0bfe
0820
1020
1020
2020
47ff
0000
ENDCHAR
STARTCHAR 6e47
ENCODING 28231
SWIDTH 823 0
DWIDTH 16 0
BBX 16 16 0 -2
BITMAP
2020
1020
0820
07ff
4401
2401
1411
0008
0088
0888
0888
1104
1104
2202
4401
0000
ENDCHAR
STARTCHAR 6e48
ENCODING 28232
SWIDTH 823 0
DWIDTH 16 0
BBX 16 16 0 -2
BITMAP
2084
1084
0884
0104
417f
2304
1504
0944
0124
0924
0904
1104
1104
2104
411c
0000
ENDCHAR
STARTCHAR 6e49
ENCODING 28233
SWIDTH 823 0
DWIDTH 16 0
BBX 16 16 0 -2
BITMAP
2000
13fc
0844
0044
4084
2104
1218
0000
0fdf
0a49
1249
1249
2451
2451
49a6
0000
ENDCHAR
STARTCHAR 6e4a
ENCODING 28234
SWIDTH 823 0
DWIDTH 16 0
BBX 16 16 0 -2
BITMAP
2010
1020
09fe
0102
4142
2122
1112
0102
07ff
0902
0922
1122
1222
2222
440e
0000
ENDCHAR
STARTCHAR 6e4b
ENCODING 28235
SWIDTH 823 0
DWIDTH 16 0
BBX 16 16 0 -2
BITMAP
2040
1040
0840
07ff
4080
20be
1102
0104
0b08
0d08
117f
1108
2108
2108
4118
0000
ENDCHAR
STARTCHAR 6e4c
ENCODING 28236
SWIDTH 823 0
DWIDTH 16 0
BBX 16 16 0 -2
BITMAP
2020
1020
0850
0088
4104
2603
11fc
0020
0020
0820
09fc
1020
1020
2020
47ff
0000
ENDCHAR
STARTCHAR 6e4d
ENCODING 28237
SWIDTH 823 0
DWIDTH 16 0
BBX 16 16 0 -2
BITMAP
2000
17ff
0840
0040
4080
23fe
1202
0202
0202
0bfe
0a02
1202
1202
2202
43fe
0000
ENDCHAR
STARTCHAR 6e4e
ENCODING 28238
SWIDTH 823 0
DWIDTH 16 0
BBX 16 16 0 -2
BITMAP
2040
1040
0fff
0080
4080
21fe
1302
0d02
01fe
0902
0902
11fe
1102
2102
410e
0000
ENDCHAR
STARTCHAR 6e4f
ENCODING 28239
SWIDTH 823 0
DWIDTH 16 0
BBX 16 16 0 -2
BITMAP
2000
17df
0904
0104
4104
2104
11c4
071f
0104
0904
0904
1104
1204
2204
4404
0000
ENDCHAR
STARTCHAR 6e50
ENCODING 28240
SWIDTH 823 0
DWIDTH 16 0
BBX 16 16 0 -2
BITMAP
0800
0f7e
7812
0f12
3812
0f22
784c
0880
0082
3ec4
02a8
0490
188c
6083
0380
0000
ENDCHAR
STARTCHAR 6e51
ENCODING 28241
SWIDTH 823 0
DWIDTH 16 0
BBX 16 16 0 -2
BITMAP
2020
1020
0bfe
0020
4020
2020
17ff
0000
0020
0820
0bfe
1020
1020
2020
47ff
0000
ENDCHAR
STARTCHAR 6e52
ENCODING 28242
SWIDTH 823 0
DWIDTH 16 0
BBX 16 16 0 -2
BITMAP
2020
1050
0888
0104
46fb
2000
11fc
0004
0008
0810
09fc
1104
1104
2104
41fc
0000
ENDCHAR
STARTCHAR 6e53
ENCODING 28243
SWIDTH 823 0
DWIDTH 16 0
BBX 16 16 0 -2
BITMAP
2000
11fe
0902
0102
4102
2102
11fe
0020
0020
0920
093e
1120
12a0
2460
481f
0000
ENDCHAR
STARTCHAR 6e54
ENCODING 28244
SWIDTH 823 0
DWIDTH 16 0
BBX 16 16 0 -2
BITMAP
2104
10c8
0830
00cc
4740
2040
1fff
00a0
03fe
0e22
0a22
1222
1226
2020
4020
0000
ENDCHAR
STARTCHAR 6e55
ENCODING 28245
SWIDTH 823 0
DWIDTH 16 0
BBX 16 16 0 -2
BITMAP
20c2
1702
0912
0112
4112
2fd2
1112
0312
0392
0b52
0d52
1512
1102
2102
410e
0000
ENDCHAR
STARTCHAR 6e56
ENCODING 28246
SWIDTH 823 0
DWIDTH 16 0
BBX 16 16 0 -2
BITMAP
2000
13fc
0a04
03fc
4204
2204
13fc
0204
0204
0bfc
0890
1090
1111
2211
4c0f
0000
ENDCHAR
STARTCHAR 6e57
ENCODING 28247
SWIDTH 823 0
DWIDTH 16 0
BBX 16 16 0 -2
BITMAP
2102
1104
0918
07c0
4100
2102
1384
0348
0570
1501
1901
1102
2104
2118
4160
0000
ENDCHAR
STARTCHAR 6e58
ENCODING 28248
SWIDTH 823 0
DWIDTH 16 0
BBX 16 16 0 -2
BITMAP
2000
13fe
0822
0122
4242
2444
1084
0118
0020
0810
0892
1282
1281
2445
443c
0000
ENDCHAR
STARTCHAR 6e59
ENCODING 28249
SWIDTH 823 0
DWIDTH 16 0
BBX 16 16 0 -2
BITMAP
2040
1044
0bfc
0044
4048
27ff
1020
03fc
0088
0b10
0c20
13ff
1020
2020
40e0
0000
ENDCHAR
STARTCHAR 6e5a
ENCODING 28250
SWIDTH 823 0
DWIDTH 16 0
BBX 16 16 0 -2
BITMAP
2020
1020
0fff
0020
43fe
2222
1222
0222
03fe
08a8
08a8
1124
1222
2421
4020
0000
ENDCHAR
STARTCHAR 6e5b
ENCODING 28251
SWIDTH 823 0
DWIDTH 16 0
BBX 16 16 0 -2
BITMAP
2040
1048
0844
008a
47f1
2100
1100
03fe
0420
0820
0fff
1050
1088
2104
4603
0000
ENDCHAR
STARTCHAR 6e5c
ENCODING 28252
SWIDTH 823 0
DWIDTH 16 0
BBX 16 16 0 -2
BITMAP
2000
11fc
0904
01fc
4104
2104
11fc
0000
0000
0bfe
0820
1020
1020
2020
47ff
0000
ENDCHAR
STARTCHAR 6e5d
ENCODING 28253
SWIDTH 823 0
DWIDTH 16 0
BBX 16 16 0 -2
BITMAP
2040
1048
088c
01f2
4020
23ff
1048
0094
0363
0988
0830
10c2
1004
2018
41e0
0000
ENDCHAR
STARTCHAR 6e5e
ENCODING 28254
SWIDTH 823 0
DWIDTH 16 0
BBX 16 16 0 -2
BITMAP
2000
17df
0945
0249
44d3
2145
1659
0000
01fc
0884
0884
1048
1030
20cc
4303
0000
ENDCHAR
STARTCHAR 6e5f
ENCODING 28255
SWIDTH 823 0
DWIDTH 16 0
BBX 16 16 0 -2
BITMAP
201c
13e0
0840
0040
47ff
2090
110c
0623
0022
0ba4
08b4
10a8
1124
2223
4060
0000
ENDCHAR
STARTCHAR 6e60
ENCODING 28256
SWIDTH 823 0
DWIDTH 16 0
BBX 16 16 0 -2
BITMAP
20c0
1700
091f
0111
47f1
2111
1111
0391
0351
0b31
0d11
1511
1911
211f
4100
0000
ENDCHAR
STARTCHAR 6e61
ENCODING 28257
SWIDTH 823 0
DWIDTH 16 0
BBX 16 16 0 -2
BITMAP
2020
1020
0fff
0401
4401
21fc
1104
0104
01fc
0900
09fe
1102
1102
2102
41fe
0000
ENDCHAR
STARTCHAR 6e62
ENCODING 28258
SWIDTH 823 0
DWIDTH 16 0
BBX 16 16 0 -2
BITMAP
2001
17f1
0c15
0415
47f5
2445
1445
05f5
0555
0d55
0d55
1551
1571
2841
4043
0000
ENDCHAR
STARTCHAR 6e63
ENCODING 28259
SWIDTH 823 0
DWIDTH 16 0
BBX 16 16 0 -2
BITMAP
2020
1020
0bfe
0202
4202
2100
11de
0152
0252
0a52
0d56
1090
1091
2111
460f
0000
ENDCHAR
STARTCHAR 6e64
ENCODING 28260
SWIDTH 823 0
DWIDTH 16 0
BBX 16 16 0 -2
BITMAP
2000
11fc
0904
01fc
4104
2104
11fc
0000
03fe
0808
0fff
1108
1088
2088
4038
0000
ENDCHAR
STARTCHAR 6e65
ENCODING 28261
SWIDTH 823 0
DWIDTH 16 0
BBX 16 16 0 -2
BITMAP
2084
1084
0908
07df
4108
2108
1108
01c8
071f
0908
0908
1108
1208
2208
4408
0000
ENDCHAR
STARTCHAR 6e66
ENCODING 28262
SWIDTH 823 0
DWIDTH 16 0
BBX 16 16 0 -2
BITMAP
2000
13fe
0a02
0202
43fe
2210
1210
0292
0292
0afe
0a10
1491
1491
2891
40ff
0000
ENDCHAR
STARTCHAR 6e67
ENCODING 28263
SWIDTH 823 0
DWIDTH 16 0
BBX 16 16 0 -2
BITMAP
2020
1020
0fff
0020
43fe
2050
17ff
0088
0124
0e23
09fc
1020
17ff
2020
4020
0000
ENDCHAR
STARTCHAR 6e68
ENCODING 28264
SWIDTH 823 0
DWIDTH 16 0
BBX 16 16 0 -2
BITMAP
2000
11fc
0904
01fc
4104
2104
11fc
0000
03fe
0820
0820
17ff
1050
218c
4603
0000
ENDCHAR
STARTCHAR 6e69
ENCODING 28265
SWIDTH 823 0
DWIDTH 16 0
BBX 16 16 0 -2
BITMAP
2000
11fc
0904
01fc
4104
2104
11fc
0000
03fe
0a02
0a02
13fe
1202
2202
43fe
0000
ENDCHAR
STARTCHAR 6e6a
ENCODING 28266
SWIDTH 823 0
DWIDTH 16 0
BBX 16 16 0 -2
BITMAP
2090
1090
0890
07fe
4492
2492
17fe
0492
0492
1492
1fff
1000
2108
2204
4402
0000
ENDCHAR
STARTCHAR 6e6b
ENCODING 28267
SWIDTH 823 0
DWIDTH 16 0
BBX 16 16 0 -2
BITMAP
2020
1020
0bfe
0020
47ff
2088
1108
020f
0040
087c
0884
1388
1050
2078
4787
0000
ENDCHAR
STARTCHAR 6e6c
ENCODING 28268
SWIDTH 823 0
DWIDTH 16 0
BBX 16 16 0 -2
BITMAP
2020
1020
0fff
0020
4124
2124
1124
02aa
02aa
0c21
0870
10a8
1124
2623
4020
0000
ENDCHAR
STARTCHAR 6e6d
ENCODING 28269
SWIDTH 823 0
DWIDTH 16 0
BBX 16 16 0 -2
BITMAP
2088
1088
0fff
0088
4088
2020
13fe
0222
0222
0a22
0fff
1050
1088
2104
4603
0000
ENDCHAR
STARTCHAR 6e6e
ENCODING 28270
SWIDTH 823 0
DWIDTH 16 0
BBX 16 16 0 -2
BITMAP
2104
1084
0888
07ff
4020
21fc
1104
0104
01fc
0904
0904
11fc
1104
2104
41fc
0000
ENDCHAR
STARTCHAR 6e6f
ENCODING 28271
SWIDTH 823 0
DWIDTH 16 0
BBX 16 16 0 -2
BITMAP
2000
17fc
0c04
0434
45c4
2444
15f4
0554
0554
0df4
0c44
1454
1475
29cd
4802
0000
ENDCHAR
STARTCHAR 6e70
ENCODING 28272
SWIDTH 823 0
DWIDTH 16 0
BBX 16 16 0 -2
BITMAP
2020
1020
0fff
0104
4084
2088
17ff
0421
0421
0bfe
0a22
1222
1222
2226
4020
0000
ENDCHAR
STARTCHAR 6e71
ENCODING 28273
SWIDTH 823 0
DWIDTH 16 0
BBX 16 16 0 -2
BITMAP
2020
1020
0fff
0482
4442
2444
17ff
0410
0492
0c92
0c92
14fe
1410
2820
40c0
0000
ENDCHAR
STARTCHAR 6e72
ENCODING 28274
SWIDTH 823 0
DWIDTH 16 0
BBX 16 16 0 -2
BITMAP
2020
1020
0fff
0401
45fd
2000
11fc
0104
0104
09fc
0904
1104
11fc
2000
47ff
0000
ENDCHAR
STARTCHAR 6e73
ENCODING 28275
SWIDTH 823 0
DWIDTH 16 0
BBX 16 16 0 -2
BITMAP
2104
1088
0bfe
0020
43fe
2020
1020
07ff
0020
0820
0fff
1020
1050
218c
4603
0000
ENDCHAR
STARTCHAR 6e74
ENCODING 28276
SWIDTH 823 0
DWIDTH 16 0
BBX 16 16 0 -2
BITMAP
2104
1104
0fff
0104
41fc
2104
1104
01fc
0020
0fff
08a8
1124
1222
2421
4020
0000
ENDCHAR
STARTCHAR 6e75
ENCODING 28277
SWIDTH 823 0
DWIDTH 16 0
BBX 16 16 0 -2
BITMAP
2106
1138
0908
0108
4588
257f
1548
0508
0508
093e
0922
1122
1122
2122
413e
0000
ENDCHAR
STARTCHAR 6e76
ENCODING 28278
SWIDTH 823 0
DWIDTH 16 0
BBX 16 16 0 -2
BITMAP
2040
13fc
0884
07ff
4000
23fc
1204
03fc
0010
0bfe
0910
1110
17ff
2010
4010
0000
ENDCHAR
STARTCHAR 6e77
ENCODING 28279
SWIDTH 823 0
DWIDTH 16 0
BBX 16 16 0 -2
BITMAP
2020
1050
0888
0104
46fb
2000
11fc
0104
01fc
0904
09fd
1122
1114
21c8
4707
0000
ENDCHAR
STARTCHAR 6e78
ENCODING 28280
SWIDTH 823 0
DWIDTH 16 0
BBX 16 16 0 -2
BITMAP
2000
17ff
0820
01fc
4104
21fc
1104
0104
01fc
0904
0904
11fc
1040
2084
4303
0000
ENDCHAR
STARTCHAR 6e79
ENCODING 28281
SWIDTH 823 0
DWIDTH 16 0
BBX 16 16 0 -2
BITMAP
2000
1fff
0841
027a
4240
25c0
187f
0000
03fc
0a04
0bfc
1204
13fc
2204
421c
0000
ENDCHAR
STARTCHAR 6e7a
ENCODING 28282
SWIDTH 823 0
DWIDTH 16 0
BBX 16 16 0 -2
BITMAP
2030
1108
0a04
0403
41fc
2044
1044
0084
0318
0800
0bfe
1292
1292
2292
47ff
0000
ENDCHAR
STARTCHAR 6e7b
ENCODING 28283
SWIDTH 823 0
DWIDTH 16 0
BBX 16 16 0 -2
BITMAP
2104
1084
0888
07ff
4000
23c2
1252
0352
02d2
0a52
0b52
12d2
1242
2242
42c6
0000
ENDCHAR
STARTCHAR 6e7c
ENCODING 28284
SWIDTH 823 0
DWIDTH 16 0
BBX 16 16 0 -2
BITMAP
2102
1102
0fc2
0102
411f
2fe2
1002
0112
010a
0fca
0902
1102
1102
21c2
4e0e
0000
ENDCHAR
STARTCHAR 6e7d
ENCODING 28285
SWIDTH 823 0
DWIDTH 16 0
BBX 16 16 0 -2
BITMAP
2000
13fe
0a02
03fe
4220
23ff
1210
0388
0605
0bfe
0a02
13fe
1202
2202
43fe
0000
ENDCHAR
STARTCHAR 6e7e
ENCODING 28286
SWIDTH 823 0
DWIDTH 16 0
BBX 16 16 0 -2
BITMAP
201c
13e0
0800
0242
4122
2124
1000
027e
0242
0a42
0a7e
1242
1242
2242
427e
0000
ENDCHAR
STARTCHAR 6f21
ENCODING 28449
SWIDTH 823 0
DWIDTH 16 0
BBX 16 16 0 -2
BITMAP
2044
1088
0fff
0090
43fe
2092
17ff
0092
0092
0bfe
0998
1294
1492
2891
4090
0000
ENDCHAR
STARTCHAR 6f22
ENCODING 28450
SWIDTH 823 0
DWIDTH 16 0
BBX 16 16 0 -2
BITMAP
2000
17ff
0890
0090
47fe
2492
1492
07fe
0020
0fff
08a8
1124
1222
2421
4020
0000
ENDCHAR
STARTCHAR 6f23
ENCODING 28451
SWIDTH 823 0
DWIDTH 16 0
BBX 16 16 0 -2
BITMAP
2040
1080
0bfc
0204
43fc
2204
13fc
0204
03fc
0848
0844
17ff
10a0
2318
4c07
0000
ENDCHAR
STARTCHAR 6f24
ENCODING 28452
SWIDTH 823 0
DWIDTH 16 0
BBX 16 16 0 -2
BITMAP
2008
102a
0fa9
0ac9
4a88
2abe
1a88
0f88
0a88
1aff
1a88
2a88
2f88
4008
4008
0000
ENDCHAR
STARTCHAR 6f25
ENCODING 28453
SWIDTH 823 0
DWIDTH 16 0
BBX 16 16 0 -2
BITMAP
2010
1108
0a44
0443
4088
20b4
13c2
0000
07de
08c6
0b5a
10c6
114a
2252
40c6
0000
ENDCHAR
STARTCHAR 6f26
ENCODING 28454
SWIDTH 823 0
DWIDTH 16 0
BBX 16 16 0 -2
BITMAP
2200
1200
0bfe
0400
49f8
2000
17fc
0084
0494
0aa4
0ffc
11c4
12a5
2495
488a
0000
ENDCHAR
STARTCHAR 6f27
ENCODING 28455
SWIDTH 823 0
DWIDTH 16 0
BBX 16 16 0 -2
BITMAP
2000
17ff
0c00
0444
4448
24fe
1590
04fc
0490
0cfc
0c90
1490
14fe
2400
47ff
0000
ENDCHAR
STARTCHAR 6f28
ENCODING 28456
SWIDTH 823 0
DWIDTH 16 0
BBX 16 16 0 -2
BITMAP
2108
1108
0a88
029f
4452
2ff2
192a
010a
0fea
1104
1544
254c
294a
4952
4321
0000
ENDCHAR
STARTCHAR 6f29
ENCODING 28457
SWIDTH 823 0
DWIDTH 16 0
BBX 16 16 0 -2
BITMAP
2120
1120
097f
02c2
4224
2518
1534
0dc3
057e
0d42
0d7e
1542
157e
2442
4446
0000
ENDCHAR
STARTCHAR 6f2a
ENCODING 28458
SWIDTH 823 0
DWIDTH 16 0
BBX 16 16 0 -2
BITMAP
2020
103e
0820
03ff
4221
22fc
1221
021f
02f0
0a92
0a54
15ff
1410
2810
4070
0000
ENDCHAR
STARTCHAR 6f2b
ENCODING 28459
SWIDTH 823 0
DWIDTH 16 0
BBX 16 16 0 -2
BITMAP
2020
1020
07fe
0108
40f0
2108
17fe
0420
04a0
0dfc
0e20
14fc
1420
2820
43fe
0000
ENDCHAR
STARTCHAR 6f2c
ENCODING 28460
SWIDTH 823 0
DWIDTH 16 0
BBX 16 16 0 -2
BITMAP
2020
13fe
0a22
07ff
4222
23fe
1020
03fe
0222
0bfe
0840
17ff
1084
20f8
438e
0000
ENDCHAR
STARTCHAR 6f2d
ENCODING 28461
SWIDTH 823 0
DWIDTH 16 0
BBX 16 16 0 -2
BITMAP
2088
1088
0fff
0088
40f8
2020
13fe
0222
03fe
0820
0bfe
1020
13fe
2020
47ff
0000
ENDCHAR
STARTCHAR 6f2e
ENCODING 28462
SWIDTH 823 0
DWIDTH 16 0
BBX 16 16 0 -2
BITMAP
2000
13ff
0a00
02fe
4200
23ff
124a
0244
02fe
0b83
0afe
1282
14fe
2482
4886
0000
ENDCHAR
STARTCHAR 6f2f
ENCODING 28463
SWIDTH 823 0
DWIDTH 16 0
BBX 16 16 0 -2
BITMAP
2020
1020
0bfe
0252
4252
279f
1020
01fc
0020
0bfe
0820
13fe
1020
2020
47ff
0000
ENDCHAR
STARTCHAR 6f30
ENCODING 28464
SWIDTH 823 0
DWIDTH 16 0
BBX 16 16 0 -2
BITMAP
2020
11fc
0924
01fc
4020
23fe
1222
0222
03fe
0820
0840
1524
1522
2905
48fc
0000
ENDCHAR
STARTCHAR 6f31
ENCODING 28465
SWIDTH 823 0
DWIDTH 16 0
BBX 16 16 0 -2
BITMAP
2020
1222
0a22
03fe
4110
2120
13fe
0220
07fe
0a20
0a20
13fe
1220
2220
43ff
0000
ENDCHAR
STARTCHAR 6f32
ENCODING 28466
SWIDTH 823 0
DWIDTH 16 0
BBX 16 16 0 -2
BITMAP
2020
1020
0bfe
0088
47ff
2000
11fc
0104
09fc
0904
11fc
1104
21fc
2089
4707
0000
ENDCHAR
STARTCHAR 6f33
ENCODING 28467
SWIDTH 823 0
DWIDTH 16 0
BBX 16 16 0 -2
BITMAP
2080
11f8
0a10
07fe
4222
2222
13fe
0061
03b2
08d4
0f38
1054
1092
2711
4060
0000
ENDCHAR
STARTCHAR 6f34
ENCODING 28468
SWIDTH 823 0
DWIDTH 16 0
BBX 16 16 0 -2
BITMAP
2108
1110
0bfe
0610
43fe
2210
13fe
0210
03ff
0820
0fff
10a8
1124
2623
4020
0000
ENDCHAR
STARTCHAR 6f35
ENCODING 28469
SWIDTH 823 0
DWIDTH 16 0
BBX 16 16 0 -2
BITMAP
2020
13fe
0822
07ff
4022
23fe
1020
02aa
03ae
0a22
0bfe
1222
13ae
22aa
4422
0000
ENDCHAR
STARTCHAR 6f36
ENCODING 28470
SWIDTH 823 0
DWIDTH 16 0
BBX 16 16 0 -2
BITMAP
2000
17df
0c51
07df
4410
2451
13cf
0088
03fe
0888
0888
17ff
1088
2104
4603
0000
ENDCHAR
STARTCHAR 6f37
ENCODING 28471
SWIDTH 823 0
DWIDTH 16 0
BBX 16 16 0 -2
BITMAP
2020
1040
0ffe
0492
4492
2fff
1030
03e2
0152
0a54
0cc8
1144
1242
2c41
4040
0000
ENDCHAR
STARTCHAR 6f38
ENCODING 28472
SWIDTH 823 0
DWIDTH 16 0
BBX 16 16 0 -2
BITMAP
2104
1104
0fdf
0104
438e
234d
1555
0924
0000
0bfe
0a02
13fe
1202
2202
43fe
0000
ENDCHAR
STARTCHAR 6f39
ENCODING 28473
SWIDTH 823 0
DWIDTH 16 0
BBX 16 16 0 -2
BITMAP
2108
1090
0ffe
0090
4492
2294
1090
0fff
0000
0bfc
0a04
13fc
1204
2204
43fc
0000
ENDCHAR
STARTCHAR 6f3a
ENCODING 28474
SWIDTH 823 0
DWIDTH 16 0
BBX 16 16 0 -2
BITMAP
2000
13fe
0820
07ff
4421
25ad
1421
01ac
0000
0bfe
0800
17ff
1088
2134
47c2
0000
ENDCHAR
STARTCHAR 6f3b
ENCODING 28475
SWIDTH 823 0
DWIDTH 16 0
BBX 16 16 0 -2
BITMAP
2000
17df
0c51
07df
4451
27df
1401
0421
05fd
0c21
0c71
1471
14a9
2525
4423
0000
ENDCHAR
STARTCHAR 6f3c
ENCODING 28476
SWIDTH 823 0
DWIDTH 16 0
BBX 16 16 0 -2
BITMAP
2010
1410
0cfe
0210
41ff
2444
1428
02fe
0010
0efe
0a10
13ff
1210
2510
48ff
0000
ENDCHAR
STARTCHAR 6f3d
ENCODING 28477
SWIDTH 823 0
DWIDTH 16 0
BBX 16 16 0 -2
BITMAP
2020
1020
0fff
0154
4154
2174
1104
01fc
0006
0bf8
0820
17ff
10a8
2124
4623
0000
ENDCHAR
STARTCHAR 6f3e
ENCODING 28478
SWIDTH 823 0
DWIDTH 16 0
BBX 16 16 0 -2
BITMAP
2200
13df
0e49
0489
47d1
2551
1566
07d4
0554
0d5f
0fe4
1444
147f
2844
48c4
0000
ENDCHAR
STARTCHAR 6f3f
ENCODING 28479
SWIDTH 823 0
DWIDTH 16 0
BBX 16 16 0 -2
BITMAP
2100
11de
0902
01d4
4248
2d54
10a3
0300
0d24
08a8
0fff
10a8
1124
2623
4020
0000
ENDCHAR
STARTCHAR 6f40
ENCODING 28480
SWIDTH 823 0
DWIDTH 16 0
BBX 16 16 0 -2
BITMAP
2000
17df
0945
06db
4145
2659
1020
03fe
0124
0924
0aaa
1451
1088
2104
4603
0000
ENDCHAR
STARTCHAR 6f41
ENCODING 28481
SWIDTH 823 0
DWIDTH 16 0
BBX 16 16 0 -2
BITMAP
2103
111c
0ff0
0450
0250
429f
2ff2
1112
0112
0ff2
0912
1392
1552
2922
4102
0000
ENDCHAR
STARTCHAR 6f42
ENCODING 28482
SWIDTH 823 0
DWIDTH 16 0
BBX 16 16 0 -2
BITMAP
2014
1792
0c92
0490
4797
2078
1f92
0492
0794
1494
1788
24c8
2795
58a5
40c2
0000
ENDCHAR
STARTCHAR 6f43
ENCODING 28483
SWIDTH 823 0
DWIDTH 16 0
BBX 16 16 0 -2
BITMAP
2012
1792
0ca4
04bf
44e4
27a4
14bf
04a4
04a4
0fa4
0cbf
14a4
14a4
27a4
403f
0000
ENDCHAR
STARTCHAR 6f44
ENCODING 28484
SWIDTH 823 0
DWIDTH 16 0
BBX 16 16 0 -2
BITMAP
2104
1555
0d55
028a
4451
2000
13fe
0202
0020
0fff
08a8
1124
1222
2421
4020
0000
ENDCHAR
STARTCHAR 6f45
ENCODING 28485
SWIDTH 823 0
DWIDTH 16 0
BBX 16 16 0 -2
BITMAP
2020
1040
09fc
0104
41fc
2104
13fe
0222
03fe
0a22
0bfe
1000
17ff
2104
4204
0000
ENDCHAR
STARTCHAR 6f46
ENCODING 28486
SWIDTH 823 0
DWIDTH 16 0
BBX 16 16 0 -2
BITMAP
2088
17ff
0910
03ff
4620
2bfe
1220
03fe
0220
0bff
0800
17fe
108c
2070
478f
0000
ENDCHAR
STARTCHAR 6f47
ENCODING 28487
SWIDTH 823 0
DWIDTH 16 0
BBX 16 16 0 -2
BITMAP
27c1
1442
0fc4
0458
47c1
2101
1fe2
0004
07d8
0440
17c1
1101
2542
2924
4318
0000
ENDCHAR
STARTCHAR 6f48
ENCODING 28488
SWIDTH 823 0
DWIDTH 16 0
BBX 16 16 0 -2
BITMAP
2222
1242
0c75
0555
4272
2454
1555
0ef7
0020
0fff
08a8
1124
1222
2421
4020
0000
ENDCHAR
STARTCHAR 6f49
ENCODING 28489
SWIDTH 823 0
DWIDTH 16 0
BBX 16 16 0 -2
BITMAP
27ff
1020
09fc
0104
41fc
2104
17ff
0421
0292
047d
1080
11fc
2684
2078
4787
0000
ENDCHAR
STARTCHAR 6f4a
ENCODING 28490
SWIDTH 823 0
DWIDTH 16 0
BBX 16 16 0 -2
BITMAP
2020
1020
0fff
0448
45fe
2448
17ff
0420
05fe
0d22
0dfe
1522
19fe
2884
4303
0000
ENDCHAR
STARTCHAR 6f4b
ENCODING 28491
SWIDTH 823 0
DWIDTH 16 0
BBX 16 16 0 -2
BITMAP
4200
2fbc
18a4
0aa7
1fc0
48be
2a92
1a94
0888
13b7
1000
17fc
2524
2524
5fff
0000
ENDCHAR
STARTCHAR 6f4c
ENCODING 28492
SWIDTH 823 0
DWIDTH 16 0
BBX 16 16 0 -2
BITMAP
2100
11de
0902
03d4
4248
2554
10a3
0150
07de
0850
0bde
1050
13de
2050
47ff
0000
ENDCHAR
STARTCHAR 6f4d
ENCODING 28493
SWIDTH 823 0
DWIDTH 16 0
BBX 16 16 0 -2
BITMAP
27df
1451
0fdf
0451
47df
2401
150d
04b1
0411
167d
1511
143d
24a5
2525
463d
0000
ENDCHAR
STARTCHAR 6f4e
ENCODING 28494
SWIDTH 823 0
DWIDTH 16 0
BBX 16 16 0 -2
BITMAP
2020
1050
098c
0603
41fc
2000
1777
0555
0777
0800
0bfe
1292
13fe
2292
4296
0000
ENDCHAR
STARTCHAR 6f4f
ENCODING 28495
SWIDTH 823 0
DWIDTH 16 0
BBX 16 16 0 -2
BITMAP
2078
1090
0ffe
0202
43fe
2110
11de
0111
07ff
0888
0ffe
1222
13fe
2095
470f
0000
ENDCHAR
STARTCHAR 6f50
ENCODING 28496
SWIDTH 823 0
DWIDTH 16 0
BBX 16 16 0 -2
BITMAP
2020
17ff
0800
03de
4252
23de
1088
03fe
0088
0bfe
0888
17ff
1089
23b6
40c1
0000
ENDCHAR
STARTCHAR 6f51
ENCODING 28497
SWIDTH 823 0
DWIDTH 16 0
BBX 16 16 0 -2
BITMAP
2529
17bd
0d29
07bd
4529
27bd
1529
0fff
0000
0bfe
0a02
13fe
1104
2088
4fff
0000
ENDCHAR
STARTCHAR 6f52
ENCODING 28498
SWIDTH 823 0
DWIDTH 16 0
BBX 16 16 0 -2
BITMAP
2294
17fe
0908
07fe
4040
23fc
1040
0fff
0480
17be
1492
1794
2488
2f94
40a3
0000
ENDCHAR
STARTCHAR 6f53
ENCODING 28499
SWIDTH 823 0
DWIDTH 16 0
BBX 16 16 0 -2
BITMAP
2020
17ff
0c90
07fe
4492
27fe
1500
05ff
0555
0e23
0dfc
1420
17ff
2888
43f7
0000
ENDCHAR
STARTCHAR 6f54
ENCODING 28500
SWIDTH 823 0
DWIDTH 16 0
BBX 16 16 0 -2
BITMAP
2000
1fff
0110
0ffe
4912
2ffe
0280
0fde
0292
17de
1552
27de
2112
4fd2
4126
0000
ENDCHAR
STARTCHAR 6f55
ENCODING 28501
SWIDTH 823 0
DWIDTH 16 0
BBX 16 16 0 -2
BITMAP
2280
1fe7
0aa9
0ff2
0aa4
4fff
2015
0ff5
0015
17df
1450
27d0
2291
42f1
4f0f
0000
ENDCHAR
STARTCHAR 6f56
ENCODING 28502
SWIDTH 823 0
DWIDTH 16 0
BBX 16 16 0 -2
BITMAP
0080
07f0
0410
07f4
3e88
0cf0
708f
0990
3f7e
2142
3f7e
2143
7ffe
172a
6cd9
0000
ENDCHAR
STARTCHAR 6f57
ENCODING 28503
SWIDTH 823 0
DWIDTH 16 0
BBX 16 16 0 -2
BITMAP
2208
1a88
0ffe
0a88
4fff
2a90
1f96
0079
0f80
103e
1faa
28aa
2faa
452a
5fff
0000
ENDCHAR
STARTCHAR 6f58
ENCODING 28504
SWIDTH 823 0
DWIDTH 16 0
BBX 16 16 0 -2
BITMAP
0000
0000
0000
0000
0000
0000
1244
1222
2111
4111
0000
0000
0000
0000
0000
0000
ENDCHAR
STARTCHAR 6f59
ENCODING 28505
SWIDTH 823 0
DWIDTH 16 0
BBX 16 16 0 -2
BITMAP
0080
0882
0884
1148
1220
0410
180c
6223
0220
0220
0220
0420
0821
1021
601f
0000
ENDCHAR
STARTCHAR 6f5a
ENCODING 28506
SWIDTH 823 0
DWIDTH 16 0
BBX 16 16 0 -2
BITMAP
0808
0808
0908
2908
2908
2a7f
4a08
4808
0808
0808
1408
1408
1208
2108
40ff
0000
ENDCHAR
STARTCHAR 6f5b
ENCODING 28507
SWIDTH 823 0
DWIDTH 16 0
BBX 16 16 0 -2
BITMAP
0080
0080
3ffe
2002
2002
0080
0082
0884
0888
1140
1140
0220
0410
180c
6003
0000
ENDCHAR
STARTCHAR 6f5c
ENCODING 28508
SWIDTH 823 0
DWIDTH 16 0
BBX 16 16 0 -2
BITMAP
0000
1ffc
0440
0440
0440
3ffe
0080
00c0
0141
0641
783f
0000
1222
2111
4111
0000
ENDCHAR
STARTCHAR 6f5d
ENCODING 28509
SWIDTH 823 0
DWIDTH 16 0
BBX 16 16 0 -2
BITMAP
0810
0810
0810
0aff
2a44
2a44
4844
4844
0828
1428
1410
1210
2228
2044
4183
0000
ENDCHAR
STARTCHAR 6f5e
ENCODING 28510
SWIDTH 823 0
DWIDTH 16 0
BBX 16 16 0 -2
BITMAP
0810
0810
0810
0aff
2a00
2a00
487c
4844
0844
0844
1444
1444
2285
2085
4103
0000
ENDCHAR
STARTCHAR 6f5f
ENCODING 28511
SWIDTH 823 0
DWIDTH 16 0
BBX 16 16 0 -2
BITMAP
0410
0410
7fff
0410
0410
07f0
0080
0080
0882
0884
1148
1140
0220
0c18
7007
0000
ENDCHAR
STARTCHAR 6f60
ENCODING 28512
SWIDTH 823 0
DWIDTH 16 0
BBX 16 16 0 -2
BITMAP
0000
0000
0000
0000
0000
0000
0000
0000
0000
0000
0000
0000
0000
0000
0000
0000
ENDCHAR
STARTCHAR 6f60
ENCODING 28512
SWIDTH 823 0
DWIDTH 16 0
BBX 16 16 0 -2
BITMAP
0800
08ff
0820
0a20
2a20
2a40
4840
487f
08c1
08c1
1541
1441
2241
2141
407f
0000
ENDCHAR
STARTCHAR 6f61
ENCODING 28513
SWIDTH 823 0
DWIDTH 16 0
BBX 16 16 0 -2
BITMAP
0800
08ff
0881
0a81
2a81
2af9
4889
4889
0889
0889
14f9
1481
2281
2281
40ff
0000
ENDCHAR
STARTCHAR 6f62
ENCODING 28514
SWIDTH 823 0
DWIDTH 16 0
BBX 16 16 0 -2
BITMAP
0800
087e
0842
0a42
2a42
2a42
487e
4842
0842
0842
1442
147e
2200
2200
40ff
0000
ENDCHAR
STARTCHAR 6f63
ENCODING 28515
SWIDTH 823 0
DWIDTH 16 0
BBX 16 16 0 -2
BITMAP
0200
0210
0438
3fc6
0000
0ff8
0808
0808
0ff8
0080
0882
314c
0220
0c18
7007
0000
ENDCHAR
STARTCHAR 6f64
ENCODING 28516
SWIDTH 823 0
DWIDTH 16 0
BBX 16 16 0 -2
BITMAP
0000
0410
1492
1552
2494
0a28
1144
2082
0000
7fff
4001
4001
4001
0000
0000
0000
ENDCHAR
STARTCHAR 6f65
ENCODING 28517
SWIDTH 823 0
DWIDTH 16 0
BBX 16 16 0 -2
BITMAP
0800
08fe
0882
0a82
2a82
2afe
4884
4882
08b2
0889
1505
1560
2210
2208
4004
0000
ENDCHAR
STARTCHAR 6f66
ENCODING 28518
SWIDTH 823 0
DWIDTH 16 0
BBX 16 16 0 -2
BITMAP
0842
0822
0824
0afe
2a10
2a10
487c
4810
0810
0810
15ff
1410
2210
2210
4010
0000
ENDCHAR
STARTCHAR 6f67
ENCODING 28519
SWIDTH 823 0
DWIDTH 16 0
BBX 16 16 0 -2
BITMAP
0828
0828
0929
0aaa
2aac
2a28
4828
4828
082c
086a
15a9
1428
2229
2049
4187
0000
ENDCHAR
STARTCHAR 6f68
ENCODING 28520
SWIDTH 823 0
DWIDTH 16 0
BBX 16 16 0 -2
BITMAP
0810
0810
08fe
0a10
2a10
2a10
68ff
4800
0810
1810
14fe
1410
2210
2010
41ff
0000
ENDCHAR
STARTCHAR 6f69
ENCODING 28521
SWIDTH 823 0
DWIDTH 16 0
BBX 16 16 0 -2
BITMAP
0800
09fe
0800
0a00
2afc
2a84
4884
48fc
0884
0884
1484
14fc
2200
2000
43ff
0000
ENDCHAR
STARTCHAR 6f6a
ENCODING 28522
SWIDTH 823 0
DWIDTH 16 0
BBX 16 16 0 -2
BITMAP
0810
0810
087e
0910
2910
2a10
48ff
4828
08aa
08aa
1529
1529
2248
2248
4098
0000
ENDCHAR
STARTCHAR 6f6b
ENCODING 28523
SWIDTH 823 0
DWIDTH 16 0
BBX 16 16 0 -2
BITMAP
0000
1ffc
0104
7fff
0104
1ffc
0200
07fc
1c04
6404
07fc
0000
1224
2112
4111
0000
ENDCHAR
STARTCHAR 6f6c
ENCODING 28524
SWIDTH 823 0
DWIDTH 16 0
BBX 16 16 0 -2
BITMAP
0800
08fe
0882
0a82
2afe
2a00
48fe
4882
08fe
0882
1482
14fe
2282
2282
408e
0000
ENDCHAR
STARTCHAR 6f6d
ENCODING 28525
SWIDTH 823 0
DWIDTH 16 0
BBX 16 16 0 -2
BITMAP
0810
0852
0852
0a91
2a10
2afe
4882
4882
08fe
0882
1482
14fe
2282
2282
408e
0000
ENDCHAR
STARTCHAR 6f6e
ENCODING 28526
SWIDTH 823 0
DWIDTH 16 0
BBX 16 16 0 -2
BITMAP
0700
387e
2042
3f42
217e
2140
3f41
203f
6080
4882
0884
1148
1220
0c18
7007
0000
ENDCHAR
STARTCHAR 6f6f
ENCODING 28527
SWIDTH 823 0
DWIDTH 16 0
BBX 16 16 0 -2
BITMAP
0840
0848
088c
0bf2
2a48
2a48
488f
4940
087c
0884
1584
1248
2030
20cc
4303
0000
ENDCHAR
STARTCHAR 6f70
ENCODING 28528
SWIDTH 823 0
DWIDTH 16 0
BBX 16 16 0 -2
BITMAP
0810
2952
2a54
0810
1428
2244
0000
7ff0
0010
0410
0410
3fc8
0409
0405
0402
0000
ENDCHAR
STARTCHAR 6f71
ENCODING 28529
SWIDTH 823 0
DWIDTH 16 0
BBX 16 16 0 -2
BITMAP
0810
0810
081f
0a10
2afe
2c82
48fe
4882
0882
08fe
1410
15ff
2210
2010
4010
0000
ENDCHAR
STARTCHAR 6f72
ENCODING 28530
SWIDTH 823 0
DWIDTH 16 0
BBX 16 16 0 -2
BITMAP
0080
0882
0884
1088
1140
0220
0c18
3006
0408
14a9
2529
244a
0a14
1122
6041
0000
ENDCHAR
STARTCHAR 6f73
ENCODING 28531
SWIDTH 823 0
DWIDTH 16 0
BBX 16 16 0 -2
BITMAP
0844
0844
09ff
0a44
2a44
2a10
48fe
4892
0892
0892
15ff
1410
2228
2044
4183
0000
ENDCHAR
STARTCHAR 6f74
ENCODING 28532
SWIDTH 823 0
DWIDTH 16 0
BBX 16 16 0 -2
BITMAP
0810
0810
09ff
0901
297d
2a00
4c7c
4844
0844
087c
1444
1444
227c
2000
41ff
0000
ENDCHAR
STARTCHAR 6f75
ENCODING 28533
SWIDTH 823 0
DWIDTH 16 0
BBX 16 16 0 -2
BITMAP
0810
0911
0911
0911
2bff
2c00
4bff
4810
0820
09ff
1549
1549
2349
2149
414b
0000
ENDCHAR
STARTCHAR 6f76
ENCODING 28534
SWIDTH 823 0
DWIDTH 16 0
BBX 16 16 0 -2
BITMAP
0810
0f10
111f
2212
0422
3f62
0114
7f94
0108
0114
3f22
0041
1224
2112
4111
0000
ENDCHAR
STARTCHAR 6f77
ENCODING 28535
SWIDTH 823 0
DWIDTH 16 0
BBX 16 16 0 -2
BITMAP
081c
09e0
0800
0b22
2a92
2a94
4800
493e
0922
0922
153e
1522
2322
2122
413e
0000
ENDCHAR
STARTCHAR 6f78
ENCODING 28536
SWIDTH 823 0
DWIDTH 16 0
BBX 16 16 0 -2
BITMAP
080e
08f4
08a2
0b11
2a11
2a20
4840
498e
0902
0902
15ce
1502
2302
2102
41fe
0000
ENDCHAR
STARTCHAR 6f79
ENCODING 28537
SWIDTH 823 0
DWIDTH 16 0
BBX 16 16 0 -2
BITMAP
1000
11fc
1104
15fc
5504
55fc
5222
5122
1124
17ff
1090
2890
2910
2211
440f
0000
ENDCHAR
STARTCHAR 6f7a
ENCODING 28538
SWIDTH 823 0
DWIDTH 16 0
BBX 16 16 0 -2
BITMAP
1000
13ff
1048
13ff
5649
5a49
53ff
5000
11fe
1000
1bff
1410
2094
2313
4470
0000
ENDCHAR
STARTCHAR 6f7b
ENCODING 28539
SWIDTH 823 0
DWIDTH 16 0
BBX 16 16 0 -2
BITMAP
1000
13df
1145
1649
54c3
5545
5649
5020
1040
11fe
1902
15fe
2502
2102
41fe
0000
ENDCHAR
STARTCHAR 6f7c
ENCODING 28540
SWIDTH 823 0
DWIDTH 16 0
BBX 16 16 0 -2
BITMAP
1210
111e
10a2
1654
5508
5494
5063
5388
10be
1088
18be
1488
24ff
2148
423f
0000
ENDCHAR
STARTCHAR 6f7d
ENCODING 28541
SWIDTH 823 0
DWIDTH 16 0
BBX 16 16 0 -2
BITMAP
1000
13df
10c5
114b
56d5
5549
5a20
50d8
1707
1020
19c8
1432
25c4
2018
41e0
0000
ENDCHAR
STARTCHAR 6f7e
ENCODING 28542
SWIDTH 823 0
DWIDTH 16 0
BBX 16 16 0 -2
BITMAP
1104
17ff
1104
15fc
5420
57fe
5222
53fe
1020
13fe
1020
17ff
2850
2888
4307
0000
ENDCHAR
STARTCHAR 7021
ENCODING 28705
SWIDTH 823 0
DWIDTH 16 0
BBX 16 16 0 -2
BITMAP
0800
08fe
0882
08fe
2a82
2afe
4a00
49ff
0949
09ff
1400
15fe
2084
2078
43cf
0000
ENDCHAR
STARTCHAR 7022
ENCODING 28706
SWIDTH 823 0
DWIDTH 16 0
BBX 16 16 0 -2
BITMAP
0414
7f92
007f
3f10
2118
3f28
0529
14a9
64c7
0084
0888
3148
0220
0c18
7007
0000
ENDCHAR
STARTCHAR 7023
ENCODING 28707
SWIDTH 823 0
DWIDTH 16 0
BBX 16 16 0 -2
BITMAP
1088
1090
15ff
1710
55fe
5910
5110
51fe
1110
1910
15ff
2400
214a
4249
0201
0000
ENDCHAR
STARTCHAR 7024
ENCODING 28708
SWIDTH 823 0
DWIDTH 16 0
BBX 16 16 0 -2
BITMAP
1004
1144
7c9f
1144
1004
394e
3496
5145
1004
0080
0882
314c
0220
0c18
7007
0000
ENDCHAR
STARTCHAR 7025
ENCODING 28709
SWIDTH 823 0
DWIDTH 16 0
BBX 16 16 0 -2
BITMAP
21f8
1108
09f8
4108
21f8
1000
07ff
1080
11fe
2252
40a6
0880
314c
0630
780f
0000
ENDCHAR
STARTCHAR 7026
ENCODING 28710
SWIDTH 823 0
DWIDTH 16 0
BBX 16 16 0 -2
BITMAP
1000
13df
1251
17df
5a51
53df
5201
5211
1209
12ab
1aa1
1721
2625
221d
4203
0000
ENDCHAR
STARTCHAR 7027
ENCODING 28711
SWIDTH 823 0
DWIDTH 16 0
BBX 16 16 0 -2
BITMAP
0410
7fff
0410
0800
3f10
087c
7f94
1254
6b54
1e24
0825
7f53
1444
2222
4111
0000
ENDCHAR
STARTCHAR 7028
ENCODING 28712
SWIDTH 823 0
DWIDTH 16 0
BBX 16 16 0 -2
BITMAP
1088
1088
11ef
1554
5622
5480
53ef
5229
13e9
1229
1be9
1609
27c9
222b
41e8
0000
ENDCHAR
STARTCHAR 7029
ENCODING 28713
SWIDTH 823 0
DWIDTH 16 0
BBX 16 16 0 -2
BITMAP
0000
0000
0000
0006
0078
1f80
0002
0082
1084
1044
0848
0408
0000
0000
0000
0000
ENDCHAR
STARTCHAR 702a
ENCODING 28714
SWIDTH 823 0
DWIDTH 16 0
BBX 16 16 0 -2
BITMAP
0000
0000
0000
000c
0070
0f80
0888
0884
1042
1041
2041
4000
0000
0000
0000
0000
ENDCHAR
STARTCHAR 702b
ENCODING 28715
SWIDTH 823 0
DWIDTH 16 0
BBX 16 16 0 -2
BITMAP
0003
7fbe
4aaa
49aa
7faa
48aa
74aa
55aa
75aa
42aa
76aa
49aa
70aa
40a9
7fc9
0000
ENDCHAR
STARTCHAR 702c
ENCODING 28716
SWIDTH 823 0
DWIDTH 16 0
BBX 16 16 0 -2
BITMAP
0140
0220
0c18
3366
0080
0140
0630
780f
0ff8
0888
0888
0ff8
0800
0801
07ff
0000
ENDCHAR
STARTCHAR 702d
ENCODING 28717
SWIDTH 823 0
DWIDTH 16 0
BBX 16 16 0 -2
BITMAP
0140
0630
3b6e
0080
0770
790f
03f8
0e10
0160
1fc0
00fc
0704
0088
0070
0fc0
0000
ENDCHAR
STARTCHAR 702e
ENCODING 28718
SWIDTH 823 0
DWIDTH 16 0
BBX 16 16 0 -2
BITMAP
0020
0020
0020
0220
0120
00a0
00a0
0020
0060
00a0
0120
0620
0020
0020
0020
0000
ENDCHAR
STARTCHAR 702f
ENCODING 28719
SWIDTH 823 0
DWIDTH 16 0
BBX 16 16 0 -2
BITMAP
0484
2444
2448
25fe
2420
3c20
05fc
0420
7c20
2420
27ff
2420
2420
2420
4420
0000
ENDCHAR
STARTCHAR 7030
ENCODING 28720
SWIDTH 823 0
DWIDTH 16 0
BBX 16 16 0 -2
BITMAP
2410
2410
25ff
2482
3e44
21ff
2101
2111
3c10
25ff
2420
243e
2422
4442
458c
0000
ENDCHAR
STARTCHAR 7031
ENCODING 28721
SWIDTH 823 0
DWIDTH 16 0
BBX 16 16 0 -2
BITMAP
2810
2bff
2a10
2afe
3e12
23ff
2212
22fe
3a92
2afe
2a92
2afe
2a92
2c92
4896
0000
ENDCHAR
STARTCHAR 7032
ENCODING 28722
SWIDTH 823 0
DWIDTH 16 0
BBX 16 16 0 -2
BITMAP
0800
29fe
2822
2822
3ea2
48a2
48a2
0922
0922
0c42
1842
6842
0882
0902
0a1c
0000
ENDCHAR
STARTCHAR 7033
ENCODING 28723
SWIDTH 823 0
DWIDTH 16 0
BBX 16 16 0 -2
BITMAP
0000
3f7e
0102
1122
0a14
0408
1a14
6163
0880
0ffc
1080
0080
3fff
0080
0080
0000
ENDCHAR
STARTCHAR 7034
ENCODING 28724
SWIDTH 823 0
DWIDTH 16 0
BBX 16 16 0 -2
BITMAP
0848
0844
1044
303f
57e0
1020
1011
1009
1886
0ff8
1080
2080
7fff
0080
0080
0000
ENDCHAR
STARTCHAR 7035
ENCODING 28725
SWIDTH 823 0
DWIDTH 16 0
BBX 16 16 0 -2
BITMAP
0810
2810
2810
2810
3eff
4810
4810
0810
0810
0efe
7882
0882
0882
0882
08fe
0000
ENDCHAR
STARTCHAR 7036
ENCODING 28726
SWIDTH 823 0
DWIDTH 16 0
BBX 16 16 0 -2
BITMAP
0810
2810
29ff
2901
3f01
48fe
4804
0808
0e10
19ff
6810
0810
0810
0810
0870
0000
ENDCHAR
STARTCHAR 7037
ENCODING 28727
SWIDTH 823 0
DWIDTH 16 0
BBX 16 16 0 -2
BITMAP
0810
2890
2890
28fe
3d10
4910
4810
09ff
0c10
1800
68fe
0882
0882
0882
08fe
0000
ENDCHAR
STARTCHAR 7038
ENCODING 28728
SWIDTH 823 0
DWIDTH 16 0
BBX 16 16 0 -2
BITMAP
0404
3f04
047f
7f84
0424
3f14
0414
0784
781c
0880
0ff8
1080
3ffe
0080
0080
0000
ENDCHAR
STARTCHAR 7039
ENCODING 28729
SWIDTH 823 0
DWIDTH 16 0
BBX 16 16 0 -2
BITMAP
0810
0828
1244
2682
797d
0100
08fe
2804
3e04
4808
08fe
7f82
0882
0882
08fe
0000
ENDCHAR
STARTCHAR 703a
ENCODING 28730
SWIDTH 823 0
DWIDTH 16 0
BBX 16 16 0 -2
BITMAP
0208
0110
00a0
0040
00a0
0320
0c20
0050
0090
0310
0c10
0010
0010
0020
00c0
0000
ENDCHAR
STARTCHAR 703b
ENCODING 28731
SWIDTH 823 0
DWIDTH 16 0
BBX 16 16 0 -2
BITMAP
0104
0102
7fff
0100
0100
0208
0208
0508
0510
0890
1060
2020
40d0
030c
0c03
0000
ENDCHAR
STARTCHAR 703c
ENCODING 28732
SWIDTH 823 0
DWIDTH 16 0
BBX 16 16 0 -2
BITMAP
0480
4480
2880
1080
13f8
2888
4888
0888
1888
2888
4888
0908
0909
1209
6407
0000
ENDCHAR
STARTCHAR 703d
ENCODING 28733
SWIDTH 823 0
DWIDTH 16 0
BBX 16 16 0 -2
BITMAP
0480
4480
2880
1080
13f8
2888
4888
0b88
1888
28c8
48a8
0908
0909
1209
6407
0000
ENDCHAR
STARTCHAR 703e
ENCODING 28734
SWIDTH 823 0
DWIDTH 16 0
BBX 16 16 0 -2
BITMAP
0420
4420
2844
1044
108e
2bf9
4848
0848
1848
2848
4848
0888
0889
1109
6207
0000
ENDCHAR
STARTCHAR 703f
ENCODING 28735
SWIDTH 823 0
DWIDTH 16 0
BBX 16 16 0 -2
BITMAP
0420
4424
2838
13e0
1020
2924
4924
0924
1924
2924
49fc
0820
0821
1021
601f
0000
ENDCHAR
STARTCHAR 7040
ENCODING 28736
SWIDTH 823 0
DWIDTH 16 0
BBX 16 16 0 -2
BITMAP
0420
4520
2920
1120
11fe
2a20
4a20
0820
1820
28fc
4820
0820
0820
1020
63ff
0000
ENDCHAR
STARTCHAR 7041
ENCODING 28737
SWIDTH 823 0
DWIDTH 16 0
BBX 16 16 0 -2
BITMAP
0400
45fe
2842
1042
1042
2882
4882
090c
1800
28fe
4882
0882
0882
1082
60fe
0000
ENDCHAR
STARTCHAR 7042
ENCODING 28738
SWIDTH 823 0
DWIDTH 16 0
BBX 16 16 0 -2
BITMAP
0420
4420
2820
1020
13fe
2a22
4a22
0a22
1a22
2bfe
4a22
0a22
0a22
1222
63fe
0000
ENDCHAR
STARTCHAR 7043
ENCODING 28739
SWIDTH 823 0
DWIDTH 16 0
BBX 16 16 0 -2
BITMAP
0420
4420
2850
1088
1104
2efb
4820
0820
19fe
2820
4924
0924
0a22
1421
6060
0000
ENDCHAR
STARTCHAR 7044
ENCODING 28740
SWIDTH 823 0
DWIDTH 16 0
BBX 16 16 0 -2
BITMAP
0400
45fc
2800
13ff
1000
29fc
4800
09fc
1800
2800
49fc
0904
0904
1104
61fc
0000
ENDCHAR
STARTCHAR 7045
ENCODING 28741
SWIDTH 823 0
DWIDTH 16 0
BBX 16 16 0 -2
BITMAP
0420
443e
2820
13ff
1201
2a22
4a3c
0ae0
1a21
2a1f
4a00
0a48
0a49
1449
6187
0000
ENDCHAR
STARTCHAR 7046
ENCODING 28742
SWIDTH 823 0
DWIDTH 16 0
BBX 16 16 0 -2
BITMAP
3f10
2114
3f12
2112
3f10
00ff
3f10
2110
3f10
2128
2128
3f24
2144
2142
2781
0000
ENDCHAR
STARTCHAR 7047
ENCODING 28743
SWIDTH 823 0
DWIDTH 16 0
BBX 16 16 0 -2
BITMAP
0881
4a81
2a89
37e9
1489
3089
57e9
1089
1089
37e9
54a9
14a1
14a1
24e1
4087
0000
ENDCHAR
STARTCHAR 7048
ENCODING 28744
SWIDTH 823 0
DWIDTH 16 0
BBX 16 16 0 -2
BITMAP
0438
45c8
2924
1224
13fc
2824
4824
0fff
1824
2824
4bfc
0820
0820
1020
60e0
0000
ENDCHAR
STARTCHAR 7049
ENCODING 28745
SWIDTH 823 0
DWIDTH 16 0
BBX 16 16 0 -2
BITMAP
0488
4488
2bff
1088
1088
2900
49fe
0a02
1af2
2c92
4892
0892
08f2
1002
601c
0000
ENDCHAR
STARTCHAR 704a
ENCODING 28746
SWIDTH 823 0
DWIDTH 16 0
BBX 16 16 0 -2
BITMAP
0420
4420
2fff
10a8
10a8
2924
4a22
0c01
19fc
2904
49fc
0904
09fc
1000
67ff
0000
ENDCHAR
STARTCHAR 704b
ENCODING 28747
SWIDTH 823 0
DWIDTH 16 0
BBX 16 16 0 -2
BITMAP
0400
45fe
2922
11fe
1122
29fe
4800
09fe
1902
29fe
4902
09fe
0902
1102
610e
0000
ENDCHAR
STARTCHAR 704c
ENCODING 28748
SWIDTH 823 0
DWIDTH 16 0
BBX 16 16 0 -2
BITMAP
0400
47fe
2884
1048
13ff
2852
4894
0b10
1810
2820
4fff
08a8
0924
1623
6020
0000
ENDCHAR
STARTCHAR 704d
ENCODING 28749
SWIDTH 823 0
DWIDTH 16 0
BBX 16 16 0 -2
BITMAP
0400
47de
2a42
1242
1242
2bde
4a00
0a3e
1bd2
2a12
4a14
0bcc
0a08
1214
6263
0000
ENDCHAR
STARTCHAR 704e
ENCODING 28750
SWIDTH 823 0
DWIDTH 16 0
BBX 16 16 0 -2
BITMAP
0400
47ff
2a01
12fd
1084
2884
48fc
0884
1884
28fc
4820
0bff
0800
1084
6303
0000
ENDCHAR
STARTCHAR 704f
ENCODING 28751
SWIDTH 823 0
DWIDTH 16 0
BBX 16 16 0 -2
BITMAP
0420
3f20
047f
7fc2
0422
7f94
0808
0f94
10a2
6749
0084
7fff
0220
0c18
7007
0000
ENDCHAR
STARTCHAR 7050
ENCODING 28752
SWIDTH 823 0
DWIDTH 16 0
BBX 16 16 0 -2
BITMAP
0418
45e4
2922
1212
11fc
2904
49fe
0902
1902
29ff
4a01
0a15
0d4b
1121
6206
0000
ENDCHAR
STARTCHAR 7051
ENCODING 28753
SWIDTH 823 0
DWIDTH 16 0
BBX 16 16 0 -2
BITMAP
0420
4450
2888
1104
16fb
2800
4bde
0a52
1a52
2bde
4800
0904
0904
128a
6451
0000
ENDCHAR
STARTCHAR 7052
ENCODING 28754
SWIDTH 823 0
DWIDTH 16 0
BBX 16 16 0 -2
BITMAP
0900
49df
2a45
1485
13e5
2aa9
4ab3
0be0
1aaa
2aaf
4bf2
0a22
0a3f
1222
6462
0000
ENDCHAR
STARTCHAR 7053
ENCODING 28755
SWIDTH 823 0
DWIDTH 16 0
BBX 16 16 0 -2
BITMAP
0400
44f8
2888
10f8
1000
2bde
4a52
0a52
1bde
2820
4fff
08a8
0924
1623
6020
0000
ENDCHAR
STARTCHAR 7054
ENCODING 28756
SWIDTH 823 0
DWIDTH 16 0
BBX 16 16 0 -2
BITMAP
0800
4fff
2924
1222
17ff
2a22
4b76
0aaa
1b76
2a22
4b76
0aaa
0b76
1222
6226
0000
ENDCHAR
STARTCHAR 7055
ENCODING 28757
SWIDTH 823 0
DWIDTH 16 0
BBX 16 16 0 -2
BITMAP
040e
47f0
2820
17ff
1020
2bfe
4a22
0aaa
1bfe
2820
49fc
0820
0fff
1292
6449
0000
ENDCHAR
STARTCHAR 7056
ENCODING 28758
SWIDTH 823 0
DWIDTH 16 0
BBX 16 16 0 -2
BITMAP
0420
47ff
2a01
11fe
1124
2a28
48fe
0b82
18fe
2882
48fe
0882
08fe
1044
6183
0000
ENDCHAR
STARTCHAR 7057
ENCODING 28759
SWIDTH 823 0
DWIDTH 16 0
BBX 16 16 0 -2
BITMAP
0410
4410
2bff
1244
13ff
2a44
4bff
0a10
1afe
2a92
4afe
0a92
0afe
1444
6183
0000
ENDCHAR
STARTCHAR 7058
ENCODING 28760
SWIDTH 823 0
DWIDTH 16 0
BBX 16 16 0 -2
BITMAP
13de
1252
53de
2000
27ff
5408
15c8
348f
37fa
5552
15ca
154a
15c4
2a4a
4051
0000
ENDCHAR
STARTCHAR 7059
ENCODING 28761
SWIDTH 823 0
DWIDTH 16 0
BBX 16 16 0 -2
BITMAP
0820
0820
08a4
7fa4
08a2
0922
1121
2224
1424
0864
0808
1208
2610
7920
01c0
0000
ENDCHAR
STARTCHAR 705a
ENCODING 28762
SWIDTH 823 0
DWIDTH 16 0
BBX 16 16 0 -2
BITMAP
0000
3ffe
0080
0090
0088
0084
0080
1ffc
0080
0080
0080
0080
0080
0080
7fff
0000
ENDCHAR
STARTCHAR 705b
ENCODING 28763
SWIDTH 823 0
DWIDTH 16 0
BBX 16 16 0 -2
BITMAP
0002
0102
7d22
1122
1122
1122
1122
7d22
1122
1122
1122
1d22
6222
0202
0402
0000
ENDCHAR
STARTCHAR 705c
ENCODING 28764
SWIDTH 823 0
DWIDTH 16 0
BBX 16 16 0 -2
BITMAP
0000
01fe
7c02
1002
1002
1002
11fe
7d00
1100
1100
1100
1d00
6101
0101
00ff
0000
ENDCHAR
STARTCHAR 705d
ENCODING 28765
SWIDTH 823 0
DWIDTH 16 0
BBX 16 16 0 -2
BITMAP
0010
0008
7c88
1084
1104
1122
1221
7c20
1020
1040
1048
1c44
6044
009a
03e2
0000
ENDCHAR
STARTCHAR 705e
ENCODING 28766
SWIDTH 823 0
DWIDTH 16 0
BBX 16 16 0 -2
BITMAP
0020
0020
7c20
13fe
1020
1020
1020
7c20
13ff
1020
1050
1c50
6088
0104
0603
0000
ENDCHAR
STARTCHAR 705f
ENCODING 28767
SWIDTH 823 0
DWIDTH 16 0
BBX 16 16 0 -2
BITMAP
0000
00fe
7c82
1082
1082
10fe
1082
7c82
1082
10fe
1082
1d02
6102
0202
040e
0000
ENDCHAR
STARTCHAR 7060
ENCODING 28768
SWIDTH 823 0
DWIDTH 16 0
BBX 16 16 0 -2
BITMAP
0000
01fe
7c20
1020
1020
1020
1020
7dfe
1020
1020
1020
1c20
6020
0020
03ff
0000
ENDCHAR
STARTCHAR 7061
ENCODING 28769
SWIDTH 823 0
DWIDTH 16 0
BBX 16 16 0 -2
BITMAP
0084
0084
7c84
1084
13ff
1084
1084
7c84
1084
10fc
1084
1c84
6084
0084
00fc
0000
ENDCHAR
STARTCHAR 7062
ENCODING 28770
SWIDTH 823 0
DWIDTH 16 0
BBX 16 16 0 -2
BITMAP
0020
0020
7c20
1020
103f
1020
1020
7c20
11fe
1102
1102
1d02
6102
0102
01fe
0000
ENDCHAR
STARTCHAR 7063
ENCODING 28771
SWIDTH 823 0
DWIDTH 16 0
BBX 16 16 0 -2
BITMAP
0020
0020
7c20
13ff
1020
1020
1044
7c84
1188
1050
1020
1c24
6044
009a
03e1
0000
ENDCHAR
STARTCHAR 7064
ENCODING 28772
SWIDTH 823 0
DWIDTH 16 0
BBX 16 16 0 -2
BITMAP
0088
0088
7c88
1088
1289
12ee
1288
7e88
1288
1288
1288
1e88
62e9
0389
0607
0000
ENDCHAR
STARTCHAR 7065
ENCODING 28773
SWIDTH 823 0
DWIDTH 16 0
BBX 16 16 0 -2
BITMAP
0000
03fe
7842
1042
1082
1082
1102
7a1c
1000
11fe
1102
1d02
6102
0102
01fe
0000
ENDCHAR
STARTCHAR 7066
ENCODING 28774
SWIDTH 823 0
DWIDTH 16 0
BBX 16 16 0 -2
BITMAP
0010
0010
7c10
11ff
1111
1111
11ff
7d11
1111
1111
11ff
1c10
6010
0010
0010
0000
ENDCHAR
STARTCHAR 7067
ENCODING 28775
SWIDTH 823 0
DWIDTH 16 0
BBX 16 16 0 -2
BITMAP
0040
0080
7b0f
1249
1249
1249
1249
7a49
1249
1249
13c9
1e4f
6048
0088
0108
0000
ENDCHAR
STARTCHAR 7068
ENCODING 28776
SWIDTH 823 0
DWIDTH 16 0
BBX 16 16 0 -2
BITMAP
0000
7f7f
0808
0808
3e3e
0808
0808
0f7f
7880
0080
0140
0140
0220
0c18
7007
0000
ENDCHAR
STARTCHAR 7069
ENCODING 28777
SWIDTH 823 0
DWIDTH 16 0
BBX 16 16 0 -2
BITMAP
0050
0050
7e52
1254
1158
1150
1050
7c50
1058
11d6
1250
1c90
7091
0111
020f
0000
ENDCHAR
STARTCHAR 706a
ENCODING 28778
SWIDTH 823 0
DWIDTH 16 0
BBX 16 16 0 -2
BITMAP
0012
0011
7c10
13ff
1210
1210
13f2
7e52
1254
1254
1248
1e48
65d5
0425
0842
0000
ENDCHAR
STARTCHAR 706b
ENCODING 28779
SWIDTH 823 0
DWIDTH 16 0
BBX 16 16 0 -2
BITMAP
0020
0020
7bfe
1202
1202
11fc
1000
7800
17ff
1088
1088
1888
6109
0209
0407
0000
ENDCHAR
STARTCHAR 706c
ENCODING 28780
SWIDTH 823 0
DWIDTH 16 0
BBX 16 16 0 -2
BITMAP
0000
01fc
7c44
1044
13ff
1044
1044
7dfc
1080
10fe
1182
1e82
6482
0082
00fe
0000
ENDCHAR
STARTCHAR 706d
ENCODING 28781
SWIDTH 823 0
DWIDTH 16 0
BBX 16 16 0 -2
BITMAP
0080
0080
7dff
1100
1200
11ff
1012
7c14
1090
1090
109e
1c90
60d0
0130
020f
0000
ENDCHAR
STARTCHAR 706e
ENCODING 28782
SWIDTH 823 0
DWIDTH 16 0
BBX 16 16 0 -2
BITMAP
001c
01e4
7922
1212
11fe
1022
1022
7bff
1022
1022
11fe
1820
6020
0020
00e0
0000
ENDCHAR
STARTCHAR 706f
ENCODING 28783
SWIDTH 823 0
DWIDTH 16 0
BBX 16 16 0 -2
BITMAP
0000
03fe
7a02
1222
12fa
1222
12fa
7a22
1202
12fa
128a
1a8a
64fa
0402
080e
0000
ENDCHAR
STARTCHAR 7070
ENCODING 28784
SWIDTH 823 0
DWIDTH 16 0
BBX 16 16 0 -2
BITMAP
0000
7f7f
0808
0808
3e3e
0808
0f08
70ff
0080
7fff
02a0
0490
188c
6083
0080
0000
ENDCHAR
STARTCHAR 7071
ENCODING 28785
SWIDTH 823 0
DWIDTH 16 0
BBX 16 16 0 -2
BITMAP
0020
0020
7bff
1020
13fe
1222
1326
7aaa
1222
13fe
10a8
1924
6222
0421
0020
0000
ENDCHAR
STARTCHAR 7072
ENCODING 28786
SWIDTH 823 0
DWIDTH 16 0
BBX 16 16 0 -2
BITMAP
001c
01e0
7c20
11fe
1122
1122
11fe
7820
13ff
1221
1229
1e35
62c5
0201
0203
0000
ENDCHAR
STARTCHAR 7073
ENCODING 28787
SWIDTH 823 0
DWIDTH 16 0
BBX 16 16 0 -2
BITMAP
0020
0020
7bfe
1020
11fc
1050
17ff
7888
11fc
1306
1505
19fc
6104
0104
01fc
0000
ENDCHAR
STARTCHAR 7074
ENCODING 28788
SWIDTH 823 0
DWIDTH 16 0
BBX 16 16 0 -2
BITMAP
0080
00f8
7908
1210
17fe
1252
1252
7a52
129e
1302
1020
1fff
6050
018c
0603
0000
ENDCHAR
STARTCHAR 7075
ENCODING 28789
SWIDTH 823 0
DWIDTH 16 0
BBX 16 16 0 -2
BITMAP
0000
01f8
7908
11f8
1108
1108
11f8
7800
17ff
1100
13fe
1cd2
6322
00c2
001c
0000
ENDCHAR
STARTCHAR 7076
ENCODING 28790
SWIDTH 823 0
DWIDTH 16 0
BBX 16 16 0 -2
BITMAP
0020
0040
7dfc
1104
11fc
1104
1104
7dfc
1000
13fe
1020
1dfc
6020
0020
07ff
0000
ENDCHAR
STARTCHAR 7077
ENCODING 28791
SWIDTH 823 0
DWIDTH 16 0
BBX 16 16 0 -2
BITMAP
0100
011c
7de1
1101
10ff
1000
12fe
7e82
12fe
1282
12fe
1e82
63ff
0084
0303
0000
ENDCHAR
STARTCHAR 7078
ENCODING 28792
SWIDTH 823 0
DWIDTH 16 0
BBX 16 16 0 -2
BITMAP
0010
0020
7bfe
1222
12ba
124a
12aa
7a12
122a
13fe
1020
1a92
6291
0485
047c
0000
ENDCHAR
STARTCHAR 7079
ENCODING 28793
SWIDTH 823 0
DWIDTH 16 0
BBX 16 16 0 -2
BITMAP
0124
0124
7a48
1124
11fc
1124
11fc
7924
11fc
1020
17ff
18a8
6124
0623
0020
0000
ENDCHAR
STARTCHAR 707a
ENCODING 28794
SWIDTH 823 0
DWIDTH 16 0
BBX 16 16 0 -2
BITMAP
0088
0088
7be8
108f
108a
13f2
1092
788a
17ea
110a
11e4
1924
622a
022a
04d1
0000
ENDCHAR
STARTCHAR 707b
ENCODING 28795
SWIDTH 823 0
DWIDTH 16 0
BBX 16 16 0 -2
BITMAP
0010
7710
2210
777c
2210
7710
0810
1410
22fe
5d10
0028
3f28
0244
0482
0901
0000
ENDCHAR
STARTCHAR 707c
ENCODING 28796
SWIDTH 823 0
DWIDTH 16 0
BBX 16 16 0 -2
BITMAP
0004
01e8
7e31
114a
1084
137b
1000
7cfc
1084
1084
10fc
1c04
6084
0048
03ff
0000
ENDCHAR
STARTCHAR 707d
ENCODING 28797
SWIDTH 823 0
DWIDTH 16 0
BBX 16 16 0 -2
BITMAP
31f8
0908
61f8
1108
1fff
1100
23fe
2492
4126
7fff
0080
1ffc
0088
0090
7fff
0000
ENDCHAR
STARTCHAR 707e
ENCODING 28798
SWIDTH 823 0
DWIDTH 16 0
BBX 16 16 0 -2
BITMAP
0020
0020
7fff
1048
114a
1084
11fe
7e85
10fc
1084
10fc
1c10
7094
0313
0030
0000
ENDCHAR
STARTCHAR 7121
ENCODING 28961
SWIDTH 823 0
DWIDTH 16 0
BBX 16 16 0 -2
BITMAP
001c
03e0
7a22
1124
17ff
10a8
1124
7a22
1401
13fe
1222
1bfe
6222
0222
03fe
0000
ENDCHAR
STARTCHAR 7122
ENCODING 28962
SWIDTH 823 0
DWIDTH 16 0
BBX 16 16 0 -2
BITMAP
0212
0212
7924
107f
12c8
1148
107e
7b48
1148
117e
1148
1948
617f
0280
047f
0000
ENDCHAR
STARTCHAR 7123
ENCODING 28963
SWIDTH 823 0
DWIDTH 16 0
BBX 16 16 0 -2
BITMAP
0144
0144
7be4
114f
114a
1212
13ea
7a2a
17aa
12aa
12a4
1aa4
63aa
004a
00d1
0000
ENDCHAR
STARTCHAR 7124
ENCODING 28964
SWIDTH 823 0
DWIDTH 16 0
BBX 16 16 0 -2
BITMAP
0000
00f8
7888
10f8
1000
13de
1252
7a52
13de
1020
17ff
18a8
6124
0623
0020
0000
ENDCHAR
STARTCHAR 7125
ENCODING 28965
SWIDTH 823 0
DWIDTH 16 0
BBX 16 16 0 -2
BITMAP
0222
0222
7d24
13ff
1201
12fd
1084
7cfc
1000
11fe
1122
1dfe
6122
0122
01fe
0000
ENDCHAR
STARTCHAR 7126
ENCODING 28966
SWIDTH 823 0
DWIDTH 16 0
BBX 16 16 0 -2
BITMAP
0020
0020
7bfe
1020
11fc
1000
17ff
7821
13fe
1000
17ff
1802
67bf
0492
0786
0000
ENDCHAR
STARTCHAR 7127
ENCODING 28967
SWIDTH 823 0
DWIDTH 16 0
BBX 16 16 0 -2
BITMAP
0000
07df
7945
1259
11c7
1659
1020
7bfe
1104
1104
12aa
1c21
67ff
0020
0020
0000
ENDCHAR
STARTCHAR 7128
ENCODING 28968
SWIDTH 823 0
DWIDTH 16 0
BBX 16 16 0 -2
BITMAP
0800
33ec
2224
3bac
2224
3bac
22a4
7ffe
4002
5ffa
0080
0ff0
0090
0088
3ffe
0000
ENDCHAR
STARTCHAR 7129
ENCODING 28969
SWIDTH 823 0
DWIDTH 16 0
BBX 16 16 0 -2
BITMAP
0020
07ff
7800
13de
1252
13de
1088
7bfe
1088
13fe
1088
1fff
60c9
0796
00e3
0000
ENDCHAR
STARTCHAR 712a
ENCODING 28970
SWIDTH 823 0
DWIDTH 16 0
BBX 16 16 0 -2
BITMAP
0088
07ff
7888
13de
1252
13de
1084
7888
11fe
1310
15fc
1910
61fc
0110
01ff
0000
ENDCHAR
STARTCHAR 712b
ENCODING 28971
SWIDTH 823 0
DWIDTH 16 0
BBX 16 16 0 -2
BITMAP
0710
3a50
2250
227e
2a90
2a10
2bff
2a10
2a30
2a28
2944
2982
2a80
4e60
591f
0000
ENDCHAR
STARTCHAR 712c
ENCODING 28972
SWIDTH 823 0
DWIDTH 16 0
BBX 16 16 0 -2
BITMAP
0000
00fe
7f40
4040
4240
427c
5244
4a44
4464
4454
4a54
7244
404c
7f75
00c3
0000
ENDCHAR
STARTCHAR 712d
ENCODING 28973
SWIDTH 823 0
DWIDTH 16 0
BBX 16 16 0 -2
BITMAP
0030
0408
1804
67fb
0108
0208
0c70
0000
7fff
0200
07f0
0590
0850
0ff1
780f
0000
ENDCHAR
STARTCHAR 712e
ENCODING 28974
SWIDTH 823 0
DWIDTH 16 0
BBX 16 16 0 -2
BITMAP
0000
7f3e
2020
203e
2020
3e3e
2220
2220
32ff
2a20
2a24
224a
26f1
3a01
61ff
0000
ENDCHAR
STARTCHAR 712f
ENCODING 28975
SWIDTH 823 0
DWIDTH 16 0
BBX 16 16 0 -2
BITMAP
0000
1eff
1040
1e40
1040
1e7c
1044
1044
7f64
1054
1054
1244
264c
7975
00c3
0000
ENDCHAR
STARTCHAR 7130
ENCODING 28976
SWIDTH 823 0
DWIDTH 16 0
BBX 16 16 0 -2
BITMAP
0010
7e20
20fe
2082
20fe
3e82
22fe
2211
33d2
2a5c
2a54
2292
2731
3a01
61ff
0000
ENDCHAR
STARTCHAR 7131
ENCODING 28977
SWIDTH 823 0
DWIDTH 16 0
BBX 16 16 0 -2
BITMAP
0020
0120
7920
4920
49fe
4a20
4820
7820
4820
4bfe
4820
4820
7820
0020
07ff
0000
ENDCHAR
STARTCHAR 7132
ENCODING 28978
SWIDTH 823 0
DWIDTH 16 0
BBX 16 16 0 -2
BITMAP
0008
7fa8
0828
113f
7148
0a08
1c08
643e
0608
0e08
1508
657f
0480
0840
383f
0000
ENDCHAR
STARTCHAR 7133
ENCODING 28979
SWIDTH 823 0
DWIDTH 16 0
BBX 16 16 0 -2
BITMAP
0100
0100
0200
1ffc
1084
1084
1ffc
1084
1084
1084
1ffc
1084
1084
2084
401c
0000
ENDCHAR
STARTCHAR 7134
ENCODING 28980
SWIDTH 823 0
DWIDTH 16 0
BBX 16 16 0 -2
BITMAP
0020
0020
7c20
5420
5420
5420
7c20
5420
5450
5450
5450
7c88
0088
0104
0603
0000
ENDCHAR
STARTCHAR 7135
ENCODING 28981
SWIDTH 823 0
DWIDTH 16 0
BBX 16 16 0 -2
BITMAP
0000
03fc
7d04
5504
5504
5488
7c88
5488
5450
5450
5420
7c50
0088
0104
0603
0000
ENDCHAR
STARTCHAR 7136
ENCODING 28982
SWIDTH 823 0
DWIDTH 16 0
BBX 16 16 0 -2
BITMAP
0002
0092
7c92
5492
5492
5492
7c92
5492
5492
5492
5492
7c92
0102
0102
0202
0000
ENDCHAR
STARTCHAR 7137
ENCODING 28983
SWIDTH 823 0
DWIDTH 16 0
BBX 16 16 0 -2
BITMAP
0884
0884
1108
2210
1108
0884
0884
0000
1ffc
1084
1084
1ffc
1084
1084
1ffc
0000
ENDCHAR
STARTCHAR 7138
ENCODING 28984
SWIDTH 823 0
DWIDTH 16 0
BBX 16 16 0 -2
BITMAP
0000
1ffc
1084
1084
1ffc
1084
1084
1ffc
0000
7fff
0210
0210
0410
0810
3010
0000
ENDCHAR
STARTCHAR 7139
ENCODING 28985
SWIDTH 823 0
DWIDTH 16 0
BBX 16 16 0 -2
BITMAP
0000
00ff
7c80
5480
5480
54fe
54a2
7ca2
54a2
5494
5494
5508
7d14
0222
0041
0000
ENDCHAR
STARTCHAR 713a
ENCODING 28986
SWIDTH 823 0
DWIDTH 16 0
BBX 16 16 0 -2
BITMAP
0020
0028
7c24
5422
5420
57ff
7c20
5420
5420
5450
5450
7c88
0088
0104
0603
0000
ENDCHAR
STARTCHAR 713b
ENCODING 28987
SWIDTH 823 0
DWIDTH 16 0
BBX 16 16 0 -2
BITMAP
0000
3ffe
0000
0ff8
0808
0808
0ff8
0000
1ffc
1084
1084
1ffc
1084
1084
1ffc
0000
ENDCHAR
STARTCHAR 713c
ENCODING 28988
SWIDTH 823 0
DWIDTH 16 0
BBX 16 16 0 -2
BITMAP
0810
0810
0810
7f10
0010
3e10
2a10
2a10
2a28
3e28
2a28
2a44
2a44
3e82
0101
0000
ENDCHAR
STARTCHAR 713d
ENCODING 28989
SWIDTH 823 0
DWIDTH 16 0
BBX 16 16 0 -2
BITMAP
0080
0360
0c18
77f7
0080
1ffe
0490
188c
6183
1ffc
1084
1ffc
1084
1084
1ffc
0000
ENDCHAR
STARTCHAR 713e
ENCODING 28990
SWIDTH 823 0
DWIDTH 16 0
BBX 16 16 0 -2
BITMAP
0080
0360
0c18
77f7
0000
1ffe
0080
188c
6183
1ffc
1084
1ffc
1084
1084
1ffc
0000
ENDCHAR
STARTCHAR 713f
ENCODING 28991
SWIDTH 823 0
DWIDTH 16 0
BBX 16 16 0 -2
BITMAP
0000
7ffe
0240
3e7c
2244
2244
3e7c
0240
1ff8
1108
1108
1ff8
1108
1108
1ff8
0000
ENDCHAR
STARTCHAR 7140
ENCODING 28992
SWIDTH 823 0
DWIDTH 16 0
BBX 16 16 0 -2
BITMAP
0000
3ffe
0000
0ff8
0888
0ff8
0888
3ffe
0000
0ff8
0888
0ff8
0888
0888
7fff
0000
ENDCHAR
STARTCHAR 7141
ENCODING 28993
SWIDTH 823 0
DWIDTH 16 0
BBX 16 16 0 -2
BITMAP
001c
01e0
7c20
57ff
5420
55fe
7d22
55fe
5522
55fe
5420
7dfe
0020
0020
03ff
0000
ENDCHAR
STARTCHAR 7142
ENCODING 28994
SWIDTH 823 0
DWIDTH 16 0
BBX 16 16 0 -2
BITMAP
0000
0ff8
0888
0ff8
0888
0888
0ff8
0000
7f7f
4949
4949
7f7f
4949
4949
7f7f
0000
ENDCHAR
STARTCHAR 7143
ENCODING 28995
SWIDTH 823 0
DWIDTH 16 0
BBX 16 16 0 -2
BITMAP
0000
03df
7cc5
554b
56d5
5549
7e20
54d8
5707
5420
55c8
7c32
01c4
0018
01e0
0000
ENDCHAR
STARTCHAR 7144
ENCODING 28996
SWIDTH 823 0
DWIDTH 16 0
BBX 16 16 0 -2
BITMAP
0000
0ffc
0010
0020
0040
0440
0440
047c
0440
0440
0440
0440
044e
04f0
1f00
0000
ENDCHAR
STARTCHAR 7145
ENCODING 28997
SWIDTH 823 0
DWIDTH 16 0
BBX 16 16 0 -2
BITMAP
0080
0080
3ffe
0080
0ff8
0088
7fff
0088
0ff8
0080
0880
08f8
0c80
1380
20ff
0000
ENDCHAR
STARTCHAR 7146
ENCODING 28998
SWIDTH 823 0
DWIDTH 16 0
BBX 16 16 0 -2
BITMAP
0080
0080
1ffe
5000
3040
1040
1040
1040
37fc
5040
1040
2040
2040
4040
0ffe
0000
ENDCHAR
STARTCHAR 7147
ENCODING 28999
SWIDTH 823 0
DWIDTH 16 0
BBX 16 16 0 -2
BITMAP
0040
0040
1ffe
5000
3040
1040
1242
1244
3448
5440
10a0
20a0
2110
460c
1803
0000
ENDCHAR
STARTCHAR 7148
ENCODING 29000
SWIDTH 823 0
DWIDTH 16 0
BBX 16 16 0 -2
BITMAP
0040
0040
1ffe
5000
3040
1042
1f42
1164
3168
5150
1250
2248
2444
4843
01c0
0000
ENDCHAR
STARTCHAR 7149
ENCODING 29001
SWIDTH 823 0
DWIDTH 16 0
BBX 16 16 0 -2
BITMAP
0080
0080
1ffe
5000
3040
1040
17fc
1040
3040
5040
13f8
2040
2040
4040
07fe
0000
ENDCHAR
STARTCHAR 714a
ENCODING 29002
SWIDTH 823 0
DWIDTH 16 0
BBX 16 16 0 -2
BITMAP
0080
0080
1ffe
5000
3018
17e0
1420
1420
37fe
5420
1410
2790
2c08
4005
0fe2
0000
ENDCHAR
STARTCHAR 714b
ENCODING 29003
SWIDTH 823 0
DWIDTH 16 0
BBX 16 16 0 -2
BITMAP
0040
0040
1ffe
5090
37fc
1094
1094
17fc
3490
5490
17fe
2112
2112
4216
0c10
0000
ENDCHAR
STARTCHAR 714c
ENCODING 29004
SWIDTH 823 0
DWIDTH 16 0
BBX 16 16 0 -2
BITMAP
0080
0080
1ffe
5000
3100
1100
13fe
1202
35f2
5112
1112
21f2
2004
4004
0038
0000
ENDCHAR
STARTCHAR 714d
ENCODING 29005
SWIDTH 823 0
DWIDTH 16 0
BBX 16 16 0 -2
BITMAP
0080
0080
1ffe
5000
37fc
1404
1404
17fc
3400
5504
1518
25e0
2900
4902
10fe
0000
ENDCHAR
STARTCHAR 714e
ENCODING 29006
SWIDTH 823 0
DWIDTH 16 0
BBX 16 16 0 -2
BITMAP
0080
0080
1ffe
5040
3040
17ff
1080
11fc
3304
55fc
1104
21fc
2104
4104
010c
0000
ENDCHAR
STARTCHAR 714f
ENCODING 29007
SWIDTH 823 0
DWIDTH 16 0
BBX 16 16 0 -2
BITMAP
0080
0080
1ffe
5000
37fc
1080
1090
1138
37c4
5040
13f8
2040
2040
4040
0ffe
0000
ENDCHAR
STARTCHAR 7150
ENCODING 29008
SWIDTH 823 0
DWIDTH 16 0
BBX 16 16 0 -2
BITMAP
0080
0080
1ffe
5220
3210
1ffe
1208
1212
3364
5518
1561
2506
2538
4901
10ff
0000
ENDCHAR
STARTCHAR 7151
ENCODING 29009
SWIDTH 823 0
DWIDTH 16 0
BBX 16 16 0 -2
BITMAP
0080
0080
1ffe
5000
3248
1248
1444
13f8
3208
53f8
1208
23f8
2208
4208
0218
0000
ENDCHAR
STARTCHAR 7152
ENCODING 29010
SWIDTH 823 0
DWIDTH 16 0
BBX 16 16 0 -2
BITMAP
0080
0080
1ffe
5110
3238
17e4
1110
1e1f
3200
53f8
1608
2910
20e0
4398
1c07
0000
ENDCHAR
STARTCHAR 7153
ENCODING 29011
SWIDTH 823 0
DWIDTH 16 0
BBX 16 16 0 -2
BITMAP
0080
0080
1ffe
5000
3410
1210
1154
1892
3511
5210
1072
2104
2208
4430
19c0
0000
ENDCHAR
STARTCHAR 7154
ENCODING 29012
SWIDTH 823 0
DWIDTH 16 0
BBX 16 16 0 -2
BITMAP
0080
0080
1ffe
5000
33fc
1204
13fc
1204
33fc
5100
13fe
2492
2922
4242
000c
0000
ENDCHAR
STARTCHAR 7155
ENCODING 29013
SWIDTH 823 0
DWIDTH 16 0
BBX 16 16 0 -2
BITMAP
0080
0080
1ffe
5000
33fc
1200
13f8
1200
33f8
5200
1ffe
2244
2228
4390
0e0e
0000
ENDCHAR
STARTCHAR 7156
ENCODING 29014
SWIDTH 823 0
DWIDTH 16 0
BBX 16 16 0 -2
BITMAP
0080
0080
1ffe
5000
3090
1090
179e
1090
3090
579e
1090
2390
2c9f
4110
0210
0000
ENDCHAR
STARTCHAR 7157
ENCODING 29015
SWIDTH 823 0
DWIDTH 16 0
BBX 16 16 0 -2
BITMAP
0080
0080
1ffe
5000
33f8
1248
13f8
1248
33f8
5000
1ffe
2110
2110
4210
0c10
0000
ENDCHAR
STARTCHAR 7158
ENCODING 29016
SWIDTH 823 0
DWIDTH 16 0
BBX 16 16 0 -2
BITMAP
0040
0040
1ffe
5000
37fe
1040
11a1
1632
3154
5198
16b8
2054
2192
4e21
0060
0000
ENDCHAR
STARTCHAR 7159
ENCODING 29017
SWIDTH 823 0
DWIDTH 16 0
BBX 16 16 0 -2
BITMAP
0080
0080
1ffe
5444
3248
1ffe
1150
1248
3c46
5100
1fff
2108
2610
41f8
0f06
0000
ENDCHAR
STARTCHAR 715a
ENCODING 29018
SWIDTH 823 0
DWIDTH 16 0
BBX 16 16 0 -2
BITMAP
0080
0080
1ffe
5018
33e0
1040
1ffe
1040
37fc
5444
17fc
2444
27fc
4040
1fff
0000
ENDCHAR
STARTCHAR 715b
ENCODING 29019
SWIDTH 823 0
DWIDTH 16 0
BBX 16 16 0 -2
BITMAP
0080
0080
1ffe
5048
3048
17f8
1050
1fff
3088
53fc
1604
3bfc
2204
4204
03fc
0000
ENDCHAR
STARTCHAR 715c
ENCODING 29020
SWIDTH 823 0
DWIDTH 16 0
BBX 16 16 0 -2
BITMAP
0080
0080
1ffe
5080
33fc
1204
13fc
1204
33fc
5000
17fe
2040
23fc
4040
0fff
0000
ENDCHAR
STARTCHAR 715d
ENCODING 29021
SWIDTH 823 0
DWIDTH 16 0
BBX 16 16 0 -2
BITMAP
0080
0080
1ffe
5000
33f8
1208
13f8
1208
33f8
5100
13fe
2e42
22a2
43f2
000c
0000
ENDCHAR
STARTCHAR 715e
ENCODING 29022
SWIDTH 823 0
DWIDTH 16 0
BBX 16 16 0 -2
BITMAP
0040
0040
1ffe
5100
31f8
1210
1ffc
12a4
333c
5204
1040
2ffe
20a0
4318
0c06
0000
ENDCHAR
STARTCHAR 715f
ENCODING 29023
SWIDTH 823 0
DWIDTH 16 0
BBX 16 16 0 -2
BITMAP
0080
0080
1ffe
5200
33be
1e12
1392
1e12
33a2
5e22
124c
2080
2a44
4a0a
11f9
0000
ENDCHAR
STARTCHAR 7160
ENCODING 29024
SWIDTH 823 0
DWIDTH 16 0
BBX 16 16 0 -2
BITMAP
0000
0000
0000
0000
0000
0000
0000
0000
0000
0000
0000
0000
0000
0000
0000
0000
ENDCHAR
STARTCHAR 7160
ENCODING 29024
SWIDTH 823 0
DWIDTH 16 0
BBX 16 16 0 -2
BITMAP
0040
0040
1ffe
5080
33f8
1208
13f8
1208
33f8
5208
13f8
2040
2524
490a
10f9
0000
ENDCHAR
STARTCHAR 7161
ENCODING 29025
SWIDTH 823 0
DWIDTH 16 0
BBX 16 16 0 -2
BITMAP
0040
0040
1ffe
5084
3fff
1084
17fc
1100
33fe
5e02
13fe
2040
27fe
4442
0446
0000
ENDCHAR
STARTCHAR 7162
ENCODING 29026
SWIDTH 823 0
DWIDTH 16 0
BBX 16 16 0 -2
BITMAP
0080
0080
1ffe
5208
3110
17fe
1040
13fc
3040
5fff
1080
23fe
2c20
4020
07ff
0000
ENDCHAR
STARTCHAR 7163
ENCODING 29027
SWIDTH 823 0
DWIDTH 16 0
BBX 16 16 0 -2
BITMAP
0040
0040
1ffe
5100
31f8
1102
10fe
1400
35fc
5504
15fc
2504
27ff
4088
0707
0000
ENDCHAR
STARTCHAR 7164
ENCODING 29028
SWIDTH 823 0
DWIDTH 16 0
BBX 16 16 0 -2
BITMAP
0040
0040
1ffe
5108
37fe
1108
13fc
1204
33fc
5204
13fc
2040
2fff
4090
0f0f
0000
ENDCHAR
STARTCHAR 7165
ENCODING 29029
SWIDTH 823 0
DWIDTH 16 0
BBX 16 16 0 -2
BITMAP
0080
1ffe
1000
5fbe
328a
1596
128a
1452
31b8
5e67
1388
2030
23c6
4038
07c0
0000
ENDCHAR
STARTCHAR 7166
ENCODING 29030
SWIDTH 823 0
DWIDTH 16 0
BBX 16 16 0 -2
BITMAP
0040
0040
1ffe
5000
37ff
1400
147c
1444
347c
5400
15ef
2529
25ef
4400
07ff
0000
ENDCHAR
STARTCHAR 7167
ENCODING 29031
SWIDTH 823 0
DWIDTH 16 0
BBX 16 16 0 -2
BITMAP
0080
0080
1ffe
5040
33fc
1244
13fc
1040
3fff
5204
13fc
2204
23fc
4108
0607
0000
ENDCHAR
STARTCHAR 7168
ENCODING 29032
SWIDTH 823 0
DWIDTH 16 0
BBX 16 16 0 -2
BITMAP
0080
0080
1fff
5240
32ff
1542
187e
1242
347e
5c20
147e
2584
2448
4438
05c7
0000
ENDCHAR
STARTCHAR 7169
ENCODING 29033
SWIDTH 823 0
DWIDTH 16 0
BBX 16 16 0 -2
BITMAP
0040
0040
1ffe
5108
310c
1fd2
1121
17c4
3558
57c2
1544
27d9
2102
4fc4
0138
0000
ENDCHAR
ENDFONT
